<svg xmlns="http://www.w3.org/2000/svg" width="165" height="130" fill="none" viewBox="0 0 165 130">
    <g clip-path="url(#prefix__clip0)">
        <path fill="#8788C2" d="M66.405 10.114c-.213 1.851 1.277 1.638 2.27 1.709 4.54.285 9.08.997 13.69 1.282 15.534.997 31.139 2.066 46.673 3.063 1.561.07 3.192.498 4.327-1.14 3.334-4.487 6.668-8.903 10.001-13.319.284-.427.781-.854.568-1.282-.355-.712-.993-.213-1.561-.142-7.235.926-14.47 1.852-21.705 2.849-6.667.926-13.264 1.994-19.932 2.777-6.242.57-31.422 4.203-34.33 4.203z"/>
        <path fill="#262350" d="M133.364 15.029c-.922.071-1.844.142-2.766.142-20.499-1.282-63.697-3.632-64.193-4.986-1.135.143-2.341.072-3.405.642 2.695 1.851 5.746 2.492 8.937 2.92.852.142 1.632.356 2.341.712 4.965.285 9.718 2.066 14.683 2.493 3.405.427 6.739 1.21 10.072 2.136 7.377.998 14.683 2.636 21.989 4.06.78.143 1.703-.142 2.412.285.922.499 1.986.57 3.05.57 1.631 1.21 2.695 2.92 3.972 4.416 1.206 1.495 2.341 2.991 3.83 4.202.213.499.568.427.994.427-.568-5.27-1.206-10.54-1.774-15.811-.142-.712-.142-1.496-.142-2.208z"/>
        <path fill="#434391" d="M127.406 23.077l-4.256 5.983c0 .57.213 1.424.213 1.424l11.775 2.636c.071-.072-6.597-8.618-7.732-10.043z"/>
        <path fill="#8788C2" d="M127.406 23.077c.284 2.777-12.484 17.877-12.98 18.233-.993.57-1.703.142-2.412-.57-.142-.214-.284-.356-.355-.57-2.553-1.495-46.46-26.709-48.659-29.415 3.76.855 63.271 12.18 64.406 12.322z"/>
        <path stroke="#8788C2" stroke-linecap="round" stroke-miterlimit="10" stroke-width="2.616" d="M136.486 34.828c1.206.499 2.412.997 3.547 1.567"/>
        <path stroke="#8788C2" stroke-dasharray="11 11" stroke-linecap="round" stroke-miterlimit="10" stroke-width="2.5" d="M146.771 40.384c10.498 7.407 16.598 18.02 17.166 26.78 3.475 32.763-67.315 24.857-36.317 7.692.212-.142 2.411-.712 4.256-.285 7.376 1.567 14.541 20.655 8.795 35.612-2.766 7.194-7.944 11.966-12.413 14.957"/>
        <path stroke="#8788C2" stroke-linecap="round" stroke-miterlimit="10" stroke-width="2.616" d="M124.995 127.134c-1.489.783-2.695 1.353-3.475 1.638"/>
    </g>
    <g clip-path="url(#prefix__clip1)">
        <path fill="#8788C2" d="M108.7 63.743c-2 1.407-3.9 2.915-5.9 4.323-2.4 1.71-4.7 3.418-7.1 5.027-1.4 1.106-3 2.111-4.4 3.117-2.7 2.01-5.5 3.921-8.2 5.932-1.1.804-2.2 1.608-3.2 2.312-2.4 1.71-4.8 3.419-7.1 5.128-4.4 3.217-8.8 6.334-13.2 9.551-1.1.805-2.2 1.609-3.2 2.313-.3.201-.5.402-.7.603-.3.302-.6.402-.8.402-.3 0-.5-.1-.8-.402-.2-.201-.5-.402-.7-.603-1.1-.805-2.2-1.609-3.2-2.313-4.4-3.217-8.8-6.334-13.2-9.551-2.4-1.71-4.8-3.419-7.1-5.128-1.1-.804-2.2-1.608-3.2-2.312-2.8-1.91-5.5-3.921-8.2-5.932-1.5-1.106-3-2.111-4.4-3.117-2.4-1.71-4.7-3.318-7.1-5.027-1.9-1.307-3.7-2.715-5.6-4.122l.3-.302c.6-.603 1.5-.905 2.4-.905h102.5c.8 0 1.6.302 2.2.704-.3.1-.2.201-.1.302z"/>
        <path fill="#434391" d="M109.8 66.357v60.023c0 2.011-1.6 3.72-3.7 3.72H3.7c-2 0-3.7-1.608-3.7-3.72V66.357c0-.905.3-1.81.9-2.413l.3-.302c2.3 1.71 4.7 3.419 7.1 5.028 1.6 1.105 3.1 2.212 4.7 3.317.6.403 1.2.805 1.7 1.207 6.5 4.725 13 9.35 19.5 14.076 5.3 3.82 10.6 7.64 15.8 11.461 1.2.905 2.5 1.609 3.6 2.514.4.302.7.503 1.1.503.4 0 .7-.201 1.1-.503 1.1-.905 2.4-1.71 3.6-2.514 5.3-3.82 10.5-7.64 15.8-11.461 6.5-4.625 13-9.35 19.5-14.076.6-.402 1.1-.804 1.7-1.207 1.6-1.105 3.1-2.212 4.7-3.317 2.4-1.71 4.9-3.419 7.3-5.229.1.1.2.201.4.302.6.603 1 1.609 1 2.614z"/>
        <path fill="#FF4F38" d="M102.5 79c6.904 0 12.5-5.82 12.5-13s-5.596-13-12.5-13S90 58.82 90 66s5.596 13 12.5 13z"/>
        <path fill="#FFF5F9" d="M101.345 63.367c-1.179.144-1.915 2.23-3.094.36-.147-.287-.441-.503-.073-.791 1.252-1.007 2.283-2.302 3.903-2.806 1.031-.287 1.989-.215 1.915 1.44-.147 3.02-.074 6.114 0 9.207 0 1.007-.368 1.223-1.326 1.223-.883 0-1.399-.144-1.325-1.223v-7.41z"/>
    </g>
    <defs>
        <clipPath id="prefix__clip0">
            <path fill="#fff" d="M63 0H165V129.698H63z"/>
        </clipPath>
        <clipPath id="prefix__clip1">
            <path fill="#fff" d="M0 45.243H119.2V129.999H0z"/>
        </clipPath>
    </defs>
</svg>
