<svg xmlns="http://www.w3.org/2000/svg" width="24" height="24" fill="none" viewBox="0 0 24 24">
    <path fill="#D8D8D8" d="M0 0H24V24H0z" opacity=".01"/>
    <path stroke="#5555D9" stroke-linecap="round" stroke-linejoin="round" stroke-width="2" d="M2.171 7.828a4 4 0 015.657-5.657M21.828 7.828a4 4 0 00-5.656-5.657"/>
    <path fill-rule="evenodd" stroke="#5555D9" stroke-linecap="round" stroke-linejoin="round" stroke-width="2" d="M21 13a9 9 0 01-9 9 9 9 0 01-9-9 9 9 0 019-9 9 9 0 019 9v0z" clip-rule="evenodd"/>
    <path stroke="#5555D9" stroke-linecap="round" stroke-linejoin="round" stroke-width="2" d="M12 6v7l4 3M5 23l2-2M17 21l2 2"/>
</svg>
