<svg xmlns="http://www.w3.org/2000/svg" width="64" height="64" fill="none" viewBox="0 0 64 64">
    <path fill="#5555D9" d="M12 64V48H4c-2.209 0-4-1.791-4-4V8c0-2.209 1.791-4 4-4h56c2.209 0 4 1.791 4 4v36c0 2.209-1.791 4-4 4H36.582L12 64z"/>
    <path fill="#fff" d="M10 16h16c1.105 0 2 .895 2 2s-.895 2-2 2H10c-1.104 0-2-.895-2-2s.896-2 2-2zM10 24h16c1.105 0 2 .895 2 2s-.895 2-2 2H10c-1.104 0-2-.895-2-2s.896-2 2-2zM10 32h26c1.105 0 2 .895 2 2s-.895 2-2 2H10c-1.104 0-2-.895-2-2s.896-2 2-2z"/>
    <path fill="#E33D41" d="M64 16c0 8.836-7.164 16-16 16s-16-7.164-16-16S39.164 0 48 0s16 7.164 16 16z"/>
    <path fill="#fff" d="M48.646 22.26c-.795 0-1.44-.7-1.44-1.565v-6.573l-1.681 2.747-2.396-1.738 3.307-5.392h3.65v10.956c0 .865-.645 1.566-1.44 1.566z"/>
</svg>
