<svg xmlns="http://www.w3.org/2000/svg" width="80" height="80" fill="none" viewBox="0 0 80 80">
    <g clip-path="url(#prefix__clip0)">
        <path fill="#000" d="M26.188.067l-2.073.56c-1.146.315-1.83 1.526-1.521 2.692l2.778 10.586 6.242-1.704-2.801-10.586C28.504.448 27.335-.247 26.188.067z"/>
        <path fill="#5555D9" d="M71 64.233c-4.697-7.648-8.27-15.991-10.564-24.693l-2.514-9.577c-.088-.47-.176-.964-.308-1.435C54.063 15.094 40.3 7.198 27.09 11.236c-12.747 3.902-19.65 18.01-16.209 31.107l2.625 9.98c2.293 8.725 3.307 17.741 2.999 26.757L71 64.233z"/>
        <path fill="#000" d="M38.008 73.227l.573 2.153c.882 3.32 4.234 5.293 7.498 4.396 3.264-.897 5.205-4.306 4.323-7.626l-.574-2.153-11.82 3.23z"/>
        <path fill="#3AACD1" d="M37.612 59.59c.155.584.75.943 1.324.786l26.177-7.133.133-.067c-.287-.673-.574-1.323-.86-1.996l-26.002 7.087c-.573.157-.926.74-.772 1.324zM27.6 63.47c.574-.156.926-.762.772-1.345-.154-.583-.75-.942-1.323-.785l-11.203 3.05c.088.718.176 1.436.242 2.153.066 0 .11 0 .177-.022l11.335-3.05z"/>
        <path fill="#000" d="M49.805 70.02l-11.801 3.216.56 2.123 11.8-3.215-.56-2.123z"/>
        <path fill="#fff" d="M24.291 30.86c3.948-1.076 6.947 1.28 8.028 5.316 1.279 4.867-1.08 8.298-4.41 9.218-3.507.964-6.992-.987-8.16-5.405-1.103-4.194.573-8.052 4.52-9.128h.022zm.596 3.05c-1.588.427-1.809 2.513-1.191 4.89.617 2.467 1.918 3.992 3.484 3.566 1.522-.426 1.853-2.198 1.147-4.867-.617-2.377-1.742-4.06-3.418-3.588h-.022zm5.822 21.195l6.88-27.833 2.867-.785-6.858 27.81-2.89.808zm12.747-19.019c3.947-1.076 6.947 1.279 8.005 5.27 1.28 4.868-1.08 8.3-4.41 9.219-3.485.942-6.947-.965-8.116-5.383-1.103-4.194.573-8.051 4.477-9.106h.044zm.64 3.028c-1.588.426-1.81 2.512-1.192 4.845.618 2.467 1.92 3.992 3.463 3.588 1.522-.426 1.852-2.198 1.169-4.844-.618-2.378-1.742-4.037-3.375-3.611l-.066.022z"/>
    </g>
    <defs>
        <clipPath id="prefix__clip0">
            <path fill="#fff" d="M10 0H71V80H10z"/>
        </clipPath>
    </defs>
</svg>
