<svg xmlns="http://www.w3.org/2000/svg" width="300" height="259" fill="none" viewBox="0 0 300 259">
    <path fill="#363868" d="M164.369 180.085a51.578 51.578 0 0 0-2.486-4.621c-12.709-3.103-47.43-3.472-52.396-1.871-.359.115-.703.27-1.027.462a62.269 62.269 0 0 0-2.616 5.199c-7.148 16.023-9.96 40.663-10.627 65.75-.375 14.197 4.627 11.53 4.627 11.53h17.787c.275-2.721 8.181-48.82 21.106-49.426 3.029-.142 5.777 11.084 8.979 26.409 5.596 26.786 12.569 18.278 12.569 18.278H171.5s4.205 14.192 4.935-2.866c1.601-37.39-7.527-59.405-12.066-68.844z"/>
    <path fill="#231F20" d="M145.338 203.233c-3.221.428-6.605 3.879-6.605 3.879 3.028-.142 6.118 10.813 8.978 26.41.112-10.263.029-30.609-2.373-30.289zM106.115 230.578c2.62-33.236 19.069-47.608 19.069-47.608-3.718-7.579-11.822-7.221-19.325-3.706-7.148 16.023-9.96 40.663-10.627 65.75-.375 14.197.412-.834 1.022 12.162.956-.504 7.24 6.638 9.861-26.598z" opacity=".2" style="mix-blend-mode:multiply"/>
    <path fill="#D3D3D3" d="M150 259c82.843 0 150-2.177 150-4.863 0-2.686-67.157-4.863-150-4.863S0 251.451 0 254.137C0 256.823 67.157 259 150 259z"/>
    <path fill="#43457B" d="M120.147 79.282a18.55 18.55 0 0 0 3.557 5.574 15.775 15.775 0 0 1 1.513 1.861c.674.971 1.359 4.707 2.54 4.683.797-.017.238-2.966.634-3.655.396-.689.545-1.494.647-2.285.498-3.923.168-8.205 2.383-11.483a8.69 8.69 0 0 1 5.329-3.539c2.308-.5 4.592.817 6.79.275 4.179-1.033 8.229-5.362 9.36-9.398.864-3.08.373-6.556-1.503-9.148-1.876-2.59-5.156-4.163-8.334-3.79a4.077 4.077 0 0 0-2.049.733c-.443.394-.828.85-1.143 1.352a18.88 18.88 0 0 1-6.085 5.431c-2.965 1.658-6.313 2.492-9.456 3.79-1.814.746-3.661 1.738-4.631 3.441-1.229 2.153-1.376 6.585-1.063 9.576.084 2.27.596 4.503 1.511 6.582z"/>
    <path fill="#FFA397" d="M217.228 90.303l.031-6.648-3.963 5.606 2.815 2.34 1.117-1.297zM143.227 89.36l-2.284 10.197-12.609-.535-1.829-16.644 14.438.957 2.284 6.026z"/>
    <path fill="url(#a)" d="M209.827 85.737c-.114-.582-13.395 33.385-29.855 21.717-16.461-11.667-20.602-15.104-21.506-15.632-2.487-1.487-9.687-2.949-15.706.677a14.96 14.96 0 0 0-2.609 1.976c-.092.087-.187.17-.277.263-3.527 3.522-6.928 2.664-9.249 1.184-1.568-.843-2.846-1.987-3.717-2.672a2.328 2.328 0 0 0-.493-.019c-1.748.116-5.286.374-9.123.772-4.113.429-8.562 1.021-11.514 1.78-.587.145-1.166.323-1.734.532-5.575 2.132-39.647 33.778-39.647 50.372-.003 16.028 28.717 36.397 28.717 36.397l6.144-4.827s-16.705-21.042-11.632-31.158c3.024-6.033 11.637-11.985 14.559-14.107.882-.642 1.387-1.116 1.693-1.028a.33.33 0 0 1 .176.161c.46.753.225 4.311.865 14.244.349 5.398-.609 12.554-1.423 19.368-.284 2.416-.552 4.789-.732 7.025-.773 9.507 0 16.513 7.309 13.766 38.158-14.323 69.424 9.673 57.289-10.524-3.889-6.473-7.233-31.203-7.397-42.062v-.093c-.03-.658-.024-1.317.017-1.975.002-.835.099-1.667.287-2.48.019-.064.033-.14.054-.194 1.594-4.242 14.336 8.749 30.532 2.915a26.208 26.208 0 0 0 3.91-1.823c4.243-2.385 9.249-5.654 13.044-10.28 10.47-12.745 9.419-29.71 9.419-29.71s-6.716-1.057-7.401-4.565z"/>
    <path fill="#FFAE9B" d="M128.568 84.768s3.083 8.034 6.297 8.82c3.213.787 7.752-1.51 7.752-1.51l.617-2.717s-2.794 1.852-4.937 1.727c-2.144-.126-1.898-.083-2.135-.126l-.237-.045s-3.858-.33-7.357-6.149z" opacity=".5" style="mix-blend-mode:multiply"/>
    <path fill="#FFAE9B" d="M93.398 182.885s3.377 4.263 6.53 4.782c2.912.49 7.249 1.366 9.343 1.205 2.094-.161 2.739-4.424 1.691-6.032-1.048-1.609-8.355-2.58-8.355-2.58l-.071-3.2s-3.036 1.282-3.278 1.201l-5.86 4.624z"/>
    <path fill="#FFA397" d="M147.097 66.552c.323-3.103-1.264-3.688-3.337-3.53-1.93.15-4.283.948-5.928.97a40.201 40.201 0 0 0-5.087.494c-2.922.412-3.591 3.195-3.679 4.989v.094c-.061 1.72.349 5.685-.052 7.087-.401 1.402-2.846-4.46-5.386-4.534a3.336 3.336 0 0 0-1.66.275 3.08 3.08 0 0 0-1.714 2.89c.08 1.625 1.15 3.043 2.371 4.107 1.222 1.063 2.666 1.895 3.859 2.994 2.386 2.214 3.721 5.478 6.403 7.311 3.021 2.059 7.309 1.76 10.311-.326 3.003-2.087 4.743-5.706 5-9.35.36-4.601-1.575-8.919-1.101-13.471z"/>
    <path fill="#FFAE9B" d="M136.447 66.154a25.116 25.116 0 0 0 7.313-3.138c-1.93.149-4.283.947-5.928.968a40.165 40.165 0 0 0-5.087.495c-2.922.412-3.591 3.195-3.679 4.989v.094c.913-1.546 3.641-2.446 7.381-3.408z" opacity=".5" style="mix-blend-mode:multiply"/>
    <g fill="#231F20" opacity=".1" style="mix-blend-mode:multiply">
        <path d="M139.883 94.738c-3.527 3.522-6.927 2.664-9.249 1.184-1.568-.843-2.846-1.987-3.716-2.672a2.333 2.333 0 0 0-.494-.019c-1.747.116-5.286.375-9.123.772-4.112.43-8.561 1.021-11.514 1.78-.106 1.759 5.865.222 10.241-.02 4.645-.258 8.691 5.242 16.693 5.071 7.589-.163 9.842-7.598 10.048-8.347a14.998 14.998 0 0 0-2.609 1.976c-.092.097-.187.18-.277.275zM104.917 146.372c.349 5.397-.609 12.553-1.423 19.367 1.252-.388 2.652-.997 3.394-1.895 1.548-1.895 3.185-12.202 3.27-16.243.086-4.041.603-23.29.603-23.29l-6.717 7.816c.47.758.233 4.316.873 14.245zM183.223 130.502c-10.155-1.03-21.512-12.117-21.512-12.117l-1.44 11.023c.019-.064.033-.14.055-.194 1.593-4.242 14.336 8.749 30.531 2.916a26.078 26.078 0 0 0 3.911-1.824c4.242-2.385 9.301-5.706 13.043-10.28-2.552 1.935-15.472 11.393-24.588 10.476z"/>
    </g>
    <path fill="#2C325E" d="M275.566 27.023C269.829 9.12 256.859-2.735 246.595.545c-7.589 2.423-11.556 12.428-10.809 24.707-1.079 3-3.41 9.029-5.87 12.423-3.367 4.647-22.264 16.397-22.264 16.397-5.359 3.44-8.189 7.15-7.012 11.158 1.176 4.008 7.43 7.513 7.43 7.513l1.273 10.01-2.846 6.25.925 1.473c.502.172 1.018.3 1.542.384l5.089-6.537V68.404s18.583-13.38 22.451-15.073c3.868-1.694 8.301-.931 8.301-.931s2.134 3.098 2.846 3.941c6.052 7.343 13.396 11.061 19.717 9.04 10.266-3.28 13.935-20.454 8.198-38.358z"/>
    <path fill="#222544" d="M236.409 53.146c-3.868 1.696-24.201 15.2-23.113 15.2l.437 16.019-4.762 6.488c.991.161 2.274.201 3.263-.355 1.876-1.057 4.98-5.571 4.98-5.571l.759-14.922s10.456-6.603 17.158-10.961c3.527-2.293 8.557-2.77 12.531-2.705-.711-.843-2.845-3.942-2.845-3.942s-4.542-.95-8.408.749z"/>
    <path fill="#363868" d="M245.744 36.192c-4.506-14.083-2.846-27.527 3.536-32.274-.5.068-.992.178-1.473.33-8.5 2.716-11.265 17.782-6.18 33.652 5.084 15.869 16.095 26.527 24.595 23.813a8.992 8.992 0 0 0 2.644-1.379c-8.26 1.154-18.327-9.178-23.122-24.142z"/>
    <path fill="#43457B" d="M272.4 28.06c-4.795-14.966-14.863-25.295-23.123-24.144-6.372 4.737-8.049 18.19-3.536 32.273 4.796 14.967 14.863 25.296 23.123 24.145 6.375-4.746 8.049-18.178 3.536-32.273z"/>
    <path fill="#808285" d="M240.899 35.439c5.39-.299 6.166-1.492 9.327-3.432l3.939 12.117c-2.988 1.059-5.388 2.814-7.473 4.943 0 0-4.75-7.385-5.793-13.628z"/>
    <path fill="url(#b)" d="M250.074 38.783c-.996-3.11-.801-5.995.392-6.77a1.245 1.245 0 0 0-.342.053c-1.456.473-1.764 3.553-.69 6.918 1.074 3.366 3.128 5.697 4.582 5.232.106-.035.206-.084.299-.147-1.421.045-3.247-2.186-4.241-5.286z"/>
    <path fill="#000" d="M250.074 38.783c-.996-3.11-.801-5.995.392-6.77a1.245 1.245 0 0 0-.342.053c-1.456.473-1.764 3.553-.69 6.918 1.074 3.366 3.128 5.697 4.582 5.232.106-.035.206-.084.299-.147-1.421.045-3.247-2.186-4.241-5.286z" opacity=".2" style="mix-blend-mode:multiply"/>
    <path fill="url(#c)" d="M254.697 37.298c-.994-3.1-2.82-5.33-4.241-5.284-1.186.777-1.387 3.66-.391 6.77.996 3.109 2.82 5.328 4.24 5.283 1.203-.774 1.397-3.66.392-6.769z"/>
    <path fill="url(#d)" d="M254.697 37.298c-.994-3.1-2.82-5.33-4.241-5.284-1.186.777-1.387 3.66-.391 6.77.996 3.109 2.82 5.328 4.24 5.283 1.203-.774 1.397-3.66.392-6.769z"/>
    <path fill="#FFA397" d="M217.7 75.552s1.065-.156 1.336 1.184c.27 1.341.021 5.706-.56 6.734-.581 1.028-2.329 1.5-2.353-.424-.019-1.6.133-4.263.185-5.102a.458.458 0 0 1 .261-.383l.987-.474.144-1.535zM209.343 82.755l-.548-4.31s-1.226-1.185-1.741-.19c-.514.995.29 1.748.37 2.572.081.824.337 5.41.337 5.41l1.582-3.482z"/>
    <path fill="#262350" d="M69.368 64.662L41.89 93.648l-3.119-9.704-6.967-1.869 26.9-13.077-24.01 8.807-2.146-1.417-3.616-2.385 3.846-.87 36.589-8.471z"/>
    <path fill="url(#e)" d="M255.477 96.646l21.702 13.719-21.702 14.604-21.705-14.604 21.705-13.719z"/>
    <path fill="url(#f)" d="M269.822 128.418h27.64v27.068h-27.64z" transform="rotate(180 269.822 128.418)"/>
    <path fill="url(#g)" d="M255.474 127.629l23.68-15.933v27.238a3.332 3.332 0 0 1-3.365 3.297H235.16a3.332 3.332 0 0 1-3.365-3.297v-27.238l23.679 15.933z"/>
    <path fill="#FEBF00" d="M138.579 238.628c0 1.049.773 2.051 2.167 2.972.518.341 1.06.644 1.62.91.259.125.53.247.813.367a33.017 33.017 0 0 0 4.34 1.447c2.11.551 4.248.99 6.403 1.317.529.083 1.072.161 1.62.237l.814.109c1.393.177 2.839.327 4.34.45a114.71 114.71 0 0 0 8.023.372h1.524c1.224 0 2.43-.018 3.617-.052a113.623 113.623 0 0 0 8.023-.514l.813-.083a85.235 85.235 0 0 0 4.34-.585 59.935 59.935 0 0 0 6.403-1.362 38.648 38.648 0 0 0 2.434-.76c1.835-.652 3.306-1.374 4.34-2.149 1.105-.831 1.714-1.722 1.714-2.65v7.084c-.019.912-.623 1.786-1.707 2.606-1.032.777-2.502 1.501-4.34 2.153a39.545 39.545 0 0 1-2.433.762 59.76 59.76 0 0 1-6.404 1.362c-1.38.223-2.826.418-4.339.585l-.814.086a114.026 114.026 0 0 1-8.023.514c-1.189.034-2.396.052-3.621.052h-1.525c-.544 0-1.084-.011-1.62-.031a115.227 115.227 0 0 1-6.403-.341 98.944 98.944 0 0 1-4.34-.45l-.813-.107c-.548-.076-1.091-.151-1.62-.237a62.286 62.286 0 0 1-6.403-1.319 32.918 32.918 0 0 1-4.34-1.447 14.708 14.708 0 0 1-.814-.367 13.507 13.507 0 0 1-1.619-.907c-1.376-.91-2.147-1.895-2.168-2.933l-.002-7.091z"/>
    <path fill="#000" d="M138.579 238.628c0 1.049.773 2.051 2.167 2.972.518.341 1.06.644 1.62.91.259.125.53.247.813.367a33.017 33.017 0 0 0 4.34 1.447c2.11.551 4.248.99 6.403 1.317.529.083 1.072.161 1.62.237l.814.109c1.393.177 2.839.327 4.34.45a114.71 114.71 0 0 0 8.023.372h1.524c1.224 0 2.43-.018 3.617-.052a113.623 113.623 0 0 0 8.023-.514l.813-.083a85.235 85.235 0 0 0 4.34-.585 59.935 59.935 0 0 0 6.403-1.362 38.648 38.648 0 0 0 2.434-.76c1.835-.652 3.306-1.374 4.34-2.149 1.105-.831 1.714-1.722 1.714-2.65v7.084c-.019.912-.623 1.786-1.707 2.606-1.032.777-2.502 1.501-4.34 2.153a39.545 39.545 0 0 1-2.433.762 59.76 59.76 0 0 1-6.404 1.362c-1.38.223-2.826.418-4.339.585l-.814.086a114.026 114.026 0 0 1-8.023.514c-1.189.034-2.396.052-3.621.052h-1.525c-.544 0-1.084-.011-1.62-.031a115.227 115.227 0 0 1-6.403-.341 98.944 98.944 0 0 1-4.34-.45l-.813-.107c-.548-.076-1.091-.151-1.62-.237a62.286 62.286 0 0 1-6.403-1.319 32.918 32.918 0 0 1-4.34-1.447 14.708 14.708 0 0 1-.814-.367 13.507 13.507 0 0 1-1.619-.907c-1.376-.91-2.147-1.895-2.168-2.933l-.002-7.091z" opacity=".3" style="mix-blend-mode:multiply"/>
    <path fill="#FEBF00" d="M170.246 245.925c17.49 0 31.669-3.659 31.669-8.174 0-4.514-14.179-8.173-31.669-8.173-17.491 0-31.67 3.659-31.67 8.173 0 4.515 14.179 8.174 31.67 8.174z"/>
    <path fill="#FEBF00" d="M170.248 232.712c-14.758 0-26.853 2.413-28.01 5.495a1.377 1.377 0 0 1-.1-.474c0-3.316 12.586-5.988 28.11-5.981 15.524.008 28.105 2.698 28.103 6.009a1.377 1.377 0 0 1-.1.474c-1.157-3.086-13.247-5.516-28.003-5.523z"/>
    <path fill="#000" d="M170.248 232.712c-14.758 0-26.853 2.413-28.01 5.495a1.377 1.377 0 0 1-.1-.474c0-3.316 12.586-5.988 28.11-5.981 15.524.008 28.105 2.698 28.103 6.009a1.377 1.377 0 0 1-.1.474c-1.157-3.086-13.247-5.516-28.003-5.523z" opacity=".1" style="mix-blend-mode:multiply"/>
    <path fill="#FCD721" d="M170.241 243.718c-14.756 0-26.846-2.439-28.003-5.523 1.157-3.079 13.252-5.505 28.01-5.495 14.758.009 26.846 2.439 28.003 5.523-1.157 3.093-13.252 5.514-28.01 5.495z"/>
    <path fill="#FEBF00" d="M201.915 237.782v7.085c-.019.911-.623 1.785-1.707 2.605v-7.037c1.098-.831 1.707-1.724 1.707-2.653zM169.52 252.977h-.813v-7.042h.813v7.042zM182.689 252.33l-.813.085v-7.039l.813-.083v7.037zM195.861 249.623c-.264.093-.535.185-.814.275v-7.04c.278-.09.551-.182.814-.275v7.04zM138.579 237.751c0 1.05.773 2.052 2.167 2.973v7.042c-1.375-.91-2.146-1.895-2.167-2.933v-7.082zM143.179 249.04a15.013 15.013 0 0 1-.813-.367v-7.039c.259.125.53.247.813.367v7.039zM155.535 244.998l.814.109c1.392.176 2.839.326 4.339.45 2.052.168 4.191.284 6.404.341v7.041a115.316 115.316 0 0 1-6.404-.341 98.895 98.895 0 0 1-4.339-.45l-.814-.106a76.658 76.658 0 0 1-1.62-.237 62.61 62.61 0 0 1-6.403-1.319v-7.042c2.11.55 4.247.99 6.403 1.317.529.085 1.072.163 1.62.237z"/>
    <path fill="#FFDF00" d="M193.428 243.344c.564-.158 1.104-.32 1.619-.486v7.04c-.517.168-1.055.329-1.619.488a60.252 60.252 0 0 1-6.404 1.362c-1.38.222-2.826.417-4.339.585v-7.04a85.344 85.344 0 0 0 4.339-.585 60.012 60.012 0 0 0 6.404-1.364zM200.201 247.47c-1.032.776-2.502 1.501-4.34 2.153v-7.04c1.835-.651 3.306-1.373 4.34-2.148v7.035zM173.86 245.888a114.57 114.57 0 0 0 8.023-.514v7.041c-.533.054-1.073.104-1.62.152-2.049.175-4.188.298-6.403.362-1.189.035-2.396.052-3.621.052h-.712v-7.041h.712c1.227.001 2.434-.016 3.621-.052zM168.707 252.972c-.544 0-1.084-.01-1.62-.031v-7.044c.536.014 1.076.024 1.62.031v7.044zM147.519 250.487a33.017 33.017 0 0 1-4.34-1.447v-7.041a33.165 33.165 0 0 0 4.34 1.447v7.041zM142.366 241.634v7.039a13.598 13.598 0 0 1-1.62-.907v-7.042c.518.34 1.06.644 1.62.91z"/>
    <path fill="#FEBF00" d="M138.579 226.259c0 1.05.773 2.051 2.167 2.973.518.34 1.06.644 1.62.909.259.125.53.247.813.367a33.17 33.17 0 0 0 4.34 1.448c2.11.55 4.248.99 6.403 1.317a92.42 92.42 0 0 0 1.62.236l.814.109c1.393.177 2.839.327 4.34.45a112.824 112.824 0 0 0 8.023.372h1.524c1.224 0 2.43-.017 3.617-.052a114.59 114.59 0 0 0 6.403-.362c.547-.048 1.087-.098 1.62-.152l.813-.083a85.235 85.235 0 0 0 4.34-.585 59.935 59.935 0 0 0 6.403-1.362 43.306 43.306 0 0 0 1.62-.485c.278-.09.55-.183.814-.275 1.835-.651 3.306-1.374 4.34-2.148 1.105-.832 1.714-1.722 1.714-2.651v7.085c-.019.912-.623 1.785-1.707 2.605-1.032.777-2.502 1.502-4.34 2.153-.264.093-.535.185-.814.275-.517.168-1.055.329-1.619.488a60.005 60.005 0 0 1-6.404 1.362c-1.38.222-2.826.417-4.339.585l-.814.085a113.088 113.088 0 0 1-8.023.514c-1.189.035-2.396.052-3.621.052h-1.525c-.544 0-1.084-.01-1.62-.031a115.227 115.227 0 0 1-6.403-.341 98.944 98.944 0 0 1-4.34-.45l-.813-.107a70.706 70.706 0 0 1-1.62-.236 62.29 62.29 0 0 1-6.403-1.32 32.918 32.918 0 0 1-4.34-1.447 14.708 14.708 0 0 1-.814-.367 13.507 13.507 0 0 1-1.619-.907c-1.376-.91-2.147-1.895-2.168-2.932l-.002-7.092z"/>
    <path fill="#000" d="M138.579 226.259c0 1.05.773 2.051 2.167 2.973.518.34 1.06.644 1.62.909.259.125.53.247.813.367a33.17 33.17 0 0 0 4.34 1.448c2.11.55 4.248.99 6.403 1.317a92.42 92.42 0 0 0 1.62.236l.814.109c1.393.177 2.839.327 4.34.45a112.824 112.824 0 0 0 8.023.372h1.524c1.224 0 2.43-.017 3.617-.052a114.59 114.59 0 0 0 6.403-.362c.547-.048 1.087-.098 1.62-.152l.813-.083a85.235 85.235 0 0 0 4.34-.585 59.935 59.935 0 0 0 6.403-1.362 43.306 43.306 0 0 0 1.62-.485c.278-.09.55-.183.814-.275 1.835-.651 3.306-1.374 4.34-2.148 1.105-.832 1.714-1.722 1.714-2.651v7.085c-.019.912-.623 1.785-1.707 2.605-1.032.777-2.502 1.502-4.34 2.153-.264.093-.535.185-.814.275-.517.168-1.055.329-1.619.488a60.005 60.005 0 0 1-6.404 1.362c-1.38.222-2.826.417-4.339.585l-.814.085a113.088 113.088 0 0 1-8.023.514c-1.189.035-2.396.052-3.621.052h-1.525c-.544 0-1.084-.01-1.62-.031a115.227 115.227 0 0 1-6.403-.341 98.944 98.944 0 0 1-4.34-.45l-.813-.107a70.706 70.706 0 0 1-1.62-.236 62.29 62.29 0 0 1-6.403-1.32 32.918 32.918 0 0 1-4.34-1.447 14.708 14.708 0 0 1-.814-.367 13.507 13.507 0 0 1-1.619-.907c-1.376-.91-2.147-1.895-2.168-2.932l-.002-7.092z" opacity=".3" style="mix-blend-mode:multiply"/>
    <path fill="#FEBF00" d="M170.246 233.558c17.49 0 31.669-3.66 31.669-8.174 0-4.514-14.179-8.174-31.669-8.174-17.491 0-31.67 3.66-31.67 8.174 0 4.514 14.179 8.174 31.67 8.174z"/>
    <path fill="#FEBF00" d="M170.248 220.343c-14.758 0-26.853 2.414-28.01 5.495a1.377 1.377 0 0 1-.1-.474c0-3.316 12.586-5.987 28.11-5.98 15.524.007 28.105 2.698 28.103 6.009a1.371 1.371 0 0 1-.1.473c-1.157-3.083-13.247-5.516-28.003-5.523z"/>
    <path fill="#000" d="M170.248 220.343c-14.758 0-26.853 2.414-28.01 5.495a1.377 1.377 0 0 1-.1-.474c0-3.316 12.586-5.987 28.11-5.98 15.524.007 28.105 2.698 28.103 6.009a1.371 1.371 0 0 1-.1.473c-1.157-3.083-13.247-5.516-28.003-5.523z" opacity=".1" style="mix-blend-mode:multiply"/>
    <path fill="#FCD721" d="M170.241 231.361c-14.756 0-26.846-2.439-28.003-5.523 1.157-3.079 13.252-5.505 28.01-5.495 14.758.009 26.846 2.439 28.003 5.523-1.157 3.082-13.252 5.502-28.01 5.495z"/>
    <path fill="#FEBF00" d="M201.915 225.417v7.084c-.019.912-.623 1.786-1.707 2.605v-7.037c1.098-.833 1.707-1.724 1.707-2.652zM169.52 240.608h-.813v-7.042h.813v7.042zM182.689 239.964l-.813.085v-7.042l.813-.083v7.04zM195.861 237.254c-.264.093-.535.185-.814.275v-7.039c.278-.09.551-.183.814-.275v7.039zM138.579 225.383c0 1.05.773 2.051 2.167 2.973v7.041c-1.375-.909-2.146-1.894-2.167-2.932v-7.082zM143.179 236.672a15.013 15.013 0 0 1-.813-.367v-7.034c.259.124.53.247.813.367v7.034zM155.535 232.631l.814.109a97.79 97.79 0 0 0 4.339.45c2.052.168 4.191.284 6.404.341v7.042a115.316 115.316 0 0 1-6.404-.341 102.06 102.06 0 0 1-4.339-.45l-.814-.107a76.658 76.658 0 0 1-1.62-.237 62.341 62.341 0 0 1-6.403-1.319v-7.042c2.11.551 4.247.99 6.403 1.317.529.083 1.072.161 1.62.237z"/>
    <path fill="#FFDF00" d="M193.428 230.976c.564-.158 1.104-.32 1.619-.486v7.04a41.21 41.21 0 0 1-1.619.487 59.76 59.76 0 0 1-6.404 1.362c-1.38.223-2.826.418-4.339.585v-7.039a85.344 85.344 0 0 0 4.339-.585 60.012 60.012 0 0 0 6.404-1.364zM200.201 235.102c-1.032.776-2.502 1.501-4.34 2.153v-7.037c1.835-.652 3.306-1.374 4.34-2.149v7.033zM173.86 233.519a113.623 113.623 0 0 0 8.023-.514v7.042a114.026 114.026 0 0 1-8.023.514c-1.189.034-2.396.052-3.621.052h-.712v-7.042h.712c1.227.002 2.434-.016 3.621-.052zM168.707 240.604c-.544 0-1.084-.01-1.62-.031v-7.039c.536.014 1.076.024 1.62.03v7.04zM147.519 238.119a33.165 33.165 0 0 1-4.34-1.447v-7.042a33.165 33.165 0 0 0 4.34 1.447v7.042zM142.366 229.27v7.042a13.598 13.598 0 0 1-1.62-.907v-7.042c.519.34 1.06.643 1.62.907z"/>
    <path fill="#FEBF00" d="M171.14 227.427c15.666 0 28.366-12.556 28.366-28.046 0-15.489-12.7-28.046-28.366-28.046s-28.366 12.557-28.366 28.046c0 15.49 12.7 28.046 28.366 28.046z"/>
    <path fill="#FEBF00" d="M171.14 222.937c13.158 0 23.824-10.546 23.824-23.555s-10.666-23.555-23.824-23.555c-13.158 0-23.825 10.546-23.825 23.555s10.667 23.555 23.825 23.555z"/>
    <path fill="#000" d="M171.14 222.937c13.158 0 23.824-10.546 23.824-23.555s-10.666-23.555-23.824-23.555c-13.158 0-23.825 10.546-23.825 23.555s10.667 23.555 23.825 23.555z" opacity=".1" style="mix-blend-mode:multiply"/>
    <path fill="#FCD721" d="M171.14 221.613c12.418 0 22.484-9.953 22.484-22.231 0-12.278-10.066-22.231-22.484-22.231-12.418 0-22.485 9.953-22.485 22.231 0 12.278 10.067 22.231 22.485 22.231z"/>
    <path fill="#FEA600" d="M181.119 203.027a7.022 7.022 0 0 1-.334 2.906 6.398 6.398 0 0 1-1.423 2.324 7.94 7.94 0 0 1-2.371 1.677c-1.01.466-2.079.789-3.178.959l-.071 3.979a.69.69 0 0 1-.062.265.473.473 0 0 1-.237.204 2.09 2.09 0 0 1-.475.159 5.285 5.285 0 0 1-.763.106c-.315.03-.632.038-.949.022a1.988 1.988 0 0 1-.576-.112.51.51 0 0 1-.289-.237.66.66 0 0 1-.057-.367l.087-3.778a14.38 14.38 0 0 1-1.52-.165c-.44-.072-.876-.167-1.306-.287a8.062 8.062 0 0 1-1.025-.355 2.686 2.686 0 0 1-.662-.384 1.25 1.25 0 0 1-.355-.604 6.065 6.065 0 0 1-.19-1.22c-.033-.419-.05-.762-.045-1.037-.005-.215.021-.43.078-.637a.545.545 0 0 1 .524-.431c.256.014.504.089.724.22.401.193.811.364 1.23.514.585.207 1.185.366 1.796.474a9.397 9.397 0 0 0 2.433.083c1.442-.116 2.492-.469 3.152-1.062a2.555 2.555 0 0 0 .882-2.216 2.294 2.294 0 0 0-.569-1.422 4.17 4.17 0 0 0-1.29-.909 10.925 10.925 0 0 0-1.772-.64 77.22 77.22 0 0 1-2.009-.573 16.98 16.98 0 0 1-2.023-.748 7.364 7.364 0 0 1-1.811-1.137 5.631 5.631 0 0 1-1.357-1.739 6.757 6.757 0 0 1-.662-2.574 6.636 6.636 0 0 1 .261-2.556 5.805 5.805 0 0 1 1.172-2.091 6.673 6.673 0 0 1 2.025-1.547c.89-.446 1.839-.765 2.817-.947l.072-3.74a.57.57 0 0 1 .064-.256.547.547 0 0 1 .225-.204c.145-.076.301-.13.462-.159.256-.048.514-.081.774-.099.315-.029.632-.036.948-.021.203.006.404.042.595.109a.469.469 0 0 1 .28.236c.048.117.077.24.086.365l-.091 3.518c.35.022.719.06 1.108.116a9.74 9.74 0 0 1 1.096.217c.316.083.628.182.934.297.212.07.412.173.593.305.102.085.192.184.266.294.071.117.125.244.161.376.048.181.085.364.109.55.028.215.054.463.078.746.03.382.046.698.048.947.007.192-.012.384-.057.571a.563.563 0 0 1-.145.273.376.376 0 0 1-.216.082 1.712 1.712 0 0 1-.711-.184 12.729 12.729 0 0 0-1.186-.427 13.631 13.631 0 0 0-1.594-.393 7.316 7.316 0 0 0-1.949-.085 6.41 6.41 0 0 0-1.629.315 3.105 3.105 0 0 0-1.068.606c-.255.23-.449.52-.564.844a2.51 2.51 0 0 0-.121 1.032c.025.526.229 1.027.579 1.421.37.391.816.703 1.311.917.582.26 1.184.473 1.8.637a99.67 99.67 0 0 1 2.037.58c.697.207 1.381.453 2.049.737a7.218 7.218 0 0 1 1.829 1.116 5.72 5.72 0 0 1 1.366 1.71c.392.79.618 1.653.661 2.534z"/>
    <path fill="#FEBF00" d="M210.429 238.628c0 1.049.773 2.051 2.168 2.972.518.341 1.059.644 1.62.91.259.125.53.247.813.367a32.967 32.967 0 0 0 4.34 1.447c2.11.551 4.247.99 6.403 1.317.529.083 1.072.161 1.62.237l.813.109c1.393.177 2.84.327 4.34.45a114.813 114.813 0 0 0 8.023.372h1.525c1.224 0 2.429-.018 3.617-.052a113.623 113.623 0 0 0 8.023-.514l.813-.083a85.54 85.54 0 0 0 4.34-.585 59.987 59.987 0 0 0 6.403-1.362 38.534 38.534 0 0 0 2.433-.76c1.836-.652 3.306-1.374 4.34-2.149 1.105-.831 1.715-1.722 1.715-2.65v7.084c-.019.912-.624 1.786-1.708 2.606-1.031.777-2.502 1.501-4.34 2.153a39.133 39.133 0 0 1-2.433.762 59.742 59.742 0 0 1-6.403 1.362c-1.38.223-2.827.418-4.34.585l-.813.086a114.026 114.026 0 0 1-8.023.514c-1.189.034-2.396.052-3.622.052h-1.525c-.543 0-1.083-.011-1.619-.031a115.227 115.227 0 0 1-6.403-.341 98.784 98.784 0 0 1-4.34-.45l-.814-.107c-.548-.076-1.091-.151-1.62-.237a62.341 62.341 0 0 1-6.403-1.319 33.017 33.017 0 0 1-4.34-1.447 15.013 15.013 0 0 1-.813-.367 13.598 13.598 0 0 1-1.62-.907c-1.375-.91-2.146-1.895-2.167-2.933l-.003-7.091z"/>
    <path fill="#000" d="M210.429 238.628c0 1.049.773 2.051 2.168 2.972.518.341 1.059.644 1.62.91.259.125.53.247.813.367a32.967 32.967 0 0 0 4.34 1.447c2.11.551 4.247.99 6.403 1.317.529.083 1.072.161 1.62.237l.813.109c1.393.177 2.84.327 4.34.45a114.813 114.813 0 0 0 8.023.372h1.525c1.224 0 2.429-.018 3.617-.052a113.623 113.623 0 0 0 8.023-.514l.813-.083a85.54 85.54 0 0 0 4.34-.585 59.987 59.987 0 0 0 6.403-1.362 38.534 38.534 0 0 0 2.433-.76c1.836-.652 3.306-1.374 4.34-2.149 1.105-.831 1.715-1.722 1.715-2.65v7.084c-.019.912-.624 1.786-1.708 2.606-1.031.777-2.502 1.501-4.34 2.153a39.133 39.133 0 0 1-2.433.762 59.742 59.742 0 0 1-6.403 1.362c-1.38.223-2.827.418-4.34.585l-.813.086a114.026 114.026 0 0 1-8.023.514c-1.189.034-2.396.052-3.622.052h-1.525c-.543 0-1.083-.011-1.619-.031a115.227 115.227 0 0 1-6.403-.341 98.784 98.784 0 0 1-4.34-.45l-.814-.107c-.548-.076-1.091-.151-1.62-.237a62.341 62.341 0 0 1-6.403-1.319 33.017 33.017 0 0 1-4.34-1.447 15.013 15.013 0 0 1-.813-.367 13.598 13.598 0 0 1-1.62-.907c-1.375-.91-2.146-1.895-2.167-2.933l-.003-7.091z" opacity=".3" style="mix-blend-mode:multiply"/>
    <path fill="#FEBF00" d="M242.096 245.925c17.491 0 31.67-3.659 31.67-8.174 0-4.514-14.179-8.173-31.67-8.173-17.49 0-31.669 3.659-31.669 8.173 0 4.515 14.179 8.174 31.669 8.174z"/>
    <path fill="#FEBF00" d="M242.099 232.712c-14.758 0-26.853 2.413-28.01 5.495a1.377 1.377 0 0 1-.1-.474c0-3.316 12.586-5.988 28.11-5.981 15.524.008 28.105 2.698 28.103 6.009a1.377 1.377 0 0 1-.1.474c-1.155-3.086-13.245-5.516-28.003-5.523z"/>
    <path fill="#000" d="M242.099 232.712c-14.758 0-26.853 2.413-28.01 5.495a1.377 1.377 0 0 1-.1-.474c0-3.316 12.586-5.988 28.11-5.981 15.524.008 28.105 2.698 28.103 6.009a1.377 1.377 0 0 1-.1.474c-1.155-3.086-13.245-5.516-28.003-5.523z" opacity=".1" style="mix-blend-mode:multiply"/>
    <path fill="#FCD721" d="M242.094 243.718c-14.756 0-26.846-2.439-28.003-5.523 1.157-3.079 13.252-5.505 28.01-5.495 14.758.009 26.846 2.439 28.004 5.523-1.158 3.093-13.253 5.514-28.011 5.495z"/>
    <path fill="#FEBF00" d="M273.766 237.782v7.085c-.019.911-.624 1.785-1.708 2.605v-7.037c1.098-.831 1.708-1.724 1.708-2.653zM241.373 252.977h-.813v-7.042h.813v7.042zM254.542 252.33l-.813.085v-7.039l.813-.083v7.037zM267.711 249.623c-.264.093-.535.185-.813.275v-7.04c.277-.09.55-.182.813-.275v7.04zM210.429 237.751c0 1.05.773 2.052 2.168 2.973v7.042c-1.376-.91-2.146-1.895-2.168-2.933v-7.082zM215.032 249.04a15.013 15.013 0 0 1-.813-.367v-7.039c.259.125.53.247.813.367v7.039zM227.388 244.998l.814.109c1.392.176 2.839.326 4.34.45 2.051.168 4.19.284 6.403.341v7.041a115.227 115.227 0 0 1-6.403-.341 98.784 98.784 0 0 1-4.34-.45l-.814-.106a76.658 76.658 0 0 1-1.62-.237 62.61 62.61 0 0 1-6.403-1.319v-7.042c2.11.55 4.247.99 6.403 1.317.529.085 1.07.163 1.62.237z"/>
    <path fill="#FFDF00" d="M265.278 243.344a43.27 43.27 0 0 0 1.62-.486v7.04c-.517.168-1.055.329-1.62.488a60.234 60.234 0 0 1-6.403 1.362c-1.38.222-2.827.417-4.34.585v-7.04a85.387 85.387 0 0 0 4.34-.585 59.995 59.995 0 0 0 6.403-1.364zM272.051 247.47c-1.031.776-2.502 1.501-4.34 2.153v-7.04c1.836-.651 3.306-1.373 4.34-2.148v7.035zM245.711 245.888a114.57 114.57 0 0 0 8.023-.514v7.041c-.533.054-1.073.104-1.62.152-2.049.175-4.188.298-6.403.362-1.189.035-2.396.052-3.622.052h-.711v-7.041h.711c1.227.001 2.434-.016 3.622-.052zM240.557 252.972c-.544 0-1.084-.01-1.619-.031v-7.044c.535.014 1.075.024 1.619.031v7.044zM219.361 250.487a32.918 32.918 0 0 1-4.34-1.447v-7.041a33.066 33.066 0 0 0 4.34 1.447v7.041zM214.217 241.634v7.039a13.443 13.443 0 0 1-1.62-.907v-7.042c.518.34 1.059.644 1.62.91z"/>
    <path fill="#FEBF00" d="M221.36 226.259c0 1.05.773 2.051 2.167 2.973.518.34 1.06.644 1.62.909.259.125.53.247.813.367a33.17 33.17 0 0 0 4.34 1.448c2.11.55 4.248.99 6.403 1.317a92.42 92.42 0 0 0 1.62.236l.814.109c1.393.177 2.839.327 4.34.45a112.824 112.824 0 0 0 8.023.372h1.524c1.224 0 2.43-.017 3.617-.052a114.59 114.59 0 0 0 6.403-.362c.547-.048 1.087-.098 1.62-.152l.813-.083a85.235 85.235 0 0 0 4.34-.585 59.935 59.935 0 0 0 6.403-1.362 43.306 43.306 0 0 0 1.62-.485c.278-.09.55-.183.814-.275 1.835-.651 3.306-1.374 4.34-2.148 1.105-.832 1.714-1.722 1.714-2.651v7.085c-.019.912-.623 1.785-1.707 2.605-1.032.777-2.502 1.502-4.34 2.153-.264.093-.535.185-.814.275-.517.168-1.055.329-1.619.488a60.005 60.005 0 0 1-6.404 1.362c-1.38.222-2.826.417-4.339.585l-.814.085a113.088 113.088 0 0 1-8.023.514c-1.189.035-2.396.052-3.621.052h-1.525c-.544 0-1.084-.01-1.62-.031a115.227 115.227 0 0 1-6.403-.341 98.944 98.944 0 0 1-4.34-.45l-.813-.107a70.706 70.706 0 0 1-1.62-.236 62.345 62.345 0 0 1-6.403-1.32 32.918 32.918 0 0 1-4.34-1.447 14.708 14.708 0 0 1-.814-.367 13.507 13.507 0 0 1-1.619-.907c-1.376-.91-2.147-1.895-2.168-2.932l-.002-7.092z"/>
    <path fill="#000" d="M221.36 226.259c0 1.05.773 2.051 2.167 2.973.518.34 1.06.644 1.62.909.259.125.53.247.813.367a33.17 33.17 0 0 0 4.34 1.448c2.11.55 4.248.99 6.403 1.317a92.42 92.42 0 0 0 1.62.236l.814.109c1.393.177 2.839.327 4.34.45a112.824 112.824 0 0 0 8.023.372h1.524c1.224 0 2.43-.017 3.617-.052a114.59 114.59 0 0 0 6.403-.362c.547-.048 1.087-.098 1.62-.152l.813-.083a85.235 85.235 0 0 0 4.34-.585 59.935 59.935 0 0 0 6.403-1.362 43.306 43.306 0 0 0 1.62-.485c.278-.09.55-.183.814-.275 1.835-.651 3.306-1.374 4.34-2.148 1.105-.832 1.714-1.722 1.714-2.651v7.085c-.019.912-.623 1.785-1.707 2.605-1.032.777-2.502 1.502-4.34 2.153-.264.093-.535.185-.814.275-.517.168-1.055.329-1.619.488a60.005 60.005 0 0 1-6.404 1.362c-1.38.222-2.826.417-4.339.585l-.814.085a113.088 113.088 0 0 1-8.023.514c-1.189.035-2.396.052-3.621.052h-1.525c-.544 0-1.084-.01-1.62-.031a115.227 115.227 0 0 1-6.403-.341 98.944 98.944 0 0 1-4.34-.45l-.813-.107a70.706 70.706 0 0 1-1.62-.236 62.345 62.345 0 0 1-6.403-1.32 32.918 32.918 0 0 1-4.34-1.447 14.708 14.708 0 0 1-.814-.367 13.507 13.507 0 0 1-1.619-.907c-1.376-.91-2.147-1.895-2.168-2.932l-.002-7.092z" opacity=".3" style="mix-blend-mode:multiply"/>
    <path fill="#FEBF00" d="M253.027 233.558c17.49 0 31.669-3.66 31.669-8.174 0-4.514-14.179-8.174-31.669-8.174-17.491 0-31.67 3.66-31.67 8.174 0 4.514 14.179 8.174 31.67 8.174z"/>
    <path fill="#FEBF00" d="M253.036 220.343c-14.758 0-26.853 2.414-28.01 5.495a1.375 1.375 0 0 1-.099-.474c0-3.316 12.585-5.987 28.109-5.98 15.525.007 28.106 2.698 28.103 6.009a1.393 1.393 0 0 1-.099.473c-1.165-3.083-13.255-5.516-28.004-5.523z"/>
    <path fill="#000" d="M253.036 220.343c-14.758 0-26.853 2.414-28.01 5.495a1.375 1.375 0 0 1-.099-.474c0-3.316 12.585-5.987 28.109-5.98 15.525.007 28.106 2.698 28.103 6.009a1.393 1.393 0 0 1-.099.473c-1.165-3.083-13.255-5.516-28.004-5.523z" opacity=".1" style="mix-blend-mode:multiply"/>
    <path fill="#FCD721" d="M253.022 231.361c-14.756 0-26.846-2.439-28.003-5.523 1.157-3.079 13.252-5.505 28.01-5.495 14.758.009 26.846 2.439 28.003 5.523-1.157 3.082-13.252 5.502-28.01 5.495z"/>
    <path fill="#FEBF00" d="M284.696 225.417v7.084c-.019.912-.623 1.786-1.707 2.605v-7.037c1.098-.833 1.705-1.724 1.707-2.652zM252.301 240.608h-.813v-7.042h.813v7.042zM265.47 239.964l-.813.085v-7.042l.813-.083v7.04zM278.649 237.254c-.264.093-.535.185-.814.275v-7.039c.278-.09.551-.183.814-.275v7.039zM221.36 225.383c0 1.05.773 2.051 2.167 2.973v7.041c-1.375-.909-2.146-1.894-2.167-2.932v-7.082zM225.961 236.672a14.708 14.708 0 0 1-.814-.367v-7.034c.259.124.531.247.814.367v7.034zM238.316 232.631l.814.109a97.79 97.79 0 0 0 4.339.45c2.052.168 4.191.284 6.404.341v7.042a115.316 115.316 0 0 1-6.404-.341 102.06 102.06 0 0 1-4.339-.45l-.814-.107a76.658 76.658 0 0 1-1.62-.237 62.341 62.341 0 0 1-6.403-1.319v-7.042c2.11.551 4.247.99 6.403 1.317.529.083 1.072.161 1.62.237z"/>
    <path fill="#FFDF00" d="M276.206 230.976a43.27 43.27 0 0 0 1.62-.486v7.04a40.76 40.76 0 0 1-1.62.487 59.742 59.742 0 0 1-6.403 1.362c-1.38.223-2.827.418-4.34.585v-7.039a85.387 85.387 0 0 0 4.34-.585 59.995 59.995 0 0 0 6.403-1.364zM282.98 235.102c-1.032.776-2.502 1.501-4.34 2.153v-7.037c1.835-.652 3.306-1.374 4.34-2.149v7.033zM256.639 233.519a113.623 113.623 0 0 0 8.023-.514v7.042a114.026 114.026 0 0 1-8.023.514c-1.189.034-2.396.052-3.622.052h-.711v-7.042h.711c1.227.002 2.434-.016 3.622-.052zM251.488 240.604c-.544 0-1.084-.01-1.62-.031v-7.039c.536.014 1.076.024 1.62.03v7.04zM230.298 238.119a33.066 33.066 0 0 1-4.34-1.447v-7.042a33.115 33.115 0 0 0 4.34 1.447v7.042zM225.147 229.27v7.042a13.598 13.598 0 0 1-1.62-.907v-7.042c.519.34 1.06.643 1.62.907z"/>
    <path fill="#FEBF00" d="M210.429 213.891c0 1.049.773 2.051 2.168 2.973.518.34 1.059.644 1.62.909.259.125.53.247.813.367a32.967 32.967 0 0 0 4.34 1.447c2.11.551 4.247.991 6.403 1.317.529.083 1.072.161 1.62.237l.813.109c1.393.177 2.84.327 4.34.45a114.813 114.813 0 0 0 8.023.372h1.525c1.224 0 2.429-.017 3.617-.052a114.59 114.59 0 0 0 6.403-.362c.547-.048 1.087-.098 1.62-.152l.813-.083a85.54 85.54 0 0 0 4.34-.585 59.987 59.987 0 0 0 6.403-1.362c.564-.158 1.104-.32 1.62-.485.277-.09.55-.183.813-.275 1.836-.652 3.306-1.374 4.34-2.148 1.105-.832 1.715-1.722 1.715-2.651v7.084c-.019.912-.624 1.786-1.708 2.606-1.031.777-2.502 1.501-4.34 2.153-.264.093-.535.185-.813.275-.517.168-1.055.329-1.62.488a59.983 59.983 0 0 1-6.403 1.361c-1.38.223-2.827.418-4.34.585l-.813.086a113.088 113.088 0 0 1-8.023.514c-1.189.034-2.396.052-3.622.052h-1.525c-.543 0-1.083-.01-1.619-.031a115.227 115.227 0 0 1-6.403-.341 98.784 98.784 0 0 1-4.34-.45l-.814-.107a65.532 65.532 0 0 1-1.62-.237 62.076 62.076 0 0 1-6.403-1.319 33.017 33.017 0 0 1-4.34-1.447 15.013 15.013 0 0 1-.813-.367 13.598 13.598 0 0 1-1.62-.907c-1.375-.91-2.146-1.895-2.167-2.932l-.003-7.092z"/>
    <path fill="#000" d="M210.429 213.891c0 1.049.773 2.051 2.168 2.973.518.34 1.059.644 1.62.909.259.125.53.247.813.367a32.967 32.967 0 0 0 4.34 1.447c2.11.551 4.247.991 6.403 1.317.529.083 1.072.161 1.62.237l.813.109c1.393.177 2.84.327 4.34.45a114.813 114.813 0 0 0 8.023.372h1.525c1.224 0 2.429-.017 3.617-.052a114.59 114.59 0 0 0 6.403-.362c.547-.048 1.087-.098 1.62-.152l.813-.083a85.54 85.54 0 0 0 4.34-.585 59.987 59.987 0 0 0 6.403-1.362c.564-.158 1.104-.32 1.62-.485.277-.09.55-.183.813-.275 1.836-.652 3.306-1.374 4.34-2.148 1.105-.832 1.715-1.722 1.715-2.651v7.084c-.019.912-.624 1.786-1.708 2.606-1.031.777-2.502 1.501-4.34 2.153-.264.093-.535.185-.813.275-.517.168-1.055.329-1.62.488a59.983 59.983 0 0 1-6.403 1.361c-1.38.223-2.827.418-4.34.585l-.813.086a113.088 113.088 0 0 1-8.023.514c-1.189.034-2.396.052-3.622.052h-1.525c-.543 0-1.083-.01-1.619-.031a115.227 115.227 0 0 1-6.403-.341 98.784 98.784 0 0 1-4.34-.45l-.814-.107a65.532 65.532 0 0 1-1.62-.237 62.076 62.076 0 0 1-6.403-1.319 33.017 33.017 0 0 1-4.34-1.447 15.013 15.013 0 0 1-.813-.367 13.598 13.598 0 0 1-1.62-.907c-1.375-.91-2.146-1.895-2.167-2.932l-.003-7.092z" opacity=".3" style="mix-blend-mode:multiply"/>
    <path fill="#FEBF00" d="M242.096 221.191c17.491 0 31.67-3.66 31.67-8.174 0-4.514-14.179-8.174-31.67-8.174-17.49 0-31.669 3.66-31.669 8.174 0 4.514 14.179 8.174 31.669 8.174z"/>
    <path fill="#FEBF00" d="M242.099 207.975c-14.758 0-26.853 2.413-28.01 5.495a1.377 1.377 0 0 1-.1-.474c0-3.316 12.586-5.987 28.11-5.98 15.524.007 28.105 2.697 28.103 6.009a1.371 1.371 0 0 1-.1.473c-1.155-3.084-13.245-5.516-28.003-5.523z"/>
    <path fill="#000" d="M242.099 207.975c-14.758 0-26.853 2.413-28.01 5.495a1.377 1.377 0 0 1-.1-.474c0-3.316 12.586-5.987 28.11-5.98 15.524.007 28.105 2.697 28.103 6.009a1.371 1.371 0 0 1-.1.473c-1.155-3.084-13.245-5.516-28.003-5.523z" opacity=".1" style="mix-blend-mode:multiply"/>
    <path fill="#FCD721" d="M242.094 218.993c-14.756 0-26.846-2.44-28.003-5.523 1.157-3.079 13.252-5.505 28.01-5.495 14.758.009 26.846 2.439 28.004 5.523-1.158 3.084-13.253 5.502-28.011 5.495z"/>
    <path fill="#FEBF00" d="M273.766 213.048v7.084c-.019.912-.624 1.786-1.708 2.606v-7.04c1.098-.831 1.708-1.722 1.708-2.65zM241.373 228.243h-.813v-7.049h.813v7.049zM254.542 227.595l-.813.086v-7.042l.813-.083v7.039zM267.711 224.886c-.264.093-.535.185-.813.275v-7.04c.277-.09.55-.182.813-.274v7.039zM210.429 213.015c0 1.049.773 2.051 2.168 2.973v7.041c-1.376-.909-2.146-1.895-2.168-2.932v-7.082zM215.032 224.297a14.277 14.277 0 0 1-.813-.368v-7.039c.259.125.53.247.813.367v7.04zM227.388 220.27l.814.109c1.392.176 2.839.326 4.34.45 2.051.168 4.19.284 6.403.341v7.041a115.227 115.227 0 0 1-6.403-.341 98.784 98.784 0 0 1-4.34-.45l-.814-.106a76.658 76.658 0 0 1-1.62-.237 62.345 62.345 0 0 1-6.403-1.32v-7.041c2.11.55 4.247.99 6.403 1.317.529.078 1.07.154 1.62.237z"/>
    <path fill="#FFDF00" d="M265.278 218.612a43.27 43.27 0 0 0 1.62-.486v7.04c-.517.168-1.055.329-1.62.488a59.987 59.987 0 0 1-6.403 1.362c-1.38.222-2.827.417-4.34.585v-7.047a85.387 85.387 0 0 0 4.34-.585 59.723 59.723 0 0 0 6.403-1.357zM272.051 222.736c-1.031.777-2.502 1.501-4.34 2.153v-7.04c1.836-.651 3.306-1.373 4.34-2.148v7.035zM245.711 221.153a114.59 114.59 0 0 0 6.403-.362c.547-.048 1.087-.098 1.62-.152v7.042a113.088 113.088 0 0 1-8.023.514c-1.189.035-2.396.052-3.622.052h-.711v-7.042h.711a84.844 84.844 0 0 0 3.622-.052zM240.557 228.235c-.544 0-1.084-.01-1.619-.031v-7.041c.535.014 1.075.024 1.619.03v7.042zM219.361 225.751a32.923 32.923 0 0 1-4.34-1.448v-7.041a33.066 33.066 0 0 0 4.34 1.447v7.042zM214.217 216.897v7.039a13.443 13.443 0 0 1-1.62-.907v-7.042c.518.34 1.059.644 1.62.91z"/>
    <path fill="#FEBF00" d="M210.429 201.525c0 1.049.773 2.051 2.168 2.972.518.341 1.059.644 1.62.91.259.125.53.247.813.367a32.967 32.967 0 0 0 4.34 1.447c2.11.551 4.247.99 6.403 1.317.529.083 1.072.161 1.62.237l.813.109c1.393.177 2.84.327 4.34.45a114.813 114.813 0 0 0 8.023.372h1.525c1.224 0 2.429-.018 3.617-.052a113.623 113.623 0 0 0 8.023-.514l.813-.083a85.54 85.54 0 0 0 4.34-.585 59.987 59.987 0 0 0 6.403-1.362 38.534 38.534 0 0 0 2.433-.76c1.836-.652 3.306-1.374 4.34-2.149 1.105-.831 1.715-1.722 1.715-2.65v7.084c-.019.912-.624 1.786-1.708 2.606-1.031.777-2.502 1.501-4.34 2.153a39.133 39.133 0 0 1-2.433.762 59.742 59.742 0 0 1-6.403 1.362c-1.38.223-2.827.418-4.34.585l-.813.086a113.109 113.109 0 0 1-8.023.513c-1.189.035-2.396.053-3.622.053h-1.525c-.543 0-1.083-.011-1.619-.031a115.227 115.227 0 0 1-6.403-.341 98.784 98.784 0 0 1-4.34-.45l-.814-.107c-.548-.076-1.091-.151-1.62-.237a62.341 62.341 0 0 1-6.403-1.319 33.017 33.017 0 0 1-4.34-1.447 15.013 15.013 0 0 1-.813-.367 13.598 13.598 0 0 1-1.62-.907c-1.375-.91-2.146-1.895-2.167-2.933l-.003-7.091z"/>
    <path fill="#000" d="M210.429 201.525c0 1.049.773 2.051 2.168 2.972.518.341 1.059.644 1.62.91.259.125.53.247.813.367a32.967 32.967 0 0 0 4.34 1.447c2.11.551 4.247.99 6.403 1.317.529.083 1.072.161 1.62.237l.813.109c1.393.177 2.84.327 4.34.45a114.813 114.813 0 0 0 8.023.372h1.525c1.224 0 2.429-.018 3.617-.052a113.623 113.623 0 0 0 8.023-.514l.813-.083a85.54 85.54 0 0 0 4.34-.585 59.987 59.987 0 0 0 6.403-1.362 38.534 38.534 0 0 0 2.433-.76c1.836-.652 3.306-1.374 4.34-2.149 1.105-.831 1.715-1.722 1.715-2.65v7.084c-.019.912-.624 1.786-1.708 2.606-1.031.777-2.502 1.501-4.34 2.153a39.133 39.133 0 0 1-2.433.762 59.742 59.742 0 0 1-6.403 1.362c-1.38.223-2.827.418-4.34.585l-.813.086a113.109 113.109 0 0 1-8.023.513c-1.189.035-2.396.053-3.622.053h-1.525c-.543 0-1.083-.011-1.619-.031a115.227 115.227 0 0 1-6.403-.341 98.784 98.784 0 0 1-4.34-.45l-.814-.107c-.548-.076-1.091-.151-1.62-.237a62.341 62.341 0 0 1-6.403-1.319 33.017 33.017 0 0 1-4.34-1.447 15.013 15.013 0 0 1-.813-.367 13.598 13.598 0 0 1-1.62-.907c-1.375-.91-2.146-1.895-2.167-2.933l-.003-7.091z" opacity=".3" style="mix-blend-mode:multiply"/>
    <path fill="#FEBF00" d="M242.096 208.823c17.491 0 31.67-3.66 31.67-8.174 0-4.514-14.179-8.174-31.67-8.174-17.49 0-31.669 3.66-31.669 8.174 0 4.514 14.179 8.174 31.669 8.174z"/>
    <path fill="#FEBF00" d="M242.099 195.606c-14.758 0-26.853 2.414-28.01 5.495a1.376 1.376 0 0 1-.1-.473c0-3.316 12.586-5.988 28.11-5.981 15.524.007 28.105 2.698 28.103 6.009a1.382 1.382 0 0 1-.1.474c-1.155-3.084-13.245-5.514-28.003-5.524z"/>
    <path fill="#000" d="M242.099 195.606c-14.758 0-26.853 2.414-28.01 5.495a1.376 1.376 0 0 1-.1-.473c0-3.316 12.586-5.988 28.11-5.981 15.524.007 28.105 2.698 28.103 6.009a1.382 1.382 0 0 1-.1.474c-1.155-3.084-13.245-5.514-28.003-5.524z" opacity=".1" style="mix-blend-mode:multiply"/>
    <path fill="#FCD721" d="M242.094 206.627c-14.756 0-26.846-2.44-28.003-5.524 1.157-3.079 13.252-5.504 28.01-5.495 14.758.01 26.846 2.44 28.004 5.524-1.158 3.081-13.253 5.502-28.011 5.495z"/>
    <path fill="#FEBF00" d="M273.766 200.68v7.084c-.019.912-.624 1.786-1.708 2.605v-7.037c1.098-.826 1.708-1.724 1.708-2.652zM241.373 215.873h-.813v-7.041h.813v7.041zM254.542 215.227l-.813.085v-7.042l.813-.082v7.039zM267.711 212.517c-.264.093-.535.185-.813.275v-7.039c.277-.09.55-.183.813-.275v7.039zM210.429 200.649c0 1.049.773 2.051 2.168 2.972v7.042c-1.376-.909-2.146-1.895-2.168-2.932v-7.082zM215.032 211.937a15.013 15.013 0 0 1-.813-.367v-7.04c.259.125.53.247.813.367v7.04zM227.388 207.894l.814.109c1.392.177 2.839.327 4.34.45 2.051.168 4.19.284 6.403.341v7.042a115.227 115.227 0 0 1-6.403-.341 98.784 98.784 0 0 1-4.34-.45l-.814-.107c-.548-.076-1.091-.151-1.62-.237a62.341 62.341 0 0 1-6.403-1.319v-7.039c2.11.55 4.247.99 6.403 1.317.529.083 1.07.161 1.62.234z"/>
    <path fill="#FFDF00" d="M265.278 206.24a41.5 41.5 0 0 0 1.62-.485v7.039c-.517.168-1.055.329-1.62.488a59.987 59.987 0 0 1-6.403 1.362c-1.38.223-2.827.418-4.34.585v-7.039a85.387 85.387 0 0 0 4.34-.585 59.998 59.998 0 0 0 6.403-1.365zM272.051 210.367c-1.031.777-2.502 1.502-4.34 2.153v-7.039c1.836-.652 3.306-1.374 4.34-2.148v7.034zM245.711 208.784a113.643 113.643 0 0 0 8.023-.513v7.041c-.533.054-1.073.104-1.62.152-2.049.175-4.188.298-6.403.362-1.189.035-2.396.052-3.622.052h-.711v-7.041h.711c1.227 0 2.434-.018 3.622-.053zM240.557 215.866c-.544 0-1.084-.01-1.619-.03v-7.042c.535.014 1.075.024 1.619.031v7.041zM219.361 213.384a33.066 33.066 0 0 1-4.34-1.447v-7.042a32.918 32.918 0 0 0 4.34 1.447v7.042zM214.217 204.528v7.039a13.443 13.443 0 0 1-1.62-.907v-7.041c.518.34 1.059.644 1.62.909z"/>
    <path fill="#FEBF00" d="M202.952 189.157c0 1.049.773 2.051 2.167 2.972.519.341 1.06.645 1.62.91.259.125.531.247.814.367a32.954 32.954 0 0 0 4.339 1.447c2.11.551 4.248.99 6.404 1.317.529.083 1.072.161 1.619.237l.814.109c1.393.177 2.839.327 4.34.45a114.71 114.71 0 0 0 8.023.372h1.525c1.223 0 2.429-.017 3.616-.052a113.569 113.569 0 0 0 8.023-.514l.814-.083a85.344 85.344 0 0 0 4.339-.585 60.005 60.005 0 0 0 6.404-1.362c.564-.158 1.104-.32 1.619-.486.278-.09.551-.182.814-.274 1.835-.652 3.306-1.374 4.34-2.149 1.105-.831 1.714-1.721 1.714-2.65v7.084c-.019.912-.623 1.786-1.707 2.606-1.032.777-2.502 1.501-4.34 2.153a39.602 39.602 0 0 1-2.433.762 59.794 59.794 0 0 1-6.403 1.362 87.388 87.388 0 0 1-4.34.585l-.814.086a114.026 114.026 0 0 1-8.023.514c-1.189.034-2.396.052-3.621.052h-1.525c-.544 0-1.084-.011-1.62-.031a115.227 115.227 0 0 1-6.403-.341 98.944 98.944 0 0 1-4.34-.45l-.813-.107c-.548-.076-1.091-.151-1.62-.237a62.341 62.341 0 0 1-6.403-1.319 32.918 32.918 0 0 1-4.34-1.447 14.345 14.345 0 0 1-.813-.367 13.443 13.443 0 0 1-1.62-.907c-1.376-.91-2.147-1.895-2.168-2.933l-.002-7.091z"/>
    <path fill="#000" d="M202.952 189.157c0 1.049.773 2.051 2.167 2.972.519.341 1.06.645 1.62.91.259.125.531.247.814.367a32.954 32.954 0 0 0 4.339 1.447c2.11.551 4.248.99 6.404 1.317.529.083 1.072.161 1.619.237l.814.109c1.393.177 2.839.327 4.34.45a114.71 114.71 0 0 0 8.023.372h1.525c1.223 0 2.429-.017 3.616-.052a113.569 113.569 0 0 0 8.023-.514l.814-.083a85.344 85.344 0 0 0 4.339-.585 60.005 60.005 0 0 0 6.404-1.362c.564-.158 1.104-.32 1.619-.486.278-.09.551-.182.814-.274 1.835-.652 3.306-1.374 4.34-2.149 1.105-.831 1.714-1.721 1.714-2.65v7.084c-.019.912-.623 1.786-1.707 2.606-1.032.777-2.502 1.501-4.34 2.153a39.602 39.602 0 0 1-2.433.762 59.794 59.794 0 0 1-6.403 1.362 87.388 87.388 0 0 1-4.34.585l-.814.086a114.026 114.026 0 0 1-8.023.514c-1.189.034-2.396.052-3.621.052h-1.525c-.544 0-1.084-.011-1.62-.031a115.227 115.227 0 0 1-6.403-.341 98.944 98.944 0 0 1-4.34-.45l-.813-.107c-.548-.076-1.091-.151-1.62-.237a62.341 62.341 0 0 1-6.403-1.319 32.918 32.918 0 0 1-4.34-1.447 14.345 14.345 0 0 1-.813-.367 13.443 13.443 0 0 1-1.62-.907c-1.376-.91-2.147-1.895-2.168-2.933l-.002-7.091z" opacity=".3" style="mix-blend-mode:multiply"/>
    <path fill="#FEBF00" d="M234.619 196.454c17.491 0 31.67-3.659 31.67-8.174 0-4.514-14.179-8.174-31.67-8.174s-31.67 3.66-31.67 8.174c0 4.515 14.179 8.174 31.67 8.174z"/>
    <path fill="#FEBF00" d="M234.621 183.24c-14.758 0-26.853 2.414-28.01 5.495a1.4 1.4 0 0 1-.1-.474c0-3.316 12.586-5.987 28.11-5.98 15.524.007 28.105 2.698 28.103 6.009a1.393 1.393 0 0 1-.099.473c-1.155-3.074-13.248-5.516-28.004-5.523z"/>
    <path fill="#000" d="M234.621 183.24c-14.758 0-26.853 2.414-28.01 5.495a1.4 1.4 0 0 1-.1-.474c0-3.316 12.586-5.987 28.11-5.98 15.524.007 28.105 2.698 28.103 6.009a1.393 1.393 0 0 1-.099.473c-1.155-3.074-13.248-5.516-28.004-5.523z" opacity=".1" style="mix-blend-mode:multiply"/>
    <path fill="#FCD721" d="M234.617 194.258c-14.756 0-26.846-2.44-28.003-5.523 1.157-3.08 13.252-5.505 28.01-5.495 14.758.009 26.846 2.439 28.003 5.523-1.16 3.084-13.252 5.502-28.01 5.495z"/>
    <path fill="#FEBF00" d="M266.289 188.313v7.085c-.019.911-.624 1.785-1.708 2.605v-7.037c1.098-.834 1.708-1.724 1.708-2.653zM233.893 203.505h-.813v-7.042h.813v7.042zM247.065 202.859l-.814.085v-7.042l.814-.082v7.039zM260.234 200.152c-.264.093-.535.184-.813.274v-7.039c.277-.09.55-.182.813-.275v7.04zM202.952 188.28c0 1.049.773 2.051 2.167 2.973v7.041c-1.375-.909-2.146-1.895-2.167-2.932v-7.082zM207.555 199.569a14.708 14.708 0 0 1-.814-.367v-7.04c.26.125.531.247.814.367v7.04zM219.911 195.525l.813.109c1.393.177 2.84.327 4.34.45 2.051.169 4.19.285 6.403.341v7.042a115.227 115.227 0 0 1-6.403-.341 98.944 98.944 0 0 1-4.34-.45l-.813-.107a70.706 70.706 0 0 1-1.62-.236 62.29 62.29 0 0 1-6.403-1.32v-7.034c2.11.55 4.247.99 6.403 1.317.529.078 1.069.156 1.62.229z"/>
    <path fill="#FFDF00" d="M257.801 193.872a44.43 44.43 0 0 0 1.62-.486v7.04a41.27 41.27 0 0 1-1.62.487 59.794 59.794 0 0 1-6.403 1.362 87.388 87.388 0 0 1-4.34.585v-7.039a85.54 85.54 0 0 0 4.34-.585 60.047 60.047 0 0 0 6.403-1.364zM264.574 198.005c-1.032.777-2.502 1.502-4.34 2.153v-7.039c1.836-.651 3.306-1.374 4.34-2.148v7.034zM238.233 196.416c2.21-.064 4.35-.187 6.403-.362.547-.047 1.087-.098 1.62-.152v7.042c-.533.054-1.073.104-1.62.152-2.049.175-4.188.298-6.403.362-1.189.035-2.396.052-3.621.052h-.712v-7.042h.712c1.227.002 2.434-.015 3.621-.052zM233.08 203.501c-.544 0-1.084-.011-1.62-.031v-7.042c.536.014 1.076.025 1.62.031v7.042zM211.893 201.016a32.918 32.918 0 0 1-4.34-1.447v-7.042a33.07 33.07 0 0 0 4.34 1.448v7.041zM206.739 192.162v7.039a13.598 13.598 0 0 1-1.62-.907v-7.042c.519.341 1.06.644 1.62.91z"/>
    <path fill="#FEBF00" d="M210.429 176.788c0 1.049.773 2.051 2.168 2.972.518.34 1.059.644 1.62.91.259.125.53.247.813.367a32.967 32.967 0 0 0 4.34 1.447c2.11.551 4.247.99 6.403 1.317.529.083 1.072.161 1.62.237l.813.109c1.393.177 2.84.327 4.34.45a114.813 114.813 0 0 0 8.023.372h1.525c1.224 0 2.429-.018 3.617-.052a113.623 113.623 0 0 0 8.023-.514l.813-.083a85.54 85.54 0 0 0 4.34-.585 59.987 59.987 0 0 0 6.403-1.362 38.534 38.534 0 0 0 2.433-.76c1.836-.652 3.306-1.374 4.34-2.149 1.105-.831 1.715-1.722 1.715-2.65v7.082c-.019.912-.624 1.786-1.708 2.605-1.031.777-2.502 1.502-4.34 2.153-.264.093-.535.185-.813.275-.517.168-1.055.329-1.62.488a59.987 59.987 0 0 1-6.403 1.362c-1.38.222-2.827.417-4.34.585l-.813.085c-.533.054-1.073.104-1.62.152-2.049.175-4.188.298-6.403.362-1.189.035-2.396.052-3.622.052h-1.525c-.543 0-1.083-.01-1.619-.031a114.268 114.268 0 0 1-6.403-.341 98.784 98.784 0 0 1-4.34-.45l-.814-.106a76.658 76.658 0 0 1-1.62-.237 62.61 62.61 0 0 1-6.403-1.319 33.021 33.021 0 0 1-4.34-1.448 13.61 13.61 0 0 1-.813-.367 13.598 13.598 0 0 1-1.62-.907c-1.375-.909-2.146-1.895-2.167-2.932l-.003-7.089z"/>
    <path fill="#000" d="M210.429 176.788c0 1.049.773 2.051 2.168 2.972.518.34 1.059.644 1.62.91.259.125.53.247.813.367a32.967 32.967 0 0 0 4.34 1.447c2.11.551 4.247.99 6.403 1.317.529.083 1.072.161 1.62.237l.813.109c1.393.177 2.84.327 4.34.45a114.813 114.813 0 0 0 8.023.372h1.525c1.224 0 2.429-.018 3.617-.052a113.623 113.623 0 0 0 8.023-.514l.813-.083a85.54 85.54 0 0 0 4.34-.585 59.987 59.987 0 0 0 6.403-1.362 38.534 38.534 0 0 0 2.433-.76c1.836-.652 3.306-1.374 4.34-2.149 1.105-.831 1.715-1.722 1.715-2.65v7.082c-.019.912-.624 1.786-1.708 2.605-1.031.777-2.502 1.502-4.34 2.153-.264.093-.535.185-.813.275-.517.168-1.055.329-1.62.488a59.987 59.987 0 0 1-6.403 1.362c-1.38.222-2.827.417-4.34.585l-.813.085c-.533.054-1.073.104-1.62.152-2.049.175-4.188.298-6.403.362-1.189.035-2.396.052-3.622.052h-1.525c-.543 0-1.083-.01-1.619-.031a114.268 114.268 0 0 1-6.403-.341 98.784 98.784 0 0 1-4.34-.45l-.814-.106a76.658 76.658 0 0 1-1.62-.237 62.61 62.61 0 0 1-6.403-1.319 33.021 33.021 0 0 1-4.34-1.448 13.61 13.61 0 0 1-.813-.367 13.598 13.598 0 0 1-1.62-.907c-1.375-.909-2.146-1.895-2.167-2.932l-.003-7.089z" opacity=".3" style="mix-blend-mode:multiply"/>
    <path fill="#FEBF00" d="M242.096 184.085c17.491 0 31.67-3.659 31.67-8.173 0-4.515-14.179-8.174-31.67-8.174-17.49 0-31.669 3.659-31.669 8.174 0 4.514 14.179 8.173 31.669 8.173z"/>
    <path fill="#FEBF00" d="M242.099 170.872c-14.758 0-26.853 2.413-28.01 5.495a1.382 1.382 0 0 1-.1-.474c0-3.316 12.586-5.988 28.11-5.981 15.524.007 28.105 2.698 28.103 6.009a1.377 1.377 0 0 1-.1.474c-1.155-3.084-13.245-5.516-28.003-5.523z"/>
    <path fill="#000" d="M242.099 170.872c-14.758 0-26.853 2.413-28.01 5.495a1.382 1.382 0 0 1-.1-.474c0-3.316 12.586-5.988 28.11-5.981 15.524.007 28.105 2.698 28.103 6.009a1.377 1.377 0 0 1-.1.474c-1.155-3.084-13.245-5.516-28.003-5.523z" opacity=".1" style="mix-blend-mode:multiply"/>
    <path fill="#FCD721" d="M242.094 181.899c-14.756 0-26.846-2.439-28.003-5.523 1.157-3.079 13.252-5.505 28.01-5.495 14.758.009 26.846 2.439 28.004 5.523-1.158 3.075-13.253 5.495-28.011 5.495z"/>
    <path fill="#FEBF00" d="M273.766 175.945v7.084c-.019.912-.624 1.786-1.708 2.606v-7.051c1.098-.82 1.708-1.71 1.708-2.639zM241.373 191.137h-.813v-7.042h.813v7.042zM254.542 190.492l-.813.086v-7.042l.813-.083v7.039zM267.711 187.783c-.264.093-.535.185-.813.275v-7.04c.277-.09.55-.182.813-.274v7.039zM210.429 175.912c0 1.049.773 2.051 2.168 2.972v7.042c-1.376-.909-2.146-1.895-2.168-2.932v-7.082zM215.032 187.203a15.013 15.013 0 0 1-.813-.367v-7.042c.259.125.53.247.813.367v7.042zM227.388 183.159l.814.109c1.392.177 2.839.327 4.34.45 2.051.168 4.19.284 6.403.341v7.042a115.227 115.227 0 0 1-6.403-.341 98.784 98.784 0 0 1-4.34-.45l-.814-.107c-.548-.076-1.091-.151-1.62-.237a62.341 62.341 0 0 1-6.403-1.319v-7.042c2.11.551 4.247.991 6.403 1.317.529.083 1.07.161 1.62.237z"/>
    <path fill="#FFDF00" d="M265.278 181.506a43.306 43.306 0 0 0 1.62-.485v7.037c-.517.168-1.055.329-1.62.488a59.983 59.983 0 0 1-6.403 1.361c-1.38.223-2.827.418-4.34.586v-7.04a85.387 85.387 0 0 0 4.34-.585 59.987 59.987 0 0 0 6.403-1.362zM272.051 185.63c-1.031.777-2.502 1.501-4.34 2.153v-7.04c1.836-.651 3.306-1.373 4.34-2.148v7.035zM245.711 184.048a113.623 113.623 0 0 0 8.023-.514v7.041c-.533.054-1.073.105-1.62.152-2.049.175-4.188.298-6.403.362-1.189.035-2.396.052-3.622.052h-.711V184.1h.711c1.227.001 2.434-.016 3.622-.052zM240.557 191.137c-.544 0-1.084-.01-1.619-.031v-7.042c.535.015 1.075.025 1.619.031v7.042zM219.361 188.647a32.918 32.918 0 0 1-4.34-1.447v-7.042a33.07 33.07 0 0 0 4.34 1.448v7.041zM214.217 179.794v7.041a13.443 13.443 0 0 1-1.62-.907v-7.042c.518.34 1.059.643 1.62.908z"/>
    <path fill="#FEBF00" d="M210.429 164.422c0 1.049.773 2.051 2.168 2.972.518.34 1.059.644 1.62.91.259.124.53.247.813.367a33.115 33.115 0 0 0 4.34 1.447c2.11.55 4.247.99 6.403 1.317.529.083 1.072.161 1.62.237l.813.109c1.393.177 2.84.327 4.34.45a114.813 114.813 0 0 0 8.023.372h1.525c1.224 0 2.429-.018 3.617-.053a114.59 114.59 0 0 0 6.403-.362c.547-.047 1.087-.098 1.62-.152l.813-.082a85.54 85.54 0 0 0 4.34-.585 60.234 60.234 0 0 0 6.403-1.362 44.43 44.43 0 0 0 1.62-.486c.277-.09.55-.182.813-.275 1.836-.651 3.306-1.373 4.34-2.148 1.105-.831 1.715-1.722 1.715-2.65v7.082c-.019.911-.624 1.785-1.708 2.605-1.031.777-2.502 1.502-4.34 2.153-.264.093-.535.185-.813.275-.517.168-1.055.329-1.62.488a59.987 59.987 0 0 1-6.403 1.362c-1.38.222-2.827.417-4.34.585l-.813.085a113.088 113.088 0 0 1-8.023.514c-1.189.035-2.396.052-3.622.052h-1.525c-.543 0-1.083-.01-1.619-.031a115.227 115.227 0 0 1-6.403-.341 98.784 98.784 0 0 1-4.34-.45l-.814-.107a70.706 70.706 0 0 1-1.62-.236 62.345 62.345 0 0 1-6.403-1.32 33.017 33.017 0 0 1-4.34-1.447 15.013 15.013 0 0 1-.813-.367 13.598 13.598 0 0 1-1.62-.907c-1.375-.91-2.146-1.895-2.167-2.932l-.003-7.089z"/>
    <path fill="#000" d="M210.429 164.422c0 1.049.773 2.051 2.168 2.972.518.34 1.059.644 1.62.91.259.124.53.247.813.367a33.115 33.115 0 0 0 4.34 1.447c2.11.55 4.247.99 6.403 1.317.529.083 1.072.161 1.62.237l.813.109c1.393.177 2.84.327 4.34.45a114.813 114.813 0 0 0 8.023.372h1.525c1.224 0 2.429-.018 3.617-.053a114.59 114.59 0 0 0 6.403-.362c.547-.047 1.087-.098 1.62-.152l.813-.082a85.54 85.54 0 0 0 4.34-.585 60.234 60.234 0 0 0 6.403-1.362 44.43 44.43 0 0 0 1.62-.486c.277-.09.55-.182.813-.275 1.836-.651 3.306-1.373 4.34-2.148 1.105-.831 1.715-1.722 1.715-2.65v7.082c-.019.911-.624 1.785-1.708 2.605-1.031.777-2.502 1.502-4.34 2.153-.264.093-.535.185-.813.275-.517.168-1.055.329-1.62.488a59.987 59.987 0 0 1-6.403 1.362c-1.38.222-2.827.417-4.34.585l-.813.085a113.088 113.088 0 0 1-8.023.514c-1.189.035-2.396.052-3.622.052h-1.525c-.543 0-1.083-.01-1.619-.031a115.227 115.227 0 0 1-6.403-.341 98.784 98.784 0 0 1-4.34-.45l-.814-.107a70.706 70.706 0 0 1-1.62-.236 62.345 62.345 0 0 1-6.403-1.32 33.017 33.017 0 0 1-4.34-1.447 15.013 15.013 0 0 1-.813-.367 13.598 13.598 0 0 1-1.62-.907c-1.375-.91-2.146-1.895-2.167-2.932l-.003-7.089z" opacity=".3" style="mix-blend-mode:multiply"/>
    <path fill="#FEBF00" d="M242.096 171.719c17.491 0 31.67-3.659 31.67-8.174 0-4.514-14.179-8.173-31.67-8.173-17.49 0-31.669 3.659-31.669 8.173 0 4.515 14.179 8.174 31.669 8.174z"/>
    <path fill="#FEBF00" d="M242.099 158.503c-14.758 0-26.853 2.414-28.01 5.495a1.377 1.377 0 0 1-.1-.474c0-3.316 12.586-5.987 28.11-5.98 15.524.007 28.105 2.697 28.103 6.009a1.371 1.371 0 0 1-.1.473c-1.155-3.083-13.245-5.516-28.003-5.523z"/>
    <path fill="#000" d="M242.099 158.503c-14.758 0-26.853 2.414-28.01 5.495a1.377 1.377 0 0 1-.1-.474c0-3.316 12.586-5.987 28.11-5.98 15.524.007 28.105 2.697 28.103 6.009a1.371 1.371 0 0 1-.1.473c-1.155-3.083-13.245-5.516-28.003-5.523z" opacity=".1" style="mix-blend-mode:multiply"/>
    <path fill="#FCD721" d="M242.094 169.521c-14.756 0-26.846-2.439-28.003-5.523 1.157-3.079 13.252-5.505 28.01-5.495 14.758.009 26.846 2.439 28.004 5.523-1.158 3.084-13.253 5.505-28.011 5.495z"/>
    <path fill="#FEBF00" d="M273.766 163.576v7.085c-.019.912-.624 1.786-1.708 2.605v-7.037c1.098-.834 1.708-1.724 1.708-2.653zM241.373 178.77h-.813v-7.055h.813v7.055zM254.542 178.124l-.813.085v-7.042l.813-.083v7.04zM267.711 175.414c-.264.093-.535.185-.813.275v-7.039c.277-.09.55-.183.813-.275v7.039zM210.429 163.545c0 1.05.773 2.052 2.168 2.973v7.042c-1.376-.91-2.146-1.895-2.168-2.933v-7.082zM215.032 174.834a15.013 15.013 0 0 1-.813-.367v-7.04c.259.125.53.248.813.368v7.039zM227.388 170.791l.814.109c1.392.177 2.839.327 4.34.45 2.051.168 4.19.284 6.403.341v7.042a115.227 115.227 0 0 1-6.403-.341 98.784 98.784 0 0 1-4.34-.45l-.814-.107a76.658 76.658 0 0 1-1.62-.237 62.341 62.341 0 0 1-6.403-1.319v-7.042c2.11.551 4.247.99 6.403 1.317.529.085 1.07.161 1.62.237z"/>
    <path fill="#FFDF00" d="M265.278 169.138a43.27 43.27 0 0 0 1.62-.486v7.04c-.517.168-1.055.329-1.62.488a59.983 59.983 0 0 1-6.403 1.361c-1.38.223-2.827.418-4.34.585v-7.039a85.387 85.387 0 0 0 4.34-.585 59.995 59.995 0 0 0 6.403-1.364zM272.051 173.264c-1.031.777-2.502 1.501-4.34 2.153v-7.039c1.836-.652 3.306-1.374 4.34-2.149v7.035zM245.711 171.681c2.21-.063 4.349-.187 6.403-.362.547-.047 1.087-.098 1.62-.152v7.042c-.533.054-1.073.104-1.62.152-2.049.175-4.188.298-6.403.362-1.189.035-2.396.052-3.622.052h-.711v-7.041h.711c1.227 0 2.434-.018 3.622-.053zM240.557 178.763c-.544 0-1.084-.01-1.619-.03v-7.042c.535.014 1.075.024 1.619.031v7.041zM219.361 176.279a33.066 33.066 0 0 1-4.34-1.447v-7.042a32.918 32.918 0 0 0 4.34 1.447v7.042zM214.217 167.425v7.039a13.443 13.443 0 0 1-1.62-.907v-7.041c.518.34 1.059.644 1.62.909z"/>
    <path fill="#FEA600" d="M250.383 164.685c0 .267-.189.508-.565.722a5.989 5.989 0 0 1-1.603.555c-.825.176-1.661.3-2.502.374a44.29 44.29 0 0 1-3.244.177l-.389.998a.16.16 0 0 1-.083.066.967.967 0 0 1-.237.047 7.145 7.145 0 0 1-.475.031c-.199.008-.455.008-.768 0-.395 0-.711-.005-.949-.014-.237 0-.429-.021-.564-.04a.732.732 0 0 1-.268-.069c-.044-.029-.054-.059-.029-.093l.389-.947a53.915 53.915 0 0 1-2.779-.17 31.404 31.404 0 0 1-.991-.109 6.399 6.399 0 0 1-.631-.109.596.596 0 0 1-.306-.159.456.456 0 0 1-.093-.31.794.794 0 0 1 .038-.261.302.302 0 0 1 .131-.159.638.638 0 0 1 .237-.075 2.08 2.08 0 0 1 .325-.022c.238.007.476.03.711.069.317.047.712.099 1.186.154a35.403 35.403 0 0 0 4.172.223 18.71 18.71 0 0 0 3.225-.204c.703-.136 1.056-.315 1.058-.538 0-.15-.152-.273-.456-.369a7.84 7.84 0 0 0-1.214-.254 34.68 34.68 0 0 0-1.715-.196c-.635-.059-1.287-.12-1.956-.185a41.409 41.409 0 0 1-1.957-.237 15.82 15.82 0 0 1-1.714-.322 4.514 4.514 0 0 1-1.214-.474.778.778 0 0 1-.456-.66c0-.234.158-.447.475-.638a4.787 4.787 0 0 1 1.335-.502c.703-.163 1.416-.28 2.134-.348a39.454 39.454 0 0 1 2.882-.18l.369-.947a.147.147 0 0 1 .083-.064 1.08 1.08 0 0 1 .238-.048 5.62 5.62 0 0 1 .474-.03c.199-.007.458-.007.778 0 .382 0 .699.004.948.014.25.009.445.023.584.04.091.004.18.027.261.069.032.02.052.054.054.092l-.37.881c.347.013.711.03 1.094.052a33.705 33.705 0 0 1 1.982.171c.19.019.378.048.565.087.081.019.16.045.237.079.05.022.095.055.13.097a.346.346 0 0 1 .064.139c.013.063.02.126.019.19a.86.86 0 0 1-.028.237.253.253 0 0 1-.102.142.435.435 0 0 1-.166.066 1.289 1.289 0 0 1-.223.017 5.864 5.864 0 0 1-.712-.062 45.706 45.706 0 0 0-2.696-.26 29.938 29.938 0 0 0-3.598-.015 9.239 9.239 0 0 0-1.112.131 2.162 2.162 0 0 0-.631.201c-.135.078-.204.163-.204.256 0 .147.158.27.475.369a7.5 7.5 0 0 0 1.233.256 38.68 38.68 0 0 0 1.743.197l1.982.187c.674.065 1.336.144 1.985.237a15.64 15.64 0 0 1 1.734.317 4.78 4.78 0 0 1 1.224.457.768.768 0 0 1 .446.673z"/>
    <path fill="#363868" d="M71.213 152.698c1.546-.526 2.846-.616 3.744.604 2.51 3.382-8.153 15.409-8.153 15.409s-9.413 1.253-17.28 1.599c6.558-.739 11.704-1.537 11.704-1.537s5.576-8.673 9.985-16.075z"/>
    <path fill="#43457B" d="M39.028 168.898c-.267-3.477-7.885-13.531-4.743-17.664 3.143-4.133 9.228 4.604 14.068.187s7.352 1.421 12.992 3.287c3.607 1.201 7.138-1.087 9.872-2.013-3.424 7.449-9.984 16.075-9.984 16.075s-5.146.799-11.703 1.538c-5.588.246-10.39.035-10.502-1.41z"/>
    <path fill="#262350" d="M13.836 235.511c1.714-15.381 13.463-48.166 22.392-58.773l.102.28h29.549s12.41 36.144 14.637 47.408c2.19 11.066-.683 24.268-9.028 27.137-5.946 2.044-28.343.999-40.736 2.084a21.935 21.935 0 0 1-4.295-1.033c-5.533-1.94-13.788-6.622-12.621-17.103z"/>
    <path fill="#504D75" d="M80.023 224.739c-1.715-8.674-9.152-32.45-12.629-42.758-1.007-2.989-4.237-4.628-7.394-4.627l-23.673-.324-.102-.28.351-.41c2.45-2.771 13.94-2.617 16.127-2.562h.358a84.418 84.418 0 0 1 3.998 0c4.283.111 10.423.618 12.136 2.555 8.966 10.147 21.007 43.598 22.743 59.183 1.166 10.481-7.089 15.158-12.62 17.105a22.059 22.059 0 0 1-7.332 1.241H33.787a22.371 22.371 0 0 1-3.038-.21c12.392-1.087 34.82.101 40.736-2.085 7.834-2.894 10.727-15.763 8.538-26.828z"/>
    <path fill="url(#h)" d="M39.538 168.349h26.704c.93 0 1.684.926 1.684 2.07v2.823c0 1.144-.754 2.07-1.684 2.07H39.538c-.93 0-1.683-.926-1.683-2.07v-2.823c0-1.144.754-2.07 1.683-2.07z"/>
    <path fill="#000" d="M39.538 168.349h26.704c.93 0 1.684.926 1.684 2.07v2.823c0 1.144-.754 2.07-1.684 2.07H39.538c-.93 0-1.683-.926-1.683-2.07v-2.823c0-1.144.754-2.07 1.683-2.07z" opacity=".3" style="mix-blend-mode:multiply"/>
    <path fill="url(#i)" d="M39.538 168.349h26.704c.94.01 1.693.779 1.684 1.717v2.343a1.702 1.702 0 0 1-1.684 1.717H39.538a1.702 1.702 0 0 1-1.683-1.717v-2.352a1.701 1.701 0 0 1 1.683-1.708z"/>
    <path fill="#EDAA1A" d="M61.468 217.664a9.3 9.3 0 0 1-.598 3.832 8.455 8.455 0 0 1-2.008 3.004 10.525 10.525 0 0 1-3.24 2.093 15.761 15.761 0 0 1-4.269 1.104l-.308 5.27a.89.89 0 0 1-.097.348.65.65 0 0 1-.31.259 2.794 2.794 0 0 1-.634.184 6.948 6.948 0 0 1-1.017.102 8.668 8.668 0 0 1-1.27-.024 2.578 2.578 0 0 1-.758-.18.679.679 0 0 1-.37-.341.886.886 0 0 1-.057-.488l.318-5.002a18.858 18.858 0 0 1-2.007-.301 16.076 16.076 0 0 1-1.714-.447c-.457-.145-.904-.32-1.338-.524-.31-.139-.6-.321-.858-.542a1.658 1.658 0 0 1-.439-.817 8.045 8.045 0 0 1-.187-1.628 14.13 14.13 0 0 1 0-1.376c.004-.285.05-.568.137-.84a.725.725 0 0 1 .712-.545c.338.032.664.145.948.331a16.69 16.69 0 0 0 1.606.749c.763.301 1.55.539 2.352.71 1.059.219 2.142.299 3.221.237 1.916-.076 3.327-.488 4.233-1.236a3.39 3.39 0 0 0 1.288-2.89c0-.697-.24-1.372-.678-1.914a5.527 5.527 0 0 0-1.66-1.274 14.408 14.408 0 0 0-2.315-.947c-.855-.269-1.732-.558-2.63-.867a22.473 22.473 0 0 1-2.64-1.099 9.804 9.804 0 0 1-2.34-1.604 7.505 7.505 0 0 1-1.708-2.368 8.977 8.977 0 0 1-.74-3.449 8.816 8.816 0 0 1 .475-3.373 7.713 7.713 0 0 1 1.66-2.707 8.889 8.889 0 0 1 2.765-1.94 14.134 14.134 0 0 1 3.782-1.096l.309-4.932a.778.778 0 0 1 .097-.336.75.75 0 0 1 .308-.258c.197-.093.406-.155.622-.185.34-.05.684-.08 1.029-.09a8.956 8.956 0 0 1 1.269.024c.268.019.532.079.782.178.161.06.29.183.358.341.057.156.089.321.093.488l-.29 4.651c.46.048.948.119 1.461.214a12.737 12.737 0 0 1 2.666.791c.277.104.536.251.768.435.132.118.245.255.337.405.088.16.153.332.192.51.056.241.094.485.116.732.027.285.049.616.064.992.021.507.025.924.012 1.253 0 .255-.036.508-.104.753a.732.732 0 0 1-.209.353.501.501 0 0 1-.291.097 2.294 2.294 0 0 1-.949-.282 19.493 19.493 0 0 0-1.54-.627 17.88 17.88 0 0 0-2.09-.607 9.768 9.768 0 0 0-2.581-.218 8.491 8.491 0 0 0-2.177.332 4.124 4.124 0 0 0-1.447.746 2.732 2.732 0 0 0-.794 1.087c-.167.433-.24.896-.216 1.36.004.698.248 1.373.69 1.914a5.28 5.28 0 0 0 1.689 1.283c.757.378 1.543.695 2.35.948.871.276 1.76.568 2.668.876.912.31 1.806.672 2.677 1.085a9.58 9.58 0 0 1 2.372 1.577 7.621 7.621 0 0 1 1.717 2.34 8.508 8.508 0 0 1 .735 3.366z"/>
    <path fill="#fff" d="M155.146 180.346l2.993 1.636-2.993 1.635-1.638 2.991-1.639-2.991-2.995-1.635 2.995-1.636 1.639-2.992 1.638 2.992zM150.356 190.559l1.883 1.028-1.883 1.03-1.032 1.883-1.032-1.883-1.885-1.03 1.885-1.028 1.032-1.883 1.032 1.883zM161.265 188.153l2.872 1.57-2.872 1.568-1.57 2.868-1.573-2.868-2.869-1.568 2.869-1.57 1.573-2.866 1.57 2.866z"/>
    <defs>
        <linearGradient id="a" x1="64.394" x2="217.259" y1="187.137" y2="187.137" gradientUnits="userSpaceOnUse">
            <stop stop-color="#3393EB"/>
            <stop offset="1" stop-color="#37BEDF"/>
        </linearGradient>
        <linearGradient id="b" x1="246.992" x2="253.188" y1="51.685" y2="51.82" gradientUnits="userSpaceOnUse">
            <stop stop-color="#C7E9F9"/>
            <stop offset="1" stop-color="#F1F9FE"/>
        </linearGradient>
        <linearGradient id="c" x1="-2561.95" x2="-2553.59" y1="266.24" y2="266.24" gradientUnits="userSpaceOnUse">
            <stop stop-color="#C7E9F9"/>
            <stop offset="1" stop-color="#F1F9FE"/>
        </linearGradient>
        <linearGradient id="d" x1="-2561.05" x2="-2552.69" y1="266.24" y2="266.24" gradientUnits="userSpaceOnUse">
            <stop stop-color="#C7E9F9"/>
            <stop offset="1" stop-color="#F1F9FE"/>
        </linearGradient>
        <linearGradient id="e" x1="233.772" x2="277.179" y1="124.969" y2="124.969" gradientUnits="userSpaceOnUse">
            <stop stop-color="#3191B1"/>
            <stop offset="1" stop-color="#5555D9"/>
        </linearGradient>
        <linearGradient id="f" x1="269.822" x2="297.462" y1="155.486" y2="155.486" gradientUnits="userSpaceOnUse">
            <stop stop-color="#C7E9F9"/>
            <stop offset="1" stop-color="#F1F9FE"/>
        </linearGradient>
        <linearGradient id="g" x1="231.795" x2="279.154" y1="142.231" y2="142.231" gradientUnits="userSpaceOnUse">
            <stop stop-color="#3191B1"/>
            <stop offset="1" stop-color="#5555D9"/>
        </linearGradient>
        <linearGradient id="h" x1="67.923" x2="37.855" y1="168.347" y2="168.347" gradientUnits="userSpaceOnUse">
            <stop stop-color="#FEBF00"/>
            <stop offset=".98" stop-color="#FFDF00"/>
        </linearGradient>
        <linearGradient id="i" x1="809.419" x2="839.488" y1="174.127" y2="174.127" gradientUnits="userSpaceOnUse">
            <stop stop-color="#FEBF00"/>
            <stop offset=".98" stop-color="#FFDF00"/>
        </linearGradient>
    </defs>
</svg>
