<svg xmlns="http://www.w3.org/2000/svg" width="24" height="24" fill="none" viewBox="0 0 24 24">
    <path fill="#848484" d="M15 18.3c-.45 0-.75-.15-1.2-.3l-1.8-.75-1.8.75c-.3.15-.75.3-1.2.3-.3 0-.45 0-.75-.15L7.5 24l4.5-3 4.5 3-.9-5.85c-.15.15-.45.15-.6.15zM19.35 8.85c-.15-.3-.15-.75 0-1.05l.9-1.8c.3-.6 0-1.35-.75-1.65l-1.95-.75c-.3-.15-.6-.45-.75-.75L16.05.9C15.9.3 15.45 0 15 0c-.15 0-.45 0-.6.15l-1.95.9H12c-.15 0-.3 0-.45-.15L9.6.15C9.45 0 9.15 0 9 0c-.45 0-.9.3-1.2.75l-.75 2.1c0 .3-.3.6-.6.75l-2.1.75c-.6.15-.9.9-.6 1.65l.9 1.95c.15.3.15.75 0 1.05l-.9 1.8c-.3.6 0 1.35.75 1.65l1.95.75c.3.15.6.45.75.75l.75 1.95c.15.6.6.9 1.05.9.15 0 .3 0 .45-.15l1.95-.9c.15 0 .3-.15.45-.15.15 0 .3 0 .45.15l1.95.9c.15.15.3.15.45.15.45 0 .9-.3 1.2-.75l.75-1.95c.15-.3.45-.6.75-.75l1.95-.75c.6-.3 1.05-1.05.75-1.65l-.75-2.1zM12 14.4c-3.3 0-6-2.7-6-6s2.7-6 6-6 6 2.7 6 6-2.7 6-6 6z"/>
    <path fill="#848484" d="M16.5 8.4a4.5 4.5 0 1 1-9 0 4.5 4.5 0 0 1 9 0z"/>
</svg>
