<svg xmlns="http://www.w3.org/2000/svg" width="80" height="80" fill="none" viewBox="0 0 80 80">
    <g clip-path="url(#prefix__clip0)">
        <path fill="#5555D9" d="M76.257 28.379L5.61 47.182l9.656 23.911c1.478 3.66 5.466 5.65 9.292 4.625l49.635-13.212c3.826-1.026 6.296-4.726 5.73-8.627l-3.665-25.5z"/>
        <path fill="#000" d="M57.368 3.08c.648-.18 1.356-.1 1.984.262 1.255.724 1.68 2.313.951 3.54L46.538 30.55c-.728 1.247-2.328 1.67-3.563.945-1.255-.724-1.68-2.313-.95-3.54L55.788 4.288c.344-.603.931-1.026 1.58-1.207zM7.389 19.088c-.182-.643-.102-1.347.263-1.97.729-1.247 2.328-1.67 3.563-.946L35.04 29.847c1.255.724 1.68 2.313.95 3.54-.728 1.246-2.327 1.669-3.562.945L8.603 20.657c-.627-.362-1.052-.945-1.214-1.569z"/>
        <path fill="#fff" d="M42.53 43.743c-1.072.282-1.72 1.388-1.436 2.454l4.19 15.545c.283 1.066 1.397 1.71 2.47 1.428 1.072-.282 1.72-1.388 1.437-2.454L45 45.171c-.284-1.086-1.377-1.73-2.47-1.428zm-15.768 4.183c-1.073.282-1.721 1.388-1.438 2.454l4.19 15.545c.284 1.066 1.397 1.71 2.47 1.428 1.073-.282 1.721-1.388 1.438-2.454l-4.19-15.545c-.284-1.066-1.377-1.71-2.47-1.428zM58.3 39.54c-1.073.282-1.72 1.388-1.437 2.454l4.19 15.545c.284 1.066 1.397 1.71 2.47 1.428 1.073-.282 1.72-1.388 1.437-2.454l-4.19-15.545c-.284-1.066-1.397-1.71-2.47-1.428z"/>
        <path fill="#3AACD1" d="M78.787 27.716L3.078 47.866c-.688.181-1.397-.221-1.579-.905L.042 41.612c-.183-.684.222-1.388.91-1.569l75.71-20.15c.687-.181 1.396.221 1.578.905l1.437 5.35c.203.683-.202 1.387-.89 1.568z"/>
        <path fill="#434391" d="M7.148 50.983L76.844 32.42l-.587-4.042L5.61 47.182l1.539 3.8z"/>
    </g>
    <defs>
        <clipPath id="prefix__clip0">
            <path fill="#fff" d="M0 3H80V76H0z"/>
        </clipPath>
    </defs>
</svg>
