<svg xmlns="http://www.w3.org/2000/svg" width="24" height="24" fill="none" viewBox="0 0 24 24">
    <path fill="#848484" d="M19.14 12.936c.035-.3.06-.612.06-.936 0-.324-.024-.636-.072-.936l2.027-1.584a.496.496 0 0 0 .12-.612l-1.92-3.324a.488.488 0 0 0-.588-.216l-2.387.96a7.03 7.03 0 0 0-1.62-.936l-.36-2.544a.48.48 0 0 0-.48-.408h-3.84a.467.467 0 0 0-.469.408l-.36 2.544a7.22 7.22 0 0 0-1.62.936l-2.388-.96a.475.475 0 0 0-.588.216l-1.92 3.324a.465.465 0 0 0 .12.612l2.028 1.584c-.048.3-.083.624-.083.936 0 .312.024.636.072.936L2.844 14.52a.496.496 0 0 0-.12.612l1.92 3.324c.12.216.372.288.587.216l2.389-.96c.495.383 1.04.698 1.62.936l.36 2.544c.048.24.24.408.48.408h3.84c.24 0 .444-.168.467-.408l.36-2.544a7.22 7.22 0 0 0 1.62-.936l2.389.96c.215.084.468 0 .587-.216l1.92-3.324a.465.465 0 0 0-.12-.612l-2.003-1.584zM12 15.6A3.61 3.61 0 0 1 8.4 12c0-1.98 1.62-3.6 3.6-3.6s3.6 1.62 3.6 3.6-1.62 3.6-3.6 3.6z"/>
</svg>
