<?xml version="1.0" encoding="utf-8"?>
<!-- Generator: Adobe Illustrator 23.0.2, SVG Export Plug-In . SVG Version: 6.00 Build 0)  -->
<svg version="1.1" id="Capa_1" xmlns="http://www.w3.org/2000/svg" xmlns:xlink="http://www.w3.org/1999/xlink" x="0px" y="0px"
	 viewBox="0 0 512 512" style="enable-background:new 0 0 512 512;" xml:space="preserve">
<g>
	<g>
		<g>
			<path d="M439.5,215.6c-3.5-1.5-7.6-0.7-10.3,2.1l-58.5,58.4c-4,4-9,6.7-14.5,7.8l-47.3,9.5c-9.4,1.9-19-1.1-25.7-7.8
				c-6.7-6.7-9.6-16.3-7.8-25.7l8.4-41.8H132.9c-5.2,0-9.5-4.2-9.5-9.5c0-5.2,4.2-9.5,9.5-9.5h159c0.3-0.4,0.5-0.8,0.9-1.2
				l36.7-36.7H132.9c-5.2,0-9.5-4.2-9.5-9.5c0-5.2,4.2-9.5,9.5-9.5h208.3c2,0,3.8,0.8,5.3,1.8L408,82.8c5.2-5.2,11.4-9.3,18.6-12.1
				c3.3-1.3,5.5-4.3,5.9-7.8c0.4-3.5-1.3-6.9-4.2-8.9c-6.2-4.1-13.4-6.3-20.8-6.3H66.6c-20.9,0-37.9,17-37.9,37.9v369.3
				c0,3.8,2.3,7.3,5.8,8.7c1.2,0.5,2.4,0.7,3.6,0.7c2.5,0,4.9-1,6.7-2.8l91.9-91.9h270.7c20.9,0,37.9-17,37.9-37.9V224.3
				C445.4,220.5,443.1,217.1,439.5,215.6z M246.5,274.9H132.9c-5.2,0-9.5-4.2-9.5-9.5c0-5.2,4.2-9.5,9.5-9.5h113.6
				c5.2,0,9.5,4.2,9.5,9.5C256,270.7,251.8,274.9,246.5,274.9z"/>
			<path d="M447,85.6c-9.6,0-18.9,3.9-25.6,10.6L306.1,211.4c-1.3,1.3-2.2,3-2.6,4.8l-9.5,47.4c-0.6,3.1,0.4,6.3,2.6,8.6
				c1.8,1.8,4.2,2.8,6.7,2.8c0.6,0,1.2-0.1,1.8-0.2l47.3-9.5c1.8-0.4,3.5-1.3,4.8-2.6l115.3-115.3c0,0,0,0,0,0
				c6.8-6.8,10.6-16.1,10.6-25.6C483.3,101.8,467,85.6,447,85.6z M432,161.3l-24.5-24.5l13.4-13.4l24.5,24.5L432,161.3z"/>
		</g>
	</g>
</g>
</svg>
