<svg width="100" height="100" viewBox="0 0 100 100" fill="none" xmlns="http://www.w3.org/2000/svg">
<path d="M81.4209 51.7268H96.5601C98.4577 51.7217 99.9949 50.1845 100 48.2869V48.2684C99.9949 46.3708 98.4577 44.8336 96.5601 44.8285H95.0204C93.2878 44.8673 91.7775 43.6583 91.4349 41.9595C91.264 40.9576 91.5435 39.9314 92.1993 39.1552C92.8551 38.379 93.8199 37.9311 94.836 37.932H96.5601C98.4611 37.9269 100 36.3846 100 34.4837V34.4753C100 32.5744 98.4611 31.0312 96.5601 31.027H95.0204C93.2878 31.0649 91.7775 29.8568 91.4349 28.1579C91.264 27.1561 91.5435 26.1299 92.1993 25.3537C92.8551 24.5775 93.8199 24.1296 94.836 24.1305H96.5601C98.4611 24.1254 100 22.5831 100 20.6822C100 18.7812 98.4611 17.2381 96.5601 17.2339H94.836C93.8199 17.2347 92.8551 16.7869 92.1993 16.0107C91.5435 15.2336 91.264 14.2082 91.4349 13.2064C91.7775 11.5075 93.2878 10.2986 95.0204 10.3374H96.5601C98.4611 10.3323 100 8.79001 100 6.88908C99.9949 4.99151 98.4577 3.45427 96.5601 3.44922H3.44828C1.54735 3.44922 0.00505119 4.98815 0 6.88908V6.90591C0 8.81021 1.54398 10.3542 3.44828 10.3542H4.98805C6.7206 10.3163 8.23091 11.5244 8.57439 13.2233C8.74276 14.2242 8.46158 15.2479 7.80661 16.0233C7.15079 16.7978 6.18686 17.244 5.17241 17.244H3.44828C1.54819 17.244 0.00589306 18.7812 0 20.6822V20.699C0 22.6033 1.54398 24.1473 3.44828 24.1473H4.98805C6.7206 24.1094 8.23091 25.3175 8.57439 27.0164C8.74276 28.0173 8.46158 29.041 7.80661 29.8164C7.15079 30.5909 6.18686 31.0371 5.17241 31.0371H3.44828C1.54819 31.0371 0.00589306 32.5744 0 34.4753V34.4921C0 36.3964 1.54398 37.9404 3.44828 37.9404H4.98805C6.7206 37.9025 8.23091 39.1106 8.57439 40.8095C8.74276 41.8104 8.46158 42.8342 7.80661 43.6095C7.15079 44.384 6.18686 44.8302 5.17241 44.8302H3.44828C1.54819 44.8302 0.00589306 46.3675 0 48.2684V48.2852C0.00505119 50.1862 1.54735 51.7251 3.44828 51.7251H81.4209V51.7268Z" fill="#6BBF22"/>
<path d="M96.5605 3.44922H65.5176V51.7251H96.5605C98.458 51.72 99.9953 50.1828 100 48.2852V48.2667C99.9953 46.3691 98.458 44.8319 96.5605 44.8268H95.0207C93.2882 44.8656 91.7778 43.6567 91.4352 41.9578C91.2643 40.956 91.5438 39.9297 92.1996 39.1535C92.8554 38.3773 93.8202 37.9295 94.8363 37.9303H96.5605C98.4614 37.9252 100 36.3829 100 34.482V34.4736C100 32.5727 98.4614 31.0295 96.5605 31.0253H95.0207C93.2882 31.0632 91.7778 29.8551 91.4352 28.1562C91.2643 27.1544 91.5438 26.1282 92.1996 25.352C92.8554 24.5758 93.8202 24.1279 94.8363 24.1288H96.5605C98.4614 24.1237 100 22.5814 100 20.6805C100 18.7796 98.4614 17.2364 96.5605 17.2322H94.8363C93.8202 17.2331 92.8554 16.7852 92.1996 16.009C91.5438 15.232 91.2643 14.2066 91.4352 13.2047C91.7778 11.5059 93.2882 10.2969 95.0207 10.3357H96.5605C98.4614 10.3306 100 8.78832 100 6.88739C99.9944 4.98983 98.458 3.45427 96.5605 3.44922Z" fill="#316900"/>
<path d="M50.048 13.7459C51.395 15.0929 51.395 17.2759 50.048 18.6229L28.1031 40.5677C26.757 41.9139 24.5732 41.9139 23.227 40.5677C21.8801 39.2207 21.8801 37.0378 23.227 35.6908L45.1719 13.7459C46.5181 12.3998 48.7019 12.3998 50.048 13.7459Z" fill="white"/>
<path d="M29.9762 17.4041C29.9762 19.784 28.0458 21.7144 25.6658 21.7144C23.285 21.7144 21.3555 19.784 21.3555 17.4041C21.3555 15.0233 23.285 13.0938 25.6658 13.0938C28.0458 13.0938 29.9762 15.0233 29.9762 17.4041Z" fill="white"/>
<path d="M50.7027 38.1307C50.7027 40.5106 48.7723 42.441 46.3924 42.441C44.0116 42.441 42.082 40.5106 42.082 38.1307C42.082 35.7499 44.0116 33.8203 46.3924 33.8203C48.7723 33.8203 50.7027 35.7499 50.7027 38.1307Z" fill="white"/>
<path d="M65.5171 25.8634C64.565 25.8634 63.793 25.0914 63.793 24.1392V20.6909C63.793 19.7388 64.565 18.9668 65.5171 18.9668C66.4692 18.9668 67.2412 19.7388 67.2412 20.6909V24.1392C67.2412 25.0914 66.4692 25.8634 65.5171 25.8634Z" fill="#0E1861"/>
<path d="M65.5171 36.2071C64.565 36.2071 63.793 35.4351 63.793 34.483V31.0347C63.793 30.0825 64.565 29.3105 65.5171 29.3105C66.4692 29.3105 67.2412 30.0825 67.2412 31.0347V34.483C67.2412 35.4351 66.4692 36.2071 65.5171 36.2071Z" fill="#0E1861"/>
<path d="M63.793 13.794C63.793 14.7462 64.565 15.5182 65.5171 15.5182C66.4692 15.5182 67.2412 14.7462 67.2412 13.794V3.44922H63.793V13.794Z" fill="#0E1861"/>
<path d="M67.2412 41.3804C67.2412 40.4282 66.4692 39.6562 65.5171 39.6562C64.565 39.6562 63.793 40.4282 63.793 41.3804V51.7252H67.2412V41.3804Z" fill="#0E1861"/>
<path d="M91.8037 81.2112C89.6056 77.3126 85.1665 75.2483 80.7694 76.0801C78.9283 76.4337 77.2201 77.2873 75.8327 78.5476L72.0401 69.3906C70.7597 69.9681 69.3327 70.1407 67.952 69.8856C67.1447 69.7131 66.3281 70.1374 66.0057 70.8976L65.6016 71.8699L73.0453 89.8185C75.118 95.0296 80.8881 97.7295 86.2171 95.9801C89.0845 94.9631 91.3576 92.7355 92.4343 89.8909C93.5102 87.0454 93.2795 83.8707 91.8037 81.2112ZM84.0763 89.4161C82.3168 90.146 80.2988 89.31 79.5698 87.5505C78.8407 85.7918 79.6767 83.7739 81.4362 83.0448C83.1957 82.3166 85.2128 83.1517 85.9418 84.9112C86.6701 86.6707 85.8349 88.687 84.0763 89.4161Z" fill="#FFDE66"/>
<path d="M59.1716 69.3922L65.6101 53.8506L64.7304 51.7266H49.8008L55.6096 65.7503C56.2857 67.3768 57.5611 68.6809 59.1716 69.3922Z" fill="#FFDD00"/>
<path d="M55.6092 65.7503C56.2853 67.3768 57.5607 68.6809 59.1712 69.3922L65.6097 53.8506L64.73 51.7266L55.0957 64.5094L55.6092 65.7503Z" fill="#FFBB00"/>
<path d="M76.5523 30.207C75.8636 30.207 75.2424 30.6221 74.978 31.2585L55.3819 78.5486C53.9945 77.2883 52.2864 76.4346 50.4452 76.0811C45.1356 75.0548 39.9312 78.2909 38.5034 83.5071C37.0764 88.7242 39.9076 94.1592 45.0009 95.9794C50.3308 97.7313 56.1043 95.0323 58.1786 89.8194L66.0164 70.8969C66.3304 70.1459 67.131 69.7216 67.9282 69.8849C71.1475 70.5079 74.3609 68.7779 75.6128 65.7463L85.0576 42.9436C86.2329 40.1015 85.9138 36.8611 84.2057 34.3035C82.4984 31.7468 79.6276 30.2096 76.5523 30.207ZM51.6525 87.5498C50.9234 89.3093 48.9063 90.1452 47.1468 89.4162C45.3873 88.6871 44.5522 86.67 45.2812 84.9105C46.0103 83.151 48.0274 82.3159 49.7869 83.045C51.5464 83.774 52.3815 85.7911 51.6525 87.5498Z" fill="#FFDE66"/>
<path d="M67.4483 62.0698C67.4483 63.022 66.6763 63.794 65.7241 63.794C64.772 63.794 64 63.022 64 62.0698C64 61.1177 64.772 60.3457 65.7241 60.3457C66.6763 60.3457 67.4483 61.1177 67.4483 62.0698Z" fill="#0E1861"/>
</svg>
