<svg xmlns="http://www.w3.org/2000/svg" width="80" height="80" fill="none" viewBox="0 0 80 80">
    <g clip-path="url(#prefix__clip0)">
        <path fill="#E9E9F0" d="M48.255 70.543c17.038-4.52 27.15-21.857 22.585-38.724C66.274 14.95 48.76 4.94 31.722 9.46 14.684 13.98 4.572 31.317 9.137 48.185c4.566 16.867 22.079 26.877 39.118 22.358z"/>
        <path fill="#fff" d="M66.25 14.858L4.546 31.224l9.186 33.942 61.703-16.367-9.187-33.941z"/>
        <path fill="#5555D9" d="M65.734 28.111c-1.32-2.803-.597-6.05 1.554-8.073 1.065-1.012 1.235-2.656.596-3.984l-3.215-6.83c-.83-1.75-2.939-2.53-4.706-1.708L2.044 34.266C.277 35.09-.51 37.177.32 38.927l3.236 6.85c.618 1.328 2.002 2.256 3.471 2.087 2.96-.337 5.92 1.202 7.24 4.005 1.32 2.804.596 6.05-1.554 8.074-1.065 1.011-1.236 2.656-.597 3.984l3.216 6.85c.83 1.75 2.938 2.53 4.706 1.708l57.897-26.75c1.767-.822 2.555-2.91 1.724-4.659l-3.215-6.85c-.617-1.329-2.001-2.256-3.47-2.087-2.96.337-5.92-1.202-7.24-4.027z"/>
        <path fill="#3AACD1" d="M67.414 32.727c-.81-2.993.468-6.07 2.938-7.694 1.235-.801 1.682-2.403 1.3-3.815l-1.96-7.273a3.548 3.548 0 00-4.344-2.487L3.64 27.815c-1.896.506-3.024 2.425-2.513 4.3l1.98 7.294c.383 1.413 1.576 2.572 3.045 2.656 2.96.169 5.622 2.193 6.43 5.207.81 2.993-.468 6.071-2.938 7.694-1.235.801-1.682 2.403-1.299 3.816l1.98 7.293a3.548 3.548 0 004.345 2.488l61.708-16.358c1.895-.506 3.024-2.424 2.513-4.3l-1.98-7.294c-.383-1.412-1.576-2.572-3.045-2.656-2.981-.21-5.643-2.235-6.452-5.228z"/>
        <path fill="#fff" d="M30.641 31.568c3.407-.907 6.005 1.075 6.92 4.469 1.108 4.09-.936 6.977-3.81 7.736-3.024.8-6.027-.843-7.028-4.532-.958-3.52.511-6.767 3.897-7.652l.021-.021zm.533 2.55c-1.384.359-1.555 2.108-1.022 4.11.532 2.067 1.66 3.353 3.002 2.994 1.32-.358 1.597-1.855 1-4.09-.532-2.002-1.511-3.393-2.938-3.014h-.042zm5.004 17.813l5.94-23.378 2.47-.653-5.898 23.356-2.512.675zm11.008-15.979c3.407-.906 6.005 1.075 6.9 4.427 1.107 4.09-.937 6.977-3.812 7.736-3.002.801-5.983-.822-6.984-4.51-.959-3.521.49-6.746 3.875-7.653h.021zm.554 2.551c-1.384.358-1.554 2.108-1.022 4.068.532 2.066 1.66 3.352 2.981 3.015 1.32-.359 1.597-1.855 1-4.069-.532-2.002-1.511-3.393-2.916-3.035l-.043.021z"/>
    </g>
    <defs>
        <clipPath id="prefix__clip0">
            <path fill="#fff" d="M0 0H80V80H0z"/>
        </clipPath>
    </defs>
</svg>
