<svg xmlns="http://www.w3.org/2000/svg" width="320" height="214" fill="none" viewBox="0 0 320 214">
    <path fill="#FFB800" d="M71.694 134.969c-1.54-1.949-3.322-3.777-4.294-6.093-1.337-3.209-.891-6.906.121-10.237 1.013-3.331 2.593-6.499 3.484-9.871 2.188-8.287-.08-17.63-5.833-23.967-1.296-1.422-2.714-2.68-3.767-4.265-2.43-3.656-2.471-8.45-1.823-12.796.648-4.387 1.904-8.693 1.62-13.12-.324-5.322-2.916-10.44-7.048-13.853-4.01-3.331-9.398-4.468-14.623-4.55h-.324c-5.226 0-10.613 1.138-14.664 4.388-4.132 3.33-6.805 8.449-7.17 13.77-.324 4.388.85 8.775 1.458 13.121.608 4.388.527 9.14-1.944 12.796-1.053 1.584-2.511 2.844-3.808 4.225-5.833 6.256-8.223 15.599-6.116 23.926.85 3.372 2.39 6.54 3.362 9.912.972 3.331 1.377 7.068 0 10.237-.972 2.275-2.795 4.103-4.375 6.052-5.793 7.15-8.264 17.955-3.24 25.714 1.984 3.087 4.982 5.443 8.1 7.434 4.821 3.087 10.087 5.606 15.718 6.824 2.47.529 4.982 1.016 7.453.407 1.661-.407 2.917-.163 4.659-.163 1.741.041 2.997-.203 4.658.244 2.47.65 5.023.203 7.494-.325 5.63-1.178 10.937-3.575 15.798-6.621 3.119-1.95 6.116-4.266 8.182-7.353 5.023-7.759 2.633-18.564-3.078-25.836z"/>
    <path fill="#FFDB9F" d="M65.335 127.454l-24.102 25.917-.85-50.94c3.645-4.834 18.066-24.13 18.066-24.13L40.3 97.8l-.526-30.954L52.818 49.42 39.694 63.515l-.365-21.733-.446 27.908-12.557-13.812s10.046 13.73 12.517 17.061l-.446 31.482-17.945-19.742s14.421 19.702 17.864 24.414l-.81 51.59L13 133.75s21.915 29.939 24.426 33.351l-.121 7.596 4.293.041-.243-15.274c4.659-6.215 23.98-32.01 23.98-32.01z"/>
    <path fill="#F99C00" d="M41.677 174.738h-4.334v8.328h4.334v-8.328z"/>
    <path fill="#262A71" d="M20.33 183.188h38.32l-7.17 30.344H27.622l-7.292-30.344z"/>
    <path fill="#F99C00" d="M58.65 180.872H20.33v2.315h38.32v-2.315z"/>
    <path fill="#000034" d="M221.248 208.82H104.221c-3.565 0-6.44-2.884-6.44-6.459v-77.913c0-3.574 2.875-6.459 6.44-6.459h117.027c3.564 0 6.44 2.885 6.44 6.459v77.954c0 3.534-2.876 6.418-6.44 6.418z"/>
    <path fill="#F99C00" d="M140.152 154.549c9.307 0 16.851-7.493 16.851-16.736 0-9.244-7.544-16.737-16.851-16.737-9.306 0-16.851 7.493-16.851 16.737 0 9.243 7.545 16.736 16.851 16.736z"/>
    <path fill="#FEC230" d="M140.152 151.868c7.808 0 14.137-6.293 14.137-14.055s-6.329-14.055-14.137-14.055c-7.808 0-14.137 6.293-14.137 14.055s6.329 14.055 14.137 14.055z"/>
    <path fill="#fff" d="M144.446 140.169c0 .569-.081 1.056-.284 1.503-.202.447-.486.853-.85 1.178-.365.325-.811.569-1.337.772-.527.203-1.094.325-1.742.366v2.112c0 .041-.041.081-.041.122-.04.04-.081.081-.121.081-.081.041-.162.041-.243.081-.122 0-.243.041-.405.041-.203 0-.365 0-.527-.041-.121 0-.243-.04-.283-.081-.081-.041-.122-.081-.162-.122-.041-.04-.041-.122 0-.203v-1.99c-.284-.041-.567-.082-.811-.163-.243-.081-.486-.122-.688-.203-.203-.081-.365-.163-.527-.244-.162-.081-.243-.162-.324-.244-.081-.081-.121-.203-.162-.324-.04-.163-.04-.366-.04-.65v-.529c0-.162.04-.243.081-.325.04-.081.081-.121.121-.162.041-.041.122-.041.162-.041.081 0 .203.041.365.163.162.081.364.203.648.325.243.122.567.244.932.325.364.081.81.162 1.296.162.769 0 1.337-.162 1.701-.447.365-.284.567-.649.567-1.137 0-.325-.081-.569-.243-.772-.162-.203-.364-.365-.648-.528-.283-.162-.567-.284-.932-.406-.324-.122-.688-.244-1.053-.406-.364-.122-.688-.285-1.053-.488-.324-.162-.648-.406-.932-.69-.283-.285-.486-.61-.648-.975-.162-.366-.243-.853-.243-1.381 0-.488.081-.935.243-1.341.162-.406.405-.772.729-1.056.324-.284.689-.528 1.135-.731.445-.203.972-.325 1.539-.366l-.041-1.868c0-.041.041-.082.041-.122.04-.041.081-.082.121-.082.081-.04.162-.04.243-.081h.406c.202 0 .364 0 .526.041.122 0 .243.04.324.081.081.041.122.081.122.122 0 .041.04.122.04.203l.041 1.747c.202.04.364.081.567.122.202.04.405.081.567.162.162.081.324.122.486.203.162.081.243.122.284.203.04.041.081.122.121.163.041.04.041.122.081.203.041.081.041.162.041.284v.894c0 .122-.041.244-.041.284-.04.082-.04.122-.081.122-.04.041-.081.041-.121.041-.081 0-.203-.041-.365-.122-.162-.081-.365-.163-.608-.284-.243-.082-.526-.204-.81-.285-.324-.081-.648-.122-1.012-.122-.325 0-.649.041-.892.082-.243.081-.445.162-.607.284-.162.122-.243.244-.324.406-.081.163-.122.325-.122.528 0 .325.081.569.243.772.162.203.365.406.648.528.284.122.567.285.932.406.365.122.689.244 1.053.407.365.121.729.284 1.053.487.365.163.649.406.932.65.284.284.486.569.648.975.203.406.284.853.284 1.381z"/>
    <path fill="#F99C00" d="M167.98 143.297c9.307 0 16.851-7.493 16.851-16.737 0-9.243-7.544-16.736-16.851-16.736-9.306 0-16.851 7.493-16.851 16.736 0 9.244 7.545 16.737 16.851 16.737z"/>
    <path fill="#FEC230" d="M167.979 140.615c7.808 0 14.137-6.292 14.137-14.055 0-7.762-6.329-14.055-14.137-14.055-7.808 0-14.137 6.293-14.137 14.055 0 7.763 6.329 14.055 14.137 14.055z"/>
    <path fill="#fff" d="M172.274 128.916c0 .569-.081 1.056-.284 1.503-.202.447-.486.853-.85 1.178-.365.325-.81.569-1.337.772-.527.203-1.094.325-1.742.366v2.112c0 .041-.04.081-.04.122-.041.04-.081.081-.122.081-.081.041-.162.041-.243.081-.121 0-.243.041-.405.041-.203 0-.365 0-.527-.041-.121 0-.243-.04-.283-.081-.081-.041-.122-.081-.162-.122-.041-.04-.041-.122 0-.203v-1.99c-.284-.041-.567-.082-.81-.163-.243-.081-.486-.122-.689-.203-.203-.081-.365-.162-.527-.244-.162-.081-.243-.162-.324-.243-.081-.082-.121-.204-.162-.325-.04-.163-.04-.366-.04-.65v-.528c0-.163.04-.244.081-.325.04-.082.081-.122.121-.163.041-.041.122-.041.162-.041.081 0 .203.041.365.163.162.081.365.203.648.325.243.122.567.244.932.325.364.081.81.162 1.296.162.77 0 1.337-.162 1.701-.446.365-.285.567-.65.567-1.138 0-.325-.081-.569-.243-.772-.162-.203-.364-.365-.648-.528-.283-.162-.567-.284-.931-.406-.324-.122-.689-.244-1.054-.406-.364-.122-.688-.285-1.053-.488-.324-.162-.648-.406-.931-.69-.284-.285-.487-.61-.649-.975-.162-.366-.243-.853-.243-1.381 0-.488.081-.935.243-1.341.162-.406.405-.772.73-1.056.324-.284.688-.528 1.134-.731.445-.203.972-.325 1.539-.366l-.04-1.868c0-.041.04-.082.04-.122.041-.041.081-.082.122-.082.081-.04.162-.04.243-.081h.405c.202 0 .364 0 .526.041.122 0 .243.04.324.081.081.041.122.081.122.122 0 .041.04.122.04.203l.041 1.747c.202.04.364.081.567.122.203.04.405.081.567.162.162.081.324.122.486.203.162.081.243.122.284.203.04.041.081.122.121.163.041.04.041.122.081.203 0 .081.041.162.041.284V122.376c0 .122-.041.244-.041.284-.04.082-.04.122-.081.122-.04.041-.081.041-.121.041-.081 0-.203-.041-.365-.122-.162-.081-.364-.163-.607-.284-.243-.082-.527-.203-.811-.285-.324-.081-.648-.122-1.012-.122-.324 0-.648.041-.891.082-.243.081-.446.162-.608.284-.162.122-.243.244-.324.406-.081.163-.122.325-.122.528 0 .325.081.569.243.772.162.203.365.406.649.528.283.122.567.285.931.406.365.122.689.244 1.053.407.365.122.73.284 1.054.487.364.163.648.406.931.65.284.284.486.569.648.975.203.366.284.853.284 1.381z"/>
    <path fill="#F99C00" d="M190.504 154.549c9.306 0 16.851-7.493 16.851-16.736 0-9.244-7.545-16.737-16.851-16.737-9.307 0-16.851 7.493-16.851 16.737 0 9.243 7.544 16.736 16.851 16.736z"/>
    <path fill="#FEC230" d="M190.505 151.868c7.807 0 14.137-6.293 14.137-14.055s-6.33-14.055-14.137-14.055c-7.808 0-14.138 6.293-14.138 14.055s6.33 14.055 14.138 14.055z"/>
    <path fill="#fff" d="M194.796 140.169c0 .569-.081 1.056-.283 1.503-.203.447-.486.853-.851 1.178-.364.325-.81.569-1.337.772-.526.203-1.093.325-1.741.366v2.112c0 .041-.041.081-.041.122-.04.04-.081.081-.121.081-.081.041-.162.041-.243.081-.122 0-.243.041-.405.041-.203 0-.365 0-.527-.041-.122 0-.243-.04-.284-.081-.081-.041-.121-.081-.162-.122-.04-.04-.04-.122 0-.203v-1.99c-.283-.041-.567-.082-.81-.163-.243-.081-.486-.122-.688-.203-.203-.081-.365-.163-.527-.244-.162-.081-.243-.162-.324-.244-.081-.081-.122-.203-.162-.324-.041-.163-.041-.366-.041-.65v-.529c0-.162.041-.243.081-.325.041-.081.081-.121.122-.162.04-.041.121-.041.162-.041.081 0 .202.041.364.163.163.081.365.203.649.325.243.122.567.244.931.325.365.081.81.162 1.297.162.769 0 1.336-.162 1.701-.447.364-.284.567-.649.567-1.137 0-.325-.081-.569-.243-.772-.162-.203-.365-.365-.648-.528-.284-.162-.567-.284-.932-.406-.324-.122-.689-.244-1.053-.406-.365-.122-.689-.285-1.053-.488-.324-.162-.648-.406-.932-.69-.284-.285-.486-.61-.648-.975-.162-.366-.243-.853-.243-1.381 0-.488.081-.935.243-1.341.162-.406.405-.772.729-1.056.324-.284.689-.528 1.134-.731.446-.203.972-.325 1.54-.366l-.041-1.868c0-.041.041-.082.041-.122.04-.041.081-.082.121-.082.081-.04.162-.04.243-.081h.405c.203 0 .365 0 .527.041.121 0 .243.04.324.081.081.041.121.081.121.122 0 .041.041.122.041.203l.04 1.747c.203.04.365.081.568.122.202.04.405.081.567.162.162.081.324.122.486.203.162.081.243.122.283.203.041.041.081.122.122.163.04.04.04.122.081.203 0 .081.04.162.04.284v.894c0 .122-.04.244-.04.284-.041.082-.041.122-.081.122-.041.041-.081.041-.122.041-.081 0-.202-.041-.364-.122-.162-.081-.365-.163-.608-.284-.243-.122-.527-.204-.81-.285-.284-.081-.648-.122-1.013-.122-.324 0-.648.041-.891.082-.243.081-.446.162-.608.284-.162.122-.243.244-.324.406-.081.163-.121.325-.121.528 0 .325.081.569.243.772.162.203.364.406.648.528.284.163.567.285.932.406.364.122.688.244 1.053.407.364.121.729.284 1.053.487.365.163.648.406.932.65.283.284.486.569.648.975.202.406.283.853.283 1.381z"/>
    <path fill="#5555D9" d="M218.817 203.661h-108.56c-1.661 0-2.998-1.341-2.998-3.006v-57.968c0-1.665 1.337-3.006 2.998-3.006h108.56c1.661 0 2.997 1.341 2.997 3.006v57.968c0 1.665-1.336 3.006-2.997 3.006z"/>
    <path fill="#262350" d="M154.734 199.274h-58.29c-2.714 0-4.942-2.235-4.942-4.956v-16.209c0-2.721 2.228-4.955 4.942-4.955h58.29c2.714 0 4.942 2.234 4.942 4.955v16.209c0 2.762-2.228 4.956-4.942 4.956z"/>
    <path fill="#F99C00" d="M153.6 194.155h-5.347c-.486 0-.85-.406-.85-.853v-13.446c0-.487.405-.853.85-.853h5.347c.486 0 .851.406.851.853v13.446c0 .488-.365.853-.851.853z"/>
    <path fill="#fff" d="M202.534 130.866l-2.309 1.26 2.309 1.259 1.256 2.315 1.255-2.315 2.309-1.259-2.309-1.26-1.255-2.315-1.256 2.315zM196.985 134.969l-1.337.731 1.337.732.729 1.299.729-1.299 1.296-.732-1.296-.731-.729-1.34-.729 1.34zM132.294 124.57l-2.268 1.259 2.268 1.259 1.256 2.316 1.255-2.316 2.309-1.259-2.309-1.259-1.255-2.275-1.256 2.275zM126.744 128.673l-1.337.731 1.337.731.729 1.341.729-1.341 1.337-.731-1.337-.731-.729-1.341-.729 1.341z"/>
    <path fill="#3AACD1" d="M270.828 150.73s-12.476 18.687-10.653 23.033c1.822 4.347 8.709 10.968 8.709 10.968l5.185-1.909s-4.659-7.637-4.294-9.181c.364-1.584 4.942-10.358 4.942-10.358l-3.889-12.553zM302.789 150.649s12.152 18.646 10.37 22.952c-1.823 4.306-8.385 10.805-8.385 10.805l-5.185-1.909s4.091-8.49 4.374-9.303c.487-1.543-4.982-10.155-4.982-10.155l3.808-12.39z"/>
    <path fill="#3AACD1" d="M302.952 151.015c-.932-1.869-12.801-4.347-12.801-4.347s-1.944 2.316-2.187 2.316c-.162 0-.81 2.64-1.175 4.143-.364-1.544-1.053-4.143-1.215-4.143-.243 0-2.228-1.991-2.228-1.991s-11.868 2.234-12.76 4.103c-.891 1.869 1.378 40.581 2.674 41.313 1.296.771 7.089 2.193 8.911 3.168 1.54.813 3.93.284 4.699.081.77.203 2.35-.487 3.889-1.3 1.823-.975 8.264-2.437 9.56-3.209 1.296-.772 3.565-38.306 2.633-40.134z"/>
    <path fill="#262A71" d="M265.522 183.025s-6.522-2.722-9.762-1.34c-3.241 1.381-5.671 6.946-2.309 10.317 3.362 3.372 31.11 13.568 33.54 14.299 2.43.732 8.426.65 8.426.65l1.296-5.037c-.041.081-21.105-14.502-31.191-18.889z"/>
    <path fill="#262A71" d="M306.312 183.025s6.522-2.722 9.763-1.34c3.24 1.381 5.671 6.946 2.309 10.317-3.362 3.372-31.11 13.568-33.541 14.299-2.43.732-8.425.65-8.425.65l-1.296-5.037c.04.081 21.104-14.502 31.19-18.889z"/>
    <path fill="#161B49" d="M265.846 198.989s-1.175-.934-2.188-.934c-1.012 0-1.66 1.178-2.187 2.844-.527 1.665-.77 6.824-.121 7.352.648.528 3.078.163 3.078.163l1.418-9.425z"/>
    <path fill="#161B49" d="M276.296 206.504s-6.724-.244-8.223.325c-1.499.609-3.808 2.316-4.375 1.056-.567-1.259-.04-9.952 2.147-8.937 1.175.569 2.957 1.3 4.578 2.031 1.62.732 4.698.975 4.698.975l1.175 4.55zM305.869 198.989s1.174-.934 2.187-.934 1.661 1.178 2.188 2.843c.526 1.666.769 6.825.121 7.353-.648.528-3.079.162-3.079.162l-1.417-9.424z"/>
    <path fill="#161B49" d="M295.417 206.504s6.725-.244 8.224.325c1.498.609 3.807 2.316 4.374 1.056.568-1.259.041-9.952-2.147-8.937-1.174.569-2.957 1.3-4.577 2.031-1.62.732-4.699.975-4.699.975l-1.175 4.55z"/>
    <path fill="#F2F2F2" d="M304.652 191.068h-37.834c-.769 0-1.377-.569-1.417-1.3l-1.337-20.189c-.041-.812.607-1.503 1.418-1.503h40.467c.81 0 1.498.691 1.417 1.503l-1.296 20.189c-.04.731-.689 1.3-1.418 1.3z"/>
    <path fill="#F27677" d="M295.213 141.225c-.041-.244-.122-.488-.324-.569-.081-.041-.162-.041-.243-.041-.405 0-.77.325-1.054.569v-.691c.162-3.452-6.724-3.249-6.805-3.249-.04 0-6.967-.203-6.805 3.249v.691c-.284-.244-.689-.569-1.053-.569-.081 0-.162 0-.243.041-.203.081-.284.366-.324.569-.122.771-.163 1.543.04 2.274.162.732.527 1.463 1.094 1.991.202.162.445.325.688.406.081.935.203 1.788.324 2.194.527 1.462 3.565 4.793 6.239 4.915 2.714-.122 5.752-3.412 6.238-4.915.162-.447.243-1.259.324-2.194.243-.081.486-.244.688-.406.568-.528.932-1.219 1.094-1.991.243-.731.243-1.503.122-2.274z"/>
    <path fill="#161B49" d="M294.972 140.818c.121-.609.121-1.381.202-1.99.081-.65.162-1.3.041-1.909-.081-.447-.284-.853-.446-1.26-.445-.934-.891-1.909-1.66-2.599-1.135-1.016-2.714-1.381-4.213-1.544-2.714-.284-5.469-.122-8.102-.772-.729-.162-1.377-.731-1.985-1.218-.364-.285-.81-.65-1.255-.529-.405.122-.608.61-.608 1.016-.04 1.016.486 1.909.689 2.884.121.569.121 1.138.243 1.706.121.569.405 1.138.891 1.381-.365-.203-.729-.365-1.094-.568.122.772.446 1.503.932 2.112.121.163.243.447.081.528-.041.041-.122 0-.162.041-.081.04-.041.162 0 .244.405.893.851 1.746 1.337 2.559.162.284.04.487.364.447.284 0 .851-.204 1.013-.447.607-.894 1.337-1.828 2.43-1.991.486-.081.972.041 1.499.081.81.082 1.62.082 2.431-.04.607-.081 1.215-.244 1.822-.203.648.081 1.256.447 1.783.812.648.447 1.296.934 1.904 1.463.081.081.202.162.324.203.283.04.567-.122.769-.325.162-.203.648-.366.77-.082zM214.036 155.24s-6.683-7.556-5.104-9.709c1.58-2.112 4.983 2.072 8.548.894 3.524-1.178 5.103-4.834 8.142-2.072 3.038 2.762 6.845-2.722 8.79-.122 1.944 2.6-2.795 8.937-2.957 11.09-.203 2.234-17.419-.081-17.419-.081z"/>
    <path fill="#262350" d="M247.171 197.283c-1.053-9.668-8.426-30.304-14.016-36.966l-.081.163h-18.512s-7.777 22.748-9.154 29.816c-1.377 6.947.445 15.274 5.671 17.062 3.726 1.3 17.742.609 25.52 1.3.891-.122 1.822-.325 2.673-.65 3.484-1.219 8.669-4.144 7.899-10.725z"/>
    <path fill="#161B49" d="M205.448 190.297c1.094-5.444 5.915-20.189 8.102-26.648.648-1.869 2.39-3.128 4.375-3.128h15.19l.081-.163c-.081-.081-.162-.162-.202-.243-1.54-1.747-8.75-1.666-10.087-1.625h-.243c-.405 0-1.337-.041-2.511 0-2.674.081-6.522.406-7.616 1.625-5.63 6.377-13.165 27.419-14.258 37.209-.729 6.581 4.455 9.547 7.899 10.765 1.498.528 3.038.772 4.577.772h23.94c.648 0 1.256-.041 1.904-.122-7.778-.69-21.793-.04-25.52-1.3-5.225-1.868-7.008-10.196-5.631-17.142z"/>
    <path fill="#FFB800" d="M231.091 155.036H214.361c-.567 0-1.053.569-1.053 1.3v1.788c0 .731.486 1.3 1.053 1.3H231.091c.567 0 1.053-.569 1.053-1.3v-1.788c0-.731-.486-1.3-1.053-1.3zM231.657 186.112c0 .934-.162 1.787-.486 2.559-.324.772-.81 1.422-1.417 1.95-.608.528-1.337.975-2.188 1.3-.85.325-1.823.528-2.876.609v3.494c0 .081-.04.162-.081.244-.04.081-.121.121-.202.162-.122.041-.243.081-.405.122-.162.041-.406.041-.689.041-.365 0-.648 0-.851-.041-.202-.041-.364-.081-.486-.122-.121-.041-.202-.122-.243-.244-.04-.081-.04-.203-.04-.325v-3.331c-.486-.081-.892-.162-1.337-.243-.405-.122-.81-.203-1.134-.325-.324-.122-.648-.244-.892-.366-.243-.122-.445-.244-.567-.366-.121-.121-.202-.324-.283-.568-.041-.244-.081-.61-.081-1.097 0-.366 0-.691.04-.934.041-.244.041-.407.122-.569.04-.122.121-.203.202-.284.081-.041.162-.082.284-.082.121 0 .364.082.608.244.283.163.607.325 1.053.528.405.203.931.366 1.539.528.608.163 1.296.244 2.147.244 1.256 0 2.228-.244 2.835-.731.608-.488.932-1.097.932-1.909 0-.529-.121-.975-.405-1.3-.284-.325-.608-.65-1.053-.894-.446-.244-.932-.487-1.499-.691-.567-.203-1.134-.406-1.742-.65-.607-.243-1.174-.487-1.742-.812-.567-.325-1.053-.691-1.498-1.137-.446-.447-.811-.975-1.054-1.625-.283-.65-.405-1.422-.405-2.316 0-.812.122-1.584.405-2.234.284-.691.649-1.259 1.175-1.747.527-.487 1.134-.893 1.904-1.218.729-.325 1.58-.528 2.552-.65l-.081-3.128c0-.081.04-.163.081-.203.041-.041.122-.122.203-.163.121-.04.243-.081.405-.122.162-.04.405-.04.688-.04.324 0 .608 0 .851.04.243.041.405.082.526.122.122.041.203.122.244.244.04.081.04.203.04.325l.081 2.925c.324.04.608.122.972.162.324.081.648.163.932.285.283.121.567.203.81.325.243.121.405.203.486.324.081.082.162.204.203.285.04.081.081.203.121.325.041.122.041.284.041.487v.65c0 .325 0 .61-.041.853 0 .203-.04.366-.081.488-.04.122-.081.203-.162.244-.04.04-.121.04-.202.04-.122 0-.365-.081-.608-.203-.284-.122-.608-.284-1.013-.447-.405-.162-.85-.325-1.377-.447s-1.094-.203-1.701-.203c-.567 0-1.053.041-1.458.163-.406.122-.73.243-.973.447-.243.203-.445.446-.567.69-.121.284-.162.569-.162.894 0 .528.122.934.405 1.3.284.365.648.65 1.094.893.446.244.972.488 1.539.691.567.203 1.175.406 1.742.65s1.175.487 1.742.812c.567.285 1.094.691 1.539 1.097.446.406.81.975 1.094 1.625.283.731.445 1.462.445 2.356z"/>
    <path fill="#F6C5AE" d="M102.517 21.837l-1.215 2.803-.649 1.869-1.58-1.3-2.065 12.796 5.063.447.122-10.156s.283-3.534.283-4.021l.041-2.438z"/>
    <path fill="#000034" d="M116.451 26.63s-2.552-4.021-.608-7.718c1.944-3.696 3.605-2.68 5.631.163 2.066 2.843 9.843 4.346 10.977 8.45 1.134 4.102 2.309 11.292-9.924 16.614-6.279.852-7.373-5.688-7.373-5.688l1.499-11.74-.202-.08z"/>
    <path fill="#F6C5AE" d="M113.777 43.286l1.418 3.534 4.942 1.178 2.39-3.9-8.629-.69-.121-.122z"/>
    <path fill="#F6C5AE" d="M120.461 43.326c.324-.568.446-1.178.608-1.787.364-1.26 1.053-2.397 1.944-3.331.648-.69 1.377-1.219 2.025-1.91.649-.69 1.135-1.543 1.175-2.477.041-.935-.567-1.91-1.499-2.072-.972-.162-1.863.61-2.349 1.462-.486.854-.77 1.828-1.377 2.6.121-1.543.324-3.046.648-4.55 0-.04-.041-.04-.041-.08l-.04-.041c-.243-.04-.608-.082-.972-.203h-.041c-.486-.122-1.013-.325-1.296-.61-.648-.65-1.337-2.843-1.661-3.575-.121-.243-.284-.325-.446-.325-.405.163-.931.488-1.336.976-.405.487-.81 1.868-1.013 2.843l-2.673 3.778c-.203.284-.365.528-.446.853-.081.569.324 1.097.527 1.665.567 1.788-1.175 3.819-.365 5.525.608 1.219 2.147 1.462 3.484 1.584 1.377.122 2.754.244 4.091.406.607.041.729-.203 1.053-.73z"/>
    <path fill="#5F37F7" d="M102.517 46.82l-.284-14.38-4.942.69-2.268 14.42 7.494-.73z"/>
    <path fill="#F6C5AE" d="M99.804 196.918l.162 3.941c.364-.082 5.185-.772 5.185-.772l-.324-3.94-5.023.771z"/>
    <path fill="#3AACD1" d="M98.466 199.722s-10.37 7.352-10.613 7.474c-.08.041-.648.285-1.215.488-.891.365-1.418 1.218-1.296 2.112.04.325.08.569.162.609.121.163 21.631-3.249 21.631-3.249s-.527-6.987-1.701-7.109c-1.175-.122-4.942 1.381-6.968-.325z"/>
    <path fill="#F6C5AE" d="M129.496 195.131l.324 3.94c.364-.081 5.144-1.015 5.144-1.015l-.486-3.9-4.982.975z"/>
    <path fill="#3AACD1" d="M128.321 197.934s-10.046 7.799-10.248 7.921c-.081.081-.608.285-1.175.569-.891.406-1.377 1.3-1.215 2.153.081.325.121.569.162.609.162.122 21.469-4.224 21.469-4.224s-.851-6.987-2.026-7.028c-1.174 0-4.861 1.665-6.967 0z"/>
    <path fill="#262350" d="M128.402 100.278l-28.234 6.703-8.264 32.782 7.008 58.699 8.142-.569v-57.155l3.079-7.718.972 8.855 18.228 55.246 7.94-1.137-10.856-56.059 1.985-39.647z"/>
    <path fill="#5555D9" d="M128.402 106.128s1.134-53.5-4.902-59.024c-3.726-3.412-17.256 3.29-30.988-2.803-1.174-2.518-3.848-14.42-3.848-14.42l-4.415.487s.526 16.858.526 19.783c0 2.925 20.578 8.774 20.578 8.774l-5.185 48.056 28.234-.853z"/>
    <path fill="#161B49" d="M72.836 9.308l10.33 5.35-3.421 6.641-10.33-5.35 3.42-6.641zM84.268 15.22l10.33 5.35-2.621 5.09-10.33-5.35 2.621-5.09zM110.375 31.018L93.848 24.72l1.823-3.574 15.636 8.124-.932 1.747z"/>
    <path fill="#262A71" d="M76.29 2.61l10.33 5.351-3.457 6.713-10.33-5.35 3.458-6.713zM86.919 10.063l10.33 5.35-2.659 5.161-10.33-5.35 2.659-5.161zM112.116 27.687l-.81 1.584-15.636-8.124 1.864-3.615 14.582 10.155z"/>
    <path fill="#5F37F7" d="M76.435 1.454L68.758 16.36l-2.807-1.454L73.628 0l2.807 1.454zM114.101 28.297l-2.138 4.15-1.332-.689 2.138-4.15 1.332.69zM98.818 15.838l-5.725 11.116-1.98-1.025 5.726-11.117 1.98 1.026zM88.25 8.285l-7.267 14.112-1.98-1.025L86.271 7.26l1.98 1.025z"/>
    <path fill="#F6C5AE" d="M84.654 32.4s-.04-2.682-.527-4.063c-.567-1.544-1.499-3.453-.567-5.768.931-2.316 4.982-4.387 5.225-3.331.243 1.056-1.255 4.143-.202 4.265.607.081 2.106-.894 1.742.325-.365 1.219-2.147 3.859-1.985 5.159.162 1.3.121.934.121.934L84.654 32.4zM103.732 20.578c.284.366-.04 1.097-.04 1.137v.041l-1.296-.894.04-.04s.972-.65 1.296-.244zM102.152 19.684c.162.244-.04.934-.04.975v.04l-.446-.284c-.162.082-.972.57-1.499.488-.283-.04-.445-.284-.486-.65 0-.163.04-.284.162-.366.122-.08.324-.203.567-.325l-.202-.122c-.162.082-.972.57-1.499.488-.405-.081-.486-.488-.486-.731 0-.122.04-.203.121-.244.122-.081.365-.203.608-.366l-.243-.162c-.121.081-.689.406-1.053.325-.203-.04-.324-.203-.365-.488 0-.04 0-.121.04-.162 0-.04.041-.04.082-.081.162-.081.445-.285.689-.406.364-.204.85.08.972.243.08.122.04.447 0 .61.08-.041.202-.122.283-.163.486-.284 1.175.122 1.337.366.081.122.081.447.04.69.041 0 .081-.04.081-.04.487-.285 1.175.122 1.337.365z"/>
</svg>
