<svg xmlns="http://www.w3.org/2000/svg" width="200" height="175" fill="none" viewBox="0 0 200 175">
    <path fill="#8788C2" d="M99.767 161.241c37.566 0 68.02-30.705 68.02-68.58 0-37.876-30.454-68.58-68.02-68.58-37.567 0-68.021 30.704-68.021 68.58 0 37.875 30.454 68.58 68.02 68.58z"/>
    <path fill="#4B55A1" d="M146.822 109.062l-49.35 29.282-49.242-29.282v-.11c0-.22 2.73-2.532 6.879-5.834l.109-.11C68.866 91.89 97.472 69.103 97.472 69.103s28.714 22.787 42.253 34.015c4.258 3.413 7.097 5.724 7.097 5.944z"/>
    <path fill="#fff" d="M117.778 44.775H64.606c-4.585 0-8.297 3.743-8.297 8.366v81.129c0 4.624 3.712 8.366 8.297 8.366h66.711c4.585 0 8.298-3.742 8.298-8.366V66.681l-21.837-21.906z"/>
    <path fill="#FFB800" d="M98.001 72.42c-4.595 0-8.333 3.743-8.333 8.343v5.006H88c-.884 0-1.732.352-2.357.978-.625.626-.976 1.474-.976 2.36v13.349c0 .885.351 1.734.976 2.36.625.626 1.473.977 2.357.977h20c.884 0 1.732-.351 2.357-.977.625-.626.976-1.475.976-2.36v-13.35c0-.885-.351-1.733-.976-2.36-.625-.625-1.473-.977-2.357-.977h-1.667v-5.006c0-4.6-3.738-8.343-8.333-8.343zm-5 8.343c0-2.76 2.243-5.006 5-5.006s5 2.246 5 5.006v5.006h-10v-5.006zm6.667 17.893v3.8h-3.334v-3.8c-.582-.334-1.05-.837-1.341-1.443-.292-.605-.393-1.285-.29-1.95.102-.664.403-1.282.863-1.771.46-.49 1.057-.829 1.713-.971.488-.108.993-.105 1.48.008.485.114.94.336 1.329.648.389.313.703.71.919 1.16.215.451.327.944.327 1.444-.001.584-.155 1.157-.448 1.661-.292.505-.713.924-1.218 1.214z"/>
    <path fill="#E6E8E8" d="M117.777 58.315c0 4.623 3.712 8.366 8.298 8.366h13.429l-21.727-21.906v13.54z"/>
    <path fill="#434391" d="M146.822 109.062v47.665c0 3.302-2.73 6.054-6.005 6.054H54.235c-3.275 0-6.005-2.752-6.005-6.054v-47.665l49.35 29.282 49.242-29.282z"/>
    <path fill="#4B55A1" d="M145.187 161.02l-31.772-32.033-15.94 9.467-15.941-9.467-31.772 32.033c1.091 1.211 2.62 1.872 4.367 1.872h86.691c1.747 0 3.275-.771 4.367-1.872z"/>
    <path fill="#8788C2" fill-rule="evenodd" d="M104.46 2.284l-1.419 1.431 1.419 1.431c.546.55.546 1.321 0 1.872-.546.55-1.31.55-1.856 0l-1.419-1.431-1.31 1.43c-.546.551-1.31.551-1.857 0-.546-.55-.546-1.32 0-1.87l1.42-1.432-1.529-1.43c-.546-.551-.546-1.322 0-1.872s1.31-.55 1.856 0l1.42 1.43 1.419-1.43c.546-.55 1.31-.55 1.856 0s.546 1.32 0 1.871zm24.02 11.778c0-2.091 1.747-3.852 3.822-3.852 2.183 0 3.821 1.76 3.821 3.852 0 2.092-1.747 3.853-3.821 3.853-2.075 0-3.822-1.761-3.822-3.853zm2.293.11c0 .881.655 1.541 1.529 1.541.873 0 1.528-.77 1.528-1.54 0-.881-.655-1.542-1.528-1.542-.874 0-1.529.66-1.529 1.541zm65.619 54.82c-1.966 0-3.603 1.651-3.603 3.633 0 1.981 1.637 3.632 3.603 3.632 1.965 0 3.603-1.651 3.603-3.632.109-1.982-1.529-3.633-3.603-3.633zm0 5.174c-.765 0-1.529-.66-1.529-1.541 0-.771.655-1.541 1.529-1.541.764 0 1.528.66 1.528 1.54 0 .771-.655 1.542-1.528 1.542zm-171.091 54.71c0-2.642 2.183-4.843 4.804-4.843 2.62 0 4.695 2.201 4.804 4.843 0 2.642-2.184 4.844-4.804 4.844s-4.804-2.202-4.804-4.844zm2.839-.11c0 1.101.873 1.981 1.965 1.981.982 0 1.856-.88 1.965-1.981 0-1.101-.873-1.981-1.965-1.981s-1.965.88-1.965 1.981zm124.578 19.484c0-2.642 2.184-4.844 4.804-4.844 2.621 0 4.804 2.202 4.804 4.844 0 2.642-2.183 4.843-4.804 4.843-2.62 0-4.804-2.201-4.804-4.843zm2.839 0c0 1.101.874 1.981 1.965 1.981 1.092 0 1.966-.88 1.966-1.981s-.874-1.981-1.966-1.981c-1.091 0-1.965.88-1.965 1.981zM9.145 108.841c2.231 0 4.04-1.824 4.04-4.073 0-2.249-1.809-4.073-4.04-4.073-2.23 0-4.04 1.824-4.04 4.073 0 2.249 1.81 4.073 4.04 4.073zm165.407 8.367c0 1.641-1.32 2.972-2.948 2.972s-2.948-1.331-2.948-2.972c0-1.642 1.32-2.972 2.948-2.972s2.948 1.33 2.948 2.972zM74.11 20.117c2.351 0 4.258-1.922 4.258-4.293 0-2.371-1.907-4.294-4.258-4.294-2.352 0-4.259 1.923-4.259 4.294 0 2.37 1.907 4.293 4.258 4.293zm26.203 151.691c0 1.763-1.418 3.192-3.166 3.192-1.75 0-3.167-1.429-3.167-3.192 0-1.763 1.418-3.193 3.167-3.193 1.748 0 3.166 1.43 3.166 3.193zm57.54-136.17c2.05 0 3.712-1.675 3.712-3.742s-1.662-3.743-3.712-3.743c-2.051 0-3.713 1.676-3.713 3.743s1.662 3.742 3.713 3.742zM29.45 59.086c0 1.155-.93 2.091-2.075 2.091s-2.074-.936-2.074-2.091c0-1.155.929-2.092 2.074-2.092 1.146 0 2.075.937 2.075 2.092zM7.176 74.166c1.266 0 2.292-1.034 2.292-2.31 0-1.278-1.026-2.313-2.292-2.313-1.267 0-2.293 1.035-2.293 2.312s1.026 2.312 2.293 2.312zM5.54 47.418l1.42-1.431c.545-.55.545-1.321 0-1.871-.547-.55-1.31-.55-1.857 0l-1.42 1.43-1.418-1.43c-.546-.55-1.31-.55-1.857 0-.545.55-.545 1.32 0 1.871l1.529 1.431-1.42 1.431c-.545.55-.545 1.321 0 1.871.547.55 1.31.55 1.857 0l1.42-1.43 1.418 1.43c.546.55 1.31.55 1.857 0 .545-.55.545-1.32 0-1.87L5.54 47.416zm170.105 86.963l-1.201 1.211 1.201 1.211c.436.44.436 1.101 0 1.541-.437.44-1.092.44-1.529 0l-1.201-1.211-1.201 1.211c-.437.44-1.092.44-1.528 0-.437-.44-.437-1.101 0-1.541l1.201-1.211-1.201-1.211c-.437-.44-.437-1.101 0-1.541.436-.44 1.091-.44 1.528 0l1.201 1.211 1.201-1.211c.437-.44 1.092-.44 1.529 0 .436.44.436 1.101 0 1.541z" clip-rule="evenodd"/>
</svg>
