<svg xmlns="http://www.w3.org/2000/svg" width="40" height="40" fill="none" viewBox="0 0 40 40">
    <path fill="#EE762F" d="M33.334 20c0-3.536-1.405-6.928-3.905-9.428-2.5-2.5-5.892-3.905-9.428-3.905-3.537 0-6.928 1.404-9.428 3.905-2.5 2.5-3.906 5.892-3.906 9.428 0 3.536 1.405 6.927 3.906 9.428 2.5 2.5 5.891 3.905 9.428 3.905 3.536 0 6.927-1.404 9.428-3.905 2.5-2.5 3.905-5.892 3.905-9.428zm3.333 0c0 4.42-1.756 8.66-4.881 11.785C28.66 34.911 24.42 36.667 20 36.667c-2.189 0-4.356-.431-6.378-1.27-2.022-.837-3.86-2.064-5.407-3.612C5.09 28.659 3.334 24.42 3.334 20S5.09 11.34 8.216 8.215C11.34 5.089 15.58 3.333 20 3.333c2.188 0 4.356.431 6.378 1.269 2.022.837 3.86 2.065 5.407 3.613 1.547 1.547 2.775 3.385 3.613 5.407.837 2.022 1.268 4.19 1.268 6.378zm-20-4.167c0 1.334-1.166 2.5-2.5 2.5-1.333 0-2.5-1.166-2.5-2.5 0-1.333 1.167-2.5 2.5-2.5 1.334 0 2.5 1.167 2.5 2.5zm11.667 0c0 1.334-1.167 2.5-2.5 2.5s-2.5-1.166-2.5-2.5c0-1.333 1.167-2.5 2.5-2.5s2.5 1.167 2.5 2.5zm-8.333 12.884c-2.917 0-5.484-1.217-6.984-3.017l2.367-2.367c.75 1.2 2.533 2.05 4.617 2.05 2.083 0 3.866-.85 4.616-2.05l2.367 2.367c-1.5 1.8-4.067 3.017-6.983 3.017z"/>
</svg>
