<svg xmlns="http://www.w3.org/2000/svg" width="40" height="40" fill="none" viewBox="0 0 40 40">
    <path fill="#13BC4A" d="M20 3.333c-9.216 0-16.666 7.45-16.666 16.667 0 9.217 7.45 16.667 16.667 16.667 4.42 0 8.66-1.756 11.785-4.882C34.91 28.659 36.667 24.42 36.667 20c0-9.217-7.5-16.667-16.666-16.667zm0 30c-3.536 0-6.927-1.404-9.427-3.905-2.5-2.5-3.906-5.892-3.906-9.428 0-3.536 1.405-6.928 3.906-9.428 2.5-2.5 5.891-3.905 9.428-3.905 3.536 0 6.927 1.404 9.428 3.905 2.5 2.5 3.905 5.892 3.905 9.428 0 3.536-1.405 6.927-3.905 9.428-2.5 2.5-5.892 3.905-9.428 3.905zm1.667-16.766l1.767 1.766 1.767-1.766 1.766 1.766 1.767-1.766-3.533-3.534-3.534 3.534zm-6.866 0l1.766 1.766 1.767-1.766-3.533-3.534-3.534 3.534 1.767 1.766 1.767-1.766zm5.2 12.6c3.883 0 7.183-2.434 8.516-5.834H11.484c1.333 3.4 4.633 5.834 8.517 5.834z"/>
</svg>
