<svg xmlns="http://www.w3.org/2000/svg" width="33" height="24" fill="none" viewBox="0 0 33 24">
    <path fill="#3AACD1" fill-rule="evenodd" d="M32.408 17.225a.645.645 0 0 1 .34.574.681.681 0 0 1-.345.588l-2.643 1.496a.666.666 0 0 1-.558.048l-13.04-4.8-5.43 2.977c.158 2.115-.95 4.167-2.86 5.215a5.387 5.387 0 0 1-3.372.623 5.271 5.271 0 0 1-2.97-1.476 5.203 5.203 0 0 1-.914-1.236c-1.378-2.59-.366-5.868 2.257-7.306 1.833-1.006 4.03-.875 5.668.285l1.873-2.271-1.821-2.228c-1.666 1.197-3.866 1.378-5.677.415a5.184 5.184 0 0 1-1.233-.912C.066 7.6-.352 5.024.827 2.873 2.265.25 5.542-.762 8.133.616c1.887 1.004 2.948 3.031 2.74 5.15l5.364 2.854L29.39 3.52a.66.66 0 0 1 .557.035l2.608 1.436c.21.116.338.338.333.58a.681.681 0 0 1-.354.582l-10.311 5.654 10.184 5.419zm-20.817-6.71a.684.684 0 0 1 .28-.202l2.718-1.054-4.757-2.53a.648.648 0 0 1-.33-.696C9.828 4.31 9.02 2.603 7.49 1.79 5.538.75 3.07 1.514 1.986 3.49.903 5.464 1.609 7.916 3.56 8.954c1.52.81 3.406.547 4.69-.653a.676.676 0 0 1 .498-.182c.183.01.351.095.466.235l2.07 2.533.307-.372zM9.71 17.17a.679.679 0 0 0-.345.703c.286 1.717-.562 3.442-2.11 4.291-1.573.862-3.538.598-4.778-.642a3.925 3.925 0 0 1-.688-.932c-1.039-1.951-.276-4.42 1.7-5.503 1.54-.845 3.419-.625 4.676.545a.65.65 0 0 0 .494.17.674.674 0 0 0 .276-.083.717.717 0 0 0 .061-.024l1.921-2.305 1.574-1.907 17.063-6.617 1.295.713L9.712 17.17zm8.004-2.891l11.683 4.301 1.311-.743-9.888-5.261-3.107 1.703zM7.154 3.641c.433.434.668 1.013.66 1.633a2.359 2.359 0 0 1-.698 1.648 2.359 2.359 0 0 1-1.648.698 2.252 2.252 0 0 1-2.293-2.293c.007-.62.255-1.205.698-1.648a2.358 2.358 0 0 1 1.649-.698c.62-.007 1.199.227 1.632.66zm-2.37 2.37a.965.965 0 0 0 .7.284c.265-.003.516-.11.706-.3.19-.19.296-.44.299-.706a.965.965 0 0 0-.983-.983 1.01 1.01 0 0 0-.706.3c-.19.19-.296.44-.3.706a.965.965 0 0 0 .284.7zm3.095 12.553a2.252 2.252 0 0 0-2.293-2.293 2.358 2.358 0 0 0-1.648.698 2.359 2.359 0 0 0-.699 1.648 2.252 2.252 0 0 0 2.293 2.293 2.388 2.388 0 0 0 2.347-2.346zm-2.331 1.02a.966.966 0 0 1-.983-.982c.003-.266.11-.517.299-.707.19-.19.44-.296.706-.299a.965.965 0 0 1 .983.983c-.006.548-.457 1-1.005 1.005z" clip-rule="evenodd"/>
</svg>
