<svg xmlns="http://www.w3.org/2000/svg" width="24" height="24" fill="none" viewBox="0 0 24 24">
    <path fill="#FF5D24" fill-rule="evenodd" d="M21.745 9.387c.06.226.522.566.891.838C23.276 10.695 24 11.23 24 12s-.724 1.304-1.363 1.774c-.37.272-.83.612-.89.838-.067.246.168.789.358 1.224l.001.002c.324.748.66 1.52.287 2.163-.377.653-1.223.748-2.04.84h-.004c-.465.052-1.043.117-1.217.291-.173.174-.238.753-.29 1.22-.092.818-.187 1.663-.841 2.041-.563.327-1.403.04-2.164-.289-.418-.182-.85-.37-1.131-.37-.318.071-.655.528-.928.898l-.004.005C13.304 23.276 12.769 24 12 24c-.77 0-1.303-.723-1.773-1.362l-.01-.014c-.272-.367-.606-.818-.829-.878-.379-.007-.807.178-1.225.359-.758.33-1.6.617-2.164.288-.653-.378-.748-1.223-.84-2.04v-.003c-.053-.465-.117-1.043-.291-1.217-.173-.174-.752-.239-1.218-.29h-.002c-.817-.093-1.663-.189-2.04-.84-.374-.645-.038-1.419.288-2.166.19-.435.425-.977.359-1.224-.06-.226-.522-.566-.891-.838C.724 13.305 0 12.77 0 12s.724-1.304 1.363-1.774c.37-.272.83-.612.89-.838.068-.247-.168-.79-.358-1.225l-.001-.002c-.324-.747-.66-1.52-.287-2.163.377-.652 1.223-.748 2.041-.84.465-.051 1.046-.117 1.22-.29.173-.174.238-.753.29-1.22.092-.818.187-1.663.841-2.041.563-.327 1.406-.042 2.164.288.418.182.85.37 1.131.37.318-.07.656-.527.928-.897l.004-.005C10.696.724 11.231 0 12 0c.77 0 1.303.724 1.773 1.363l.01.013c.271.367.605.818.828.878.371-.004.807-.177 1.225-.359.756-.33 1.597-.618 2.165-.288.653.378.748 1.223.84 2.04v.003c.052.465.117 1.043.291 1.217.173.174.752.239 1.218.29h.002c.817.093 1.663.189 2.04.84.374.645.038 1.419-.288 2.166-.19.435-.425.977-.359 1.224zM9.507 16.623c.592.488 1.268.79 2.027.904v1.356h1.35V17.51a4.435 4.435 0 0 0 1.086-.327c.349-.156.655-.363.918-.623s.473-.571.63-.935c.157-.364.235-.779.235-1.246 0-.416-.066-.782-.197-1.099a2.564 2.564 0 0 0-.577-.85 4.2 4.2 0 0 0-.91-.67c-.355-.196-.75-.389-1.185-.576V8.396c.264.115.47.265.623.452.152.187.263.385.334.592l1.7-.779a3.548 3.548 0 0 0-.304-.67 2.787 2.787 0 0 0-.524-.646 3.381 3.381 0 0 0-1.829-.865V5.109h-1.35v1.34a3.725 3.725 0 0 0-1.2.335 3.1 3.1 0 0 0-.903.646 2.73 2.73 0 0 0-.569.888 2.853 2.853 0 0 0-.197 1.06c0 .405.073.771.22 1.098.147.328.344.621.592.88.248.26.536.489.865.686.329.198.68.37 1.055.515l.137.062v2.96a2.12 2.12 0 0 1-.987-.677 2.72 2.72 0 0 1-.562-1.114l-1.745.732c.253.914.675 1.615 1.267 2.103zm1.26-6.598a.958.958 0 0 1-.235-.647c0-.26.09-.483.273-.67a1.57 1.57 0 0 1 .729-.405v2.275c-.355-.187-.61-.372-.767-.553zm3.043 4.37c0-.27-.07-.493-.212-.67-.142-.176-.38-.353-.714-.53v2.384c.274-.093.496-.241.668-.444.172-.202.258-.449.258-.74z" clip-rule="evenodd"/>
</svg>
