<svg xmlns="http://www.w3.org/2000/svg" width="134" height="118" fill="none" viewBox="0 0 134 118">
    <g clip-path="url(#prefix__clip0)">
        <path fill="#D0D0FF" d="M46.944 76.161h-4.122v38.377h4.122V76.161z"/>
        <path fill="#A1A1F6" d="M46.944 76.161h-4.122v5.341h4.122v-5.34zM62.526 114.538H28.347c-1.307 0-2.312 1.088-2.312 2.275V118h38.903v-1.187c0-1.286-1.105-2.275-2.412-2.275z"/>
        <path fill="#D0D0FF" d="M35.183 76.161h28.248c-10.254-3.66-6.334-37.784-4.424-50.74.403-2.572-1.709-4.946-4.322-4.946H35.887c-3.82 0-7.138 2.77-7.64 6.528-1.609 11.77-4.222 36.2.904 45.696 1.106 2.176 3.519 3.462 6.032 3.462z"/>
        <path fill="#13BC4A" d="M21.612 39.268c0-3.66-2.614-7.32-5.83-7.32-3.217 0-5.83 3.66-5.83 7.32s2.613 6.627 5.83 6.627c3.216.098 5.83-2.869 5.83-6.627z"/>
        <path fill="#34648C" d="M15.781 31.948c-.502 0-1.005.1-1.508.297 2.514.89 4.323 3.956 4.323 7.023 0 3.066-1.81 5.638-4.323 6.429.503.099 1.006.198 1.508.198 3.217 0 5.83-2.968 5.83-6.627 0-3.66-2.613-7.32-5.83-7.32z" opacity=".25"/>
        <path fill="#D0D0FF" d="M9.047 43.62l1.005 9.396c.1 1.187 1.106 2.078 2.312 2.078h6.032c1.206 0 2.211-.89 2.312-2.078l1.005-9.396c.1-.495-.302-.99-.905-.99H9.952c-.503.1-.905.495-.905.99z"/>
        <path fill="#A1A1F6" d="M9.952 44.115H21.11c.302 0 .603.198.804.495l.1-.89c.101-.495-.301-.99-.904-.99H9.952c-.503 0-.905.495-.905.99l.1.89c.201-.297.402-.495.805-.495z"/>
        <path fill="#A1A1F6" d="M21.01 42.73h-3.82c.503 0 .905.495.905.99l-1.006 9.396c-.1 1.187-1.105 2.077-2.312 2.077h3.82c1.207 0 2.212-.89 2.312-2.077l1.006-9.396c.1-.594-.302-.99-.905-.99z"/>
        <path fill="#F2BF75" d="M69.765 108.801l-.402 2.77 2.111 2.572 5.228-2.473.603-2.572-6.635-.89-.905.593z"/>
        <path fill="#3AACD1" d="M73.988 117.605l.502-.693c.101-.098.302-.098.403 0l.502.594c.201.297.503.396.905.396l12.365-.198c.2-.198.301-.693 0-.89-1.81-1.781-11.56-4.946-12.064-5.144-.502-.297-3.417 1.978-7.438-.099 0 0-.603 3.067-.704 5.045 0 .791.603 1.483 1.407 1.483l3.117-.099c.502 0 .804-.197 1.005-.395z"/>
        <path fill="#434391" d="M47.047 63.006s-5.127 5.54 4.222 11.672c6.635 4.253 11.762 2.967 15.883 5.539 1.005.593 1.71 1.484 1.81 2.67l.2 26.113.503.198c2.514 1.186 5.429 1.285 7.942.098l3.82-29.772c.1-2.077-1.005-3.758-2.312-5.44-7.137-9-19.904-12.067-23.121-12.561-4.222-.693-8.947 1.483-8.947 1.483z"/>
        <path fill="#F2BF75" d="M49.258 108.801l-.403 2.77 2.112 2.671 5.327-2.572.604-2.473-6.635-.989-1.005.593z"/>
        <path fill="#3AACD1" d="M53.48 117.605l.602-.693c.1-.098.302-.098.402 0l.503.693c.201.297.503.395.905.395h12.364c.201-.197.302-.593 0-.89-1.81-1.78-11.46-5.044-11.962-5.341-.503-.297-3.518 1.978-7.439-.198 0 0-.704 3.067-.804 5.045 0 .791.603 1.483 1.407 1.483h3.116c.403-.099.704-.197.905-.494z"/>
        <path fill="#434391" d="M31.466 58.16s-6.233 6.825 2.814 14.54c6.333 5.44 11.963 3.066 15.883 6.429.905.79 1.609 1.78 1.508 2.967l-2.815 26.508.201.099c2.514 1.582 5.63 1.78 8.244.593l7.036-27.991c.402-2.176-.502-4.155-1.608-6.034-6.233-10.484-15.984-16.716-19.3-17.705-4.324-1.187-11.963.594-11.963.594z"/>
        <path fill="#262350" d="M65.744 79.425c-.503-.198-.905-.395-1.408-.494-.301-1.286-.904-2.473-1.608-3.66-3.116-5.143-7.037-9.298-10.656-12.265 2.212-.395 3.418-.89 4.021-1.483 1.207.197 3.72.79 6.735 1.78 3.016 5.044 3.016 13.254 2.916 16.122z"/>
        <path fill="#5555D9" d="M48.152 22.057s-8.947-1.187-12.666 5.737c-3.72 6.824-9.248 33.827-4.423 34.618 2.11.396 7.941 1.78 14.274 1.286 8.746-.593 10.656-1.385 11.26-3.066l5.628-25.024c.101-3.462-1.407-6.726-4.222-8.902-4.523-3.264-9.851-4.65-9.851-4.65z"/>
        <path fill="#434391" d="M62.125 33.432s.1 15.133 4.926 16.023c4.825.89 17.692.594 17.692.594v4.846H57.2l4.926-21.463z"/>
        <path fill="#DBB1A7" d="M55.49 26.508l1.105-5.341-7.037-5.242-1.307 6.33c-.1-.099 2.111 9.594 7.238 4.253z"/>
        <path fill="#262350" d="M64.437 10.978s-3.72 1.78-9.048-1.483c0 0-1.206 2.176-4.825 4.154 0 0-1.91-3.066-2.915-.792-.302.693-.503 1.385-.503 1.88-3.418-4.352-1.005-9.99 2.212-13.056 3.016-2.869 9.45-1.78 13.57-.1C67.252 3.264 68.057.297 68.057.297c5.227 7.616-3.62 10.682-3.62 10.682z"/>
        <path fill="#F8D8D0" d="M50.564 13.748s-1.91-3.066-2.915-.791c-1.307 2.868.2 4.55 1.91 4.55 0 0 1.407 7.32 8.243 6.825 6.836-.495 7.84-11.375 6.735-13.353 0 0-3.72 1.78-9.047-1.484-.1 0-1.307 2.275-4.926 4.253z"/>
        <path fill="#8788C2" d="M109.874 31.852H81.325c-1.407 0-2.614.99-2.915 2.374l-3.82 18.398h34.681l3.518-17.21c.403-1.88-1.005-3.562-2.915-3.562z"/>
        <path fill="#32337D" d="M109.17 52.524H61.923c-.804 0-1.407.594-1.407 1.385v.495c0 .791.603 1.384 1.407 1.384h47.247c.804 0 1.407-.593 1.407-1.384v-.495c0-.692-.704-1.385-1.407-1.385z"/>
        <path fill="#6162A8" d="M109.17 52.524H74.187c.805 0 1.408.594 1.408 1.385v.495c0 .791-.603 1.384-1.407 1.384h34.882c.804 0 1.407-.593 1.407-1.384v-.495c.101-.692-.603-1.385-1.307-1.385z"/>
        <path fill="#5555D9" d="M63.431 50.544c-5.529-.594-21.21-2.176-23.824-2.473-3.418-.297 3.92-13.749 4.724-18.299.805-4.55-2.714-4.747-2.714-4.747-2.01-.198-4.222 0-6.031 2.77-3.82 5.637-8.042 22.254-5.83 26.408.3.495.803.791 1.306.791h32.37v-4.45z"/>
        <path fill="#434391" d="M63.432 50.543s-20.105-1.385-24.428-1.978c-3.317-.396 3.619-14.145 4.423-18.793.804-4.65-2.815-4.352-2.815-4.352-.904-.1-2.211 0-3.116.296 1.307-.89 2.714-.89 4.122-.79 0 0 3.518.197 2.714 4.747-.804 4.55-7.138 17.705-5.026 18.2 2.613.79 18.496 2.076 24.126 2.67z"/>
        <path fill="#F2BF75" d="M63.432 54.994h7.539c.603 0 .905-.594.603-1.088-.703-1.088-1.81-2.572-2.614-2.77-.502-.197-4.121 0-5.428.1v3.758h-.1z"/>
        <path fill="#DBB1A7" d="M64.437 10.98s-.603.296-1.709.395c-.1.495-.301 1.484-.301 2.374-.1 1.286.502 5.341.1 5.341h-1.206s-.603 5.836-6.534 4.847h-.201c.905.296 1.91.494 3.116.395 6.936-.494 7.942-11.374 6.735-13.353z" opacity=".67"/>
        <path fill="#262350" d="M129.576 54.994H6.433c-1.407 0-2.513 1.088-2.513 2.473v.791c0 1.385 1.106 2.473 2.513 2.473h123.244c1.407 0 2.513-1.088 2.513-2.473v-.791c-.101-1.385-1.206-2.473-2.614-2.473z"/>
        <path fill="#4B55A1" d="M129.576 54.994H6.433c-1.407 0-2.513 1.088-2.513 2.473v.791c0 .297.1.495.1.791.302-.989 1.307-1.681 2.413-1.681h123.244c1.106 0 2.01.692 2.412 1.681.101-.197.101-.494.101-.79v-.792c-.101-1.385-1.206-2.473-2.614-2.473zM45.338 117.802h-4.122L12.566 60.73h4.122l28.65 57.072z"/>
        <path fill="#4B55A1" d="M0 117.802h4.122l28.65-57.072H28.65L0 117.803zM134 117.802h-4.122L101.229 60.73h4.121L134 117.803z"/>
        <path fill="#4B55A1" d="M88.664 117.802h4.122l28.649-57.072h-4.121l-28.65 57.072z"/>
        <path fill="#262350" d="M17.794 63.005l-1.106-2.275h-4.122l1.106 2.275h4.122zM31.665 63.005l1.105-2.275H28.65l-1.106 2.275h4.122zM106.556 63.005l-1.206-2.275h-4.121l1.206 2.275h4.121zM120.329 63.005l1.105-2.275h-4.121l-1.106 2.275h4.122z"/>
    </g>
    <defs>
        <clipPath id="prefix__clip0">
            <path fill="#fff" d="M0 0H134V118H0z"/>
        </clipPath>
    </defs>
</svg>
