<?xml version="1.0" encoding="utf-8"?>
<!-- Generator: Adobe Illustrator 23.0.2, SVG Export Plug-In . SVG Version: 6.00 Build 0)  -->
<svg version="1.1" id="Camada_1" xmlns="http://www.w3.org/2000/svg" xmlns:xlink="http://www.w3.org/1999/xlink" x="0px" y="0px"
	 viewBox="0 0 144.9 142.9" style="enable-background:new 0 0 144.9 142.9;" xml:space="preserve">
<style type="text/css">
	.st0{fill:#4e68cc;}
	.st1{fill:#4D559D;}
	.st2{fill:#0e1861;}
	.st3{fill:#FFFFFF;}
</style>
<g>
	<path class="st0" d="M72.5,2.3c38.4,0,69.5,31.1,69.5,69.5c0,38.4-31.1,69.5-69.5,69.5C34.1,141.3,3,110.2,3,71.8
		C3,33.4,34.1,2.3,72.5,2.3z M122.2,74.9c0-11.8-4.4-23.2-12.4-31.9c-16.4-20.3-46.1-23.4-66.4-7s-23.4,46.1-7,66.4
		c0.5,0.6,1,1.2,1.5,1.8c16.2,20.4,45.9,23.9,66.3,7.7C115.6,103,122.2,89.4,122.2,74.9L122.2,74.9z"/>
	<path class="st1" d="M120,72.4c-1.1-13.1-3.6-21-10.2-29.3c11.1,10.6,16,29.3,10.2,46.9c-5.8,17.6-20.4,29.2-37.2,32.2
		c-16.9,3-34-4.6-44.8-17.9c17.6,19.2,47.5,20.5,66.7,2.9C114.4,98.3,120,85.6,120,72.4L120,72.4z"/>
	<path class="st2" d="M109.8,43c16.2,19.9,13.6,49.1-6,65.8c-19.5,16.6-48.8,14.6-65.9-4.5c-17.6-19.7-14.5-49.9,4.9-66.4
		C62.1,21.4,91.8,22.7,109.8,43L109.8,43L109.8,43z M104.8,48.1c0-8.1-6.6-14.8-14.7-14.8c-8.1,0-14.8,6.6-14.8,14.7c0,0,0,0,0,0
		c0,8.1,6.6,14.8,14.8,14.7C98.2,62.8,104.8,56.2,104.8,48.1z"/>
	<path class="st2" d="M109.8,43c-17.1-19.2-46.3-21.2-65.9-4.5c-19.5,16.6-22.2,45.9-6,65.8c-17.7-19.2-16.4-49.1,2.8-66.7
		s49.1-16.4,66.7,2.8C108.2,41.2,109,42.1,109.8,43C109.8,43,109.8,43,109.8,43z"/>
	<circle class="st3" cx="90.1" cy="48.1" r="14.8"/>
</g>
</svg>
