<svg xmlns="http://www.w3.org/2000/svg" width="24" height="24" fill="none" viewBox="0 0 24 24">
    <path fill="#848484" d="M13 3c-2.387 0-4.676.948-6.364 2.636C4.948 7.324 4 9.613 4 12H1l3.89 3.89.07.14L9 12H6c0-3.87 3.13-7 7-7s7 3.13 7 7-3.13 7-7 7c-1.93 0-3.68-.79-4.94-2.06l-1.42 1.42c.833.838 1.824 1.503 2.916 1.956 1.092.453 2.262.686 3.444.684 2.387 0 4.676-.948 6.364-2.636C21.052 16.676 22 14.387 22 12s-.948-4.676-2.636-6.364C17.676 3.948 15.387 3 13 3zm-1 5v5l4.25 2.52.77-1.28-3.52-2.09V8H12z"/>
</svg>
