<svg width="20" height="20" viewBox="0 0 20 20" fill="none" xmlns="http://www.w3.org/2000/svg">
<path d="M16.667 1.66675H3.33366C2.41449 1.66675 1.66699 2.41175 1.66699 3.32675V13.3401C1.66699 14.2551 2.41449 15.0001 3.33366 15.0001H5.83366V18.3334L11.1262 15.0001H16.667C17.5862 15.0001 18.3337 14.2551 18.3337 13.3401V3.32675C18.3323 2.88574 18.1561 2.46327 17.8436 2.15206C17.5312 1.84084 17.108 1.66631 16.667 1.66675ZM9.16699 11.5951L6.07783 8.50592L7.25616 7.32758L9.16699 9.23842L13.1612 5.24425L14.3395 6.42258L9.16699 11.5951Z" fill="#4B5963"/>
<rect x="0.5" y="0.5" width="19" height="19" stroke="#A9B0B5"/>
</svg>
