<svg xmlns="http://www.w3.org/2000/svg" width="18" height="18" fill="none" viewBox="0 0 18 18">
    <path fill="#454344" d="M15.469 1.969c-.067 0-.136.012-.204.04L5.133 6.08H2.25c-.155 0-.281.13-.281.292v5.256c0 .162.126.292.281.292h1.786c-.065.204-.098.42-.098.64 0 1.158.945 2.1 2.109 2.1.974 0 1.795-.66 2.037-1.554l7.183 2.887c.068.026.137.04.204.04.297 0 .562-.25.562-.584V2.552c-.002-.334-.265-.583-.564-.583zm-9.422 11.43c-.466 0-.844-.375-.844-.84 0-.196.069-.384.193-.534l1.493.6c-.035.432-.4.775-.842.775z"/>
</svg>
