<svg width="20" height="20" viewBox="0 0 20 20" fill="none" xmlns="http://www.w3.org/2000/svg">
<path d="M5.46574 5.70142C3.81534 5.70142 2.47754 7.03922 2.47754 8.68962C2.47754 10.34 3.81534 11.6778 5.46574 11.6778C5.59504 11.6776 5.72002 11.6313 5.81815 11.5471C5.91628 11.4629 5.98111 11.3464 6.00094 11.2186H6.00954V6.24542C6.00954 6.10117 5.95225 5.96283 5.85028 5.86082C5.7483 5.75881 5.60998 5.70147 5.46574 5.70142Z" fill="#4B5963"/>
<path d="M17.5228 3.26279C17.5228 3.11859 17.4655 2.9803 17.3635 2.87833C17.2615 2.77636 17.1232 2.71905 16.979 2.71899C16.8544 2.71899 16.741 2.76259 16.6494 2.83299L11.8642 5.59579H7.55064C7.40641 5.59579 7.26809 5.65309 7.16611 5.75507C7.06413 5.85705 7.00684 5.99537 7.00684 6.13959V11.3014H7.01364C7.02959 11.4327 7.09299 11.5536 7.1919 11.6414C7.29081 11.7291 7.41839 11.7777 7.55064 11.778H11.3782L16.6102 14.7986C16.7072 14.8886 16.8362 14.9448 16.979 14.9448C17.1232 14.9447 17.2615 14.8874 17.3635 14.7855C17.4655 14.6835 17.5228 14.5452 17.5228 14.401C17.5228 14.3804 17.519 14.3608 17.5168 14.3408H17.5228V3.29439H17.5196C17.5202 3.28379 17.5228 3.27379 17.5228 3.26279Z" fill="#4B5963"/>
<path d="M11.2426 15.9144L11.235 15.9012C11.2324 15.8964 11.2312 15.8914 11.2284 15.8866C11.2256 15.8818 11.222 15.8782 11.2192 15.8738L9.55823 12.9972L9.55203 13.0008C9.5085 12.9407 9.45306 12.8903 9.38916 12.8525C9.32526 12.8148 9.25427 12.7907 9.18063 12.7816V12.7756H7.73623V12.7792C7.65634 12.7852 7.57879 12.8089 7.50923 12.8486C7.44737 12.8843 7.39315 12.9319 7.34967 12.9885C7.30619 13.0452 7.2743 13.1098 7.25582 13.1788C7.23734 13.2478 7.23263 13.3197 7.24197 13.3905C7.2513 13.4613 7.2745 13.5296 7.31023 13.5914C7.32303 13.6134 7.33863 13.6326 7.35403 13.652L7.34763 13.6558L9.28323 17.0086L9.28363 17.0096C9.28378 17.0099 9.28398 17.0102 9.28423 17.0104L9.30363 17.044L9.30703 17.042C9.38371 17.1555 9.5005 17.2357 9.63392 17.2666C9.76734 17.2975 9.9075 17.2767 10.0262 17.2084C10.0552 17.1916 10.0814 17.1718 10.106 17.151L10.111 17.1596L11.1076 16.5844L11.103 16.5764C11.1976 16.4982 11.2627 16.3901 11.2878 16.27C11.3129 16.1499 11.2965 16.0248 11.2412 15.9152L11.2426 15.9144Z" fill="#4B5963"/>
<rect x="0.5" y="0.5" width="19" height="19" stroke="#A9B0B5"/>
</svg>
