<svg xmlns="http://www.w3.org/2000/svg" width="18" height="18" fill="none" viewBox="0 0 18 18">
    <path fill="#454344" d="M15.325 15l-.153.125c-.115.104-.172.23-.172.375 0 .135.05.253.148.352.1.098.217.148.352.148h.828l.266.203c-.407.531-.938.797-1.594.797H3c-.552 0-1.023-.195-1.414-.586C1.196 16.024 1 15.552 1 15V3c0-.552.195-1.023.586-1.414C1.976 1.196 2.448 1 3 1h12c.656 0 1.188.266 1.594.797L16.328 2H15.5c-.135 0-.253.05-.352.148-.098.1-.148.217-.148.352 0 .146.057.27.172.375l.152.125L17 4.5 15 6l2 1.5L15 9l2 1.5-2 1.5 2 1.5-1.675 1.5zM9.5 16h1c.135 0 .253-.05.352-.148.098-.1.148-.217.148-.352 0-.135-.05-.253-.148-.352-.1-.098-.217-.148-.352-.148h-1c-.135 0-.253.05-.352.148-.099.1-.148.217-.148.352 0 .135.05.253.148.352.1.098.217.148.352.148zm2.5-3c.552 0 1.023-.195 1.414-.586.39-.39.586-.862.586-1.414 0-.552-.195-1.023-.586-1.414C13.024 9.196 12.552 9 12 9c-.552 0-1.023.195-1.414.586-.39.39-.586.862-.586 1.414 0 .552.195 1.023.586 1.414.39.39.862.586 1.414.586zm-5.5 3h1c.135 0 .253-.05.352-.148.099-.1.148-.217.148-.352 0-.135-.05-.253-.148-.352-.1-.098-.217-.148-.352-.148h-1c-.135 0-.253.05-.352.148-.099.1-.148.217-.148.352 0 .135.05.253.148.352.1.098.217.148.352.148zm-3 0h1c.135 0 .253-.05.352-.148.099-.1.148-.217.148-.352 0-.135-.05-.253-.148-.352-.1-.098-.217-.148-.352-.148h-1c-.135 0-.253.05-.352.148-.099.1-.148.217-.148.352 0 .135.05.253.148.352.1.098.217.148.352.148zM2 14c0 .135.05.253.148.352.1.098.217.148.352.148.135 0 .253-.05.352-.148.099-.1.148-.217.148-.352v-1c0-.135-.05-.253-.148-.352-.1-.098-.217-.148-.352-.148-.135 0-.253.05-.352.148-.099.1-.148.217-.148.352v1zm0-3c0 .135.05.253.148.352.1.098.217.148.352.148.135 0 .253-.05.352-.148.099-.1.148-.217.148-.352v-1c0-.135-.05-.253-.148-.352-.1-.099-.217-.148-.352-.148-.135 0-.253.05-.352.148C2.05 9.748 2 9.865 2 10v1zm0-3c0 .135.05.253.148.352.1.099.217.148.352.148.135 0 .253-.05.352-.148C2.95 8.252 3 8.135 3 8V7c0-.135-.05-.253-.148-.352-.1-.099-.217-.148-.352-.148-.135 0-.253.05-.352.148C2.05 6.748 2 6.865 2 7v1zm.5-4.5c-.135 0-.253.05-.352.148C2.05 3.748 2 3.865 2 4v1c0 .135.05.253.148.352.1.099.217.148.352.148.135 0 .253-.05.352-.148C2.95 5.252 3 5.135 3 5V4c0-.135-.05-.253-.148-.352-.1-.099-.217-.148-.352-.148zm2-1.5h-1c-.135 0-.253.05-.352.148-.099.1-.148.217-.148.352 0 .135.05.253.148.352.1.099.217.148.352.148h1c.135 0 .253-.05.352-.148.099-.1.148-.217.148-.352 0-.135-.05-.253-.148-.352C4.752 2.05 4.635 2 4.5 2zm3 0h-1c-.135 0-.253.05-.352.148-.099.1-.148.217-.148.352 0 .135.05.253.148.352.1.099.217.148.352.148h1c.135 0 .253-.05.352-.148.099-.1.148-.217.148-.352 0-.135-.05-.253-.148-.352C7.752 2.05 7.635 2 7.5 2zM7 5c-.552 0-1.023.195-1.414.586C5.196 5.976 5 6.448 5 7c0 .552.195 1.023.586 1.414.39.39.862.586 1.414.586.552 0 1.023-.195 1.414-.586C8.804 8.024 9 7.552 9 7c0-.552-.195-1.023-.586-1.414C8.024 5.196 7.552 5 7 5zm3.5-3h-1c-.135 0-.253.05-.352.148-.099.1-.148.217-.148.352 0 .135.05.253.148.352.1.099.217.148.352.148h1c.135 0 .253-.05.352-.148.098-.1.148-.217.148-.352 0-.135-.05-.253-.148-.352-.1-.099-.217-.148-.352-.148zm1.273 3.07c-.109-.067-.226-.086-.351-.054-.125.03-.224.109-.297.234l-4.063 7.016c-.062.114-.078.24-.046.375.03.135.104.237.218.304.115.068.235.084.36.047.125-.036.218-.112.281-.226l4.078-7.032c.063-.114.076-.237.04-.367-.037-.13-.11-.229-.22-.297zM13.5 2h-1c-.135 0-.253.05-.352.148-.098.1-.148.217-.148.352 0 .135.05.253.148.352.1.099.217.148.352.148h1c.135 0 .253-.05.352-.148.098-.1.148-.217.148-.352 0-.135-.05-.253-.148-.352-.1-.099-.217-.148-.352-.148zm0 13h-1c-.135 0-.253.05-.352.148-.098.1-.148.217-.148.352 0 .135.05.253.148.352.1.098.217.148.352.148h1c.135 0 .253-.05.352-.148.098-.1.148-.217.148-.352 0-.135-.05-.253-.148-.352-.1-.098-.217-.148-.352-.148zM7.008 8c-.276 0-.513-.099-.711-.297C6.099 7.505 6 7.268 6 6.993c0-.277.099-.511.297-.704.198-.193.435-.289.71-.289.277 0 .511.096.704.29.193.192.289.426.289.702 0 .276-.096.513-.29.711-.192.198-.426.297-.702.297zm5 2c.276 0 .51.096.703.29.193.192.289.426.289.702 0 .276-.096.513-.29.711-.192.198-.426.297-.702.297-.276 0-.513-.099-.711-.297-.198-.198-.297-.435-.297-.71 0-.277.099-.511.297-.704.198-.193.435-.289.71-.289z"/>
</svg>
