<svg xmlns="http://www.w3.org/2000/svg" width="18" height="18" fill="none" viewBox="0 0 18 18">
    <path fill="#454344" d="M5.25 6.75c-.398 0-.78-.158-1.06-.44-.282-.28-.44-.662-.44-1.06s.158-.78.44-1.06c.28-.282.662-.44 1.06-.44s.78.158 1.06.44c.282.28.44.662.44 1.06s-.158.78-.44 1.06c-.28.282-.662.44-1.06.44zM15 2.25H3c-.199 0-.39.079-.53.22-.141.14-.22.331-.22.53v4.5c0 .199.079.39.22.53.14.141.331.22.53.22h12c.199 0 .39-.079.53-.22.141-.14.22-.331.22-.53V3c0-.199-.079-.39-.22-.53-.14-.141-.331-.22-.53-.22zm-9.75 12c-.398 0-.78-.158-1.06-.44-.282-.28-.44-.662-.44-1.06s.158-.78.44-1.06c.28-.282.662-.44 1.06-.44s.78.158 1.06.44c.282.28.44.662.44 1.06s-.158.78-.44 1.06c-.28.282-.662.44-1.06.44zM15 9.75H3c-.199 0-.39.079-.53.22-.141.14-.22.331-.22.53V15c0 .199.079.39.22.53.14.141.331.22.53.22h12c.199 0 .39-.079.53-.22.141-.14.22-.331.22-.53v-4.5c0-.199-.079-.39-.22-.53-.14-.141-.331-.22-.53-.22z"/>
</svg>
