<svg xmlns="http://www.w3.org/2000/svg" width="18" height="18" fill="none" viewBox="0 0 18 18">
    <path fill="#454344" d="M9 9.75c-.995 0-1.948-.395-2.652-1.098C5.645 7.948 5.25 6.995 5.25 6h1.5c0 .597.237 1.169.659 1.591.422.422.994.659 1.591.659s1.169-.237 1.591-.659c.422-.422.659-.994.659-1.591h1.5c0 .995-.395 1.948-1.098 2.652C10.948 9.355 9.995 9.75 9 9.75zm0-7.5c.597 0 1.169.237 1.591.659.422.422.659.994.659 1.591h-4.5c0-.597.237-1.169.659-1.591.422-.422.994-.659 1.591-.659zm5.25 2.25h-1.5c0-.492-.097-.98-.286-1.435-.188-.455-.464-.868-.812-1.217-.349-.348-.762-.624-1.217-.813C9.98.847 9.492.75 9 .75c-.995 0-1.948.395-2.652 1.098C5.645 2.552 5.25 3.505 5.25 4.5h-1.5c-.833 0-1.5.668-1.5 1.5v9c0 .398.158.78.44 1.06.28.282.662.44 1.06.44h10.5c.398 0 .78-.158 1.06-.44.282-.28.44-.662.44-1.06V6c0-.398-.158-.78-.44-1.06-.28-.282-.662-.44-1.06-.44z"/>
</svg>
